<?xml version="1.0" standalone="no"?>
<!DOCTYPE svg PUBLIC "-//W3C//DTD SVG 1.1//EN" "http://www.w3.org/Graphics/SVG/1.1/DTD/svg11.dtd" >
<svg xmlns="http://www.w3.org/2000/svg" xmlns:xlink="http://www.w3.org/1999/xlink" version="1.1">
<metadata>
Created by FontForge 20190801 at Thu Mar 23 20:16:22 2023
 By root
Copyright (c) Font Awesome
</metadata>
<defs>
<font id="FontAwesome6Free-Regular" horiz-adv-x="512" >
  <font-face 
    font-family="Font Awesome 6 Free Regular"
    font-weight="400"
    font-stretch="normal"
    units-per-em="512"
    panose-1="2 0 5 3 0 0 0 0 0 0"
    ascent="448"
    descent="-64"
    x-height="410"
    bbox="-0.4 -64.2667 640.143 448.143"
    underline-thickness="0"
    underline-position="0"
    unicode-range="U+0030-1F9ED"
  />
<missing-glyph horiz-adv-x="384" 
d="M48 26l115 166l-115 166v-332v0zM77 -16h230l-115 166l-115 -166v0zM221 192l115 -166v332l-115 -166v0zM307 400h-230l115 -166l115 166v0zM0 400q1 20 14 34v0q14 13 34 14h288q20 -1 34 -14q13 -14 14 -34v-416q-1 -20 -14 -34q-14 -13 -34 -14h-288q-20 1 -34 14
q-13 14 -14 34v416v0z" />
    <glyph glyph-name=".notdef" horiz-adv-x="384" 
d="M48 26l115 166l-115 166v-332v0zM77 -16h230l-115 166l-115 -166v0zM221 192l115 -166v332l-115 -166v0zM307 400h-230l115 -166l115 166v0zM0 400q1 20 14 34v0q14 13 34 14h288q20 -1 34 -14q13 -14 14 -34v-416q-1 -20 -14 -34q-14 -13 -34 -14h-288q-20 1 -34 14
q-13 14 -14 34v416v0z" />
    <glyph glyph-name="uniF12A" unicode="&#xf12a;" horiz-adv-x="64" 
d="M56 392q-2 22 -24 24q-22 -2 -24 -24v-288q2 -22 24 -24q22 2 24 24v288v0zM32 -32q14 0 23 9v0q9 9 9 23t-9 23t-23 9t-23 -9t-9 -23t9 -23t23 -9v0z" />
    <glyph glyph-name="uniF12A" unicode="&#x2757;" horiz-adv-x="64" 
d="M56 392q-2 22 -24 24q-22 -2 -24 -24v-288q2 -22 24 -24q22 2 24 24v288v0zM32 -32q14 0 23 9v0q9 9 9 23t-9 23t-23 9t-23 -9t-9 -23t9 -23t23 -9v0z" />
    <glyph glyph-name="uniF12A" unicode="&#x2755;" horiz-adv-x="64" 
d="M56 392q-2 22 -24 24q-22 -2 -24 -24v-288q2 -22 24 -24q22 2 24 24v288v0zM32 -32q14 0 23 9v0q9 9 9 23t-9 23t-23 9t-23 -9t-9 -23t9 -23t23 -9v0z" />
    <glyph glyph-name="uniF12A" unicode="!" horiz-adv-x="64" 
d="M56 392q-2 22 -24 24q-22 -2 -24 -24v-288q2 -22 24 -24q22 2 24 24v288v0zM32 -32q14 0 23 9v0q9 9 9 23t-9 23t-23 9t-23 -9t-9 -23t9 -23t23 -9v0z" />
    <glyph glyph-name="uniF292" unicode="&#xf292;" horiz-adv-x="448" 
d="M189 415q21 -6 19 -28l-15 -75h111l16 85q7 21 29 18q21 -6 18 -28l-14 -75h71q22 -2 24 -24q-2 -22 -24 -24h-81l-29 -144h78q22 -2 24 -24q-2 -22 -24 -24h-87l-17 -85q-7 -21 -29 -19q-21 7 -18 29l15 75h-111l-17 -85q-7 -21 -29 -19q-21 7 -18 29l15 75h-72
q-22 2 -24 24q2 22 24 24h81l29 144h-78q-22 2 -24 24q2 22 24 24h88l16 85q7 21 29 18v0zM183 264l-29 -144h111l29 144h-111v0z" />
    <glyph glyph-name="uniF292" unicode="#" horiz-adv-x="448" 
d="M189 415q21 -6 19 -28l-15 -75h111l16 85q7 21 29 18q21 -6 18 -28l-14 -75h71q22 -2 24 -24q-2 -22 -24 -24h-81l-29 -144h78q22 -2 24 -24q-2 -22 -24 -24h-87l-17 -85q-7 -21 -29 -19q-21 7 -18 29l15 75h-111l-17 -85q-7 -21 -29 -19q-21 7 -18 29l15 75h-72
q-22 2 -24 24q2 22 24 24h81l29 144h-78q-22 2 -24 24q2 22 24 24h88l16 85q7 21 29 18v0zM183 264l-29 -144h111l29 144h-111v0z" />
    <glyph glyph-name="u1F4B2" unicode="&#x1f4b2;" horiz-adv-x="320" 
d="M184 424q-2 22 -24 24q-22 -2 -24 -24v-48h-9q-36 -2 -67 -20q-33 -20 -42 -62q-6 -31 6 -55q13 -24 35 -37q20 -12 45 -19q24 -8 48 -14h2q52 -12 82 -28q13 -9 17 -17q5 -8 2 -25q-4 -22 -35 -35q-33 -13 -87 -6q-18 3 -42 9t-41 14q-21 7 -32 -13q-7 -21 12 -31
q21 -9 49 -16q27 -7 47 -10v0q3 0 5 -1h5v-50q2 -22 24 -24q22 2 24 24v49q29 1 54 11q51 17 64 70q6 31 -6 55q-13 24 -35 37q-20 12 -45 19q-24 8 -48 14h-2q-52 12 -82 28q-13 9 -17 17q-5 8 -2 25q5 21 20 30q17 11 46 13t59 -2q31 -5 55 -11q21 -3 28 18q4 22 -17 29
q-30 8 -72 13v49v0z" />
    <glyph glyph-name="u1F4B2" unicode="&#xf155;" horiz-adv-x="320" 
d="M184 424q-2 22 -24 24q-22 -2 -24 -24v-48h-9q-36 -2 -67 -20q-33 -20 -42 -62q-6 -31 6 -55q13 -24 35 -37q20 -12 45 -19q24 -8 48 -14h2q52 -12 82 -28q13 -9 17 -17q5 -8 2 -25q-4 -22 -35 -35q-33 -13 -87 -6q-18 3 -42 9t-41 14q-21 7 -32 -13q-7 -21 12 -31
q21 -9 49 -16q27 -7 47 -10v0q3 0 5 -1h5v-50q2 -22 24 -24q22 2 24 24v49q29 1 54 11q51 17 64 70q6 31 -6 55q-13 24 -35 37q-20 12 -45 19q-24 8 -48 14h-2q-52 12 -82 28q-13 9 -17 17q-5 8 -2 25q5 21 20 30q17 11 46 13t59 -2q31 -5 55 -11q21 -3 28 18q4 22 -17 29
q-30 8 -72 13v49v0z" />
    <glyph glyph-name="u1F4B2" unicode="$" horiz-adv-x="320" 
d="M184 424q-2 22 -24 24q-22 -2 -24 -24v-48h-9q-36 -2 -67 -20q-33 -20 -42 -62q-6 -31 6 -55q13 -24 35 -37q20 -12 45 -19q24 -8 48 -14h2q52 -12 82 -28q13 -9 17 -17q5 -8 2 -25q-4 -22 -35 -35q-33 -13 -87 -6q-18 3 -42 9t-41 14q-21 7 -32 -13q-7 -21 12 -31
q21 -9 49 -16q27 -7 47 -10v0q3 0 5 -1h5v-50q2 -22 24 -24q22 2 24 24v49q29 1 54 11q51 17 64 70q6 31 -6 55q-13 24 -35 37q-20 12 -45 19q-24 8 -48 14h-2q-52 12 -82 28q-13 9 -17 17q-5 8 -2 25q5 21 20 30q17 11 46 13t59 -2q31 -5 55 -11q21 -3 28 18q4 22 -17 29
q-30 8 -72 13v49v0z" />
    <glyph glyph-name="uniF541" unicode="&#xf541;" horiz-adv-x="384" 
d="M369 335q14 17 0 34q-17 14 -34 0l-320 -320q-14 -17 0 -34q17 -14 34 0l320 320v0zM112 320q-1 27 -24 42q-24 12 -48 0q-23 -15 -24 -42q1 -27 24 -42q24 -12 48 0q23 15 24 42v0zM368 64q-1 27 -24 42q-24 12 -48 0q-23 -15 -24 -42q1 -27 24 -42q24 -12 48 0
q23 15 24 42v0z" />
    <glyph glyph-name="uniF541" unicode="&#xf295;" horiz-adv-x="384" 
d="M369 335q14 17 0 34q-17 14 -34 0l-320 -320q-14 -17 0 -34q17 -14 34 0l320 320v0zM112 320q-1 27 -24 42q-24 12 -48 0q-23 -15 -24 -42q1 -27 24 -42q24 -12 48 0q23 15 24 42v0zM368 64q-1 27 -24 42q-24 12 -48 0q-23 -15 -24 -42q1 -27 24 -42q24 -12 48 0
q23 15 24 42v0z" />
    <glyph glyph-name="uniF541" unicode="%" horiz-adv-x="384" 
d="M369 335q14 17 0 34q-17 14 -34 0l-320 -320q-14 -17 0 -34q17 -14 34 0l320 320v0zM112 320q-1 27 -24 42q-24 12 -48 0q-23 -15 -24 -42q1 -27 24 -42q24 -12 48 0q23 15 24 42v0zM368 64q-1 27 -24 42q-24 12 -48 0q-23 -15 -24 -42q1 -27 24 -42q24 -12 48 0
q23 15 24 42v0z" />
    <glyph glyph-name="uniF069" unicode="&#xf069;" horiz-adv-x="384" 
d="M192 416q22 -2 24 -24v-157l131 81q20 10 33 -7q10 -20 -7 -33l-135 -84l135 -84q17 -13 7 -33q-13 -17 -33 -7l-131 81v-157q-2 -22 -24 -24q-22 2 -24 24v157l-131 -81q-20 -10 -33 7q-10 20 7 33l135 84l-135 84q-17 13 -7 33q13 17 33 7l131 -81v157q2 22 24 24v0z
" />
    <glyph glyph-name="uniF069" unicode="&#x2731;" horiz-adv-x="384" 
d="M192 416q22 -2 24 -24v-157l131 81q20 10 33 -7q10 -20 -7 -33l-135 -84l135 -84q17 -13 7 -33q-13 -17 -33 -7l-131 81v-157q-2 -22 -24 -24q-22 2 -24 24v157l-131 -81q-20 -10 -33 7q-10 20 7 33l135 84l-135 84q-17 13 -7 33q13 17 33 7l131 -81v157q2 22 24 24v0z
" />
    <glyph glyph-name="uniF069" unicode="*" horiz-adv-x="384" 
d="M192 416q22 -2 24 -24v-157l131 81q20 10 33 -7q10 -20 -7 -33l-135 -84l135 -84q17 -13 7 -33q-13 -17 -33 -7l-131 81v-157q-2 -22 -24 -24q-22 2 -24 24v157l-131 -81q-20 -10 -33 7q-10 20 7 33l135 84l-135 84q-17 13 -7 33q13 17 33 7l131 -81v157q2 22 24 24v0z
" />
    <glyph glyph-name="uniF067" unicode="&#xf067;" horiz-adv-x="448" 
d="M248 376q-2 22 -24 24q-22 -2 -24 -24v-160h-160q-22 -2 -24 -24q2 -22 24 -24h160v-160q2 -22 24 -24q22 2 24 24v160h160q22 2 24 24q-2 22 -24 24h-160v160v0z" />
    <glyph glyph-name="uniF067" unicode="&#x2795;" horiz-adv-x="448" 
d="M248 376q-2 22 -24 24q-22 -2 -24 -24v-160h-160q-22 -2 -24 -24q2 -22 24 -24h160v-160q2 -22 24 -24q22 2 24 24v160h160q22 2 24 24q-2 22 -24 24h-160v160v0z" />
    <glyph glyph-name="uniF067" unicode="+" horiz-adv-x="448" 
d="M248 376q-2 22 -24 24q-22 -2 -24 -24v-160h-160q-22 -2 -24 -24q2 -22 24 -24h160v-160q2 -22 24 -24q22 2 24 24v160h160q22 2 24 24q-2 22 -24 24h-160v160v0z" />
    <glyph glyph-name="zero" unicode="0" horiz-adv-x="320" 
d="M0 256q2 68 47 113v0q45 45 113 47q68 -2 113 -47t47 -113v-128q-2 -68 -47 -113t-113 -47q-68 2 -113 47t-47 113v128v0zM160 368q-48 -1 -79 -33v0q-32 -31 -33 -79v-128q1 -48 33 -79q31 -32 79 -33q48 1 79 33q32 31 33 79v128q-1 48 -33 79q-31 32 -79 33v0z" />
    <glyph glyph-name="one" unicode="1" horiz-adv-x="256" 
d="M152 392q0 14 -12 21q-13 6 -25 -1l-104 -64q-17 -13 -8 -33q14 -17 33 -7l68 41v-333h-80q-22 -2 -24 -24q2 -22 24 -24h104h104q22 2 24 24q-2 22 -24 24h-80v376v0z" />
    <glyph glyph-name="two" unicode="2" horiz-adv-x="320" 
d="M148 368q-42 -1 -71 -29l-36 -36q-17 -14 -34 0q-14 17 0 34l36 35q43 43 105 44h7q60 -2 100 -41q39 -40 41 -100q-1 -61 -45 -103l-166 -156h211q22 -2 24 -24q-2 -22 -24 -24h-272q-16 1 -22 15q-5 15 6 26l211 198q28 28 29 68q-1 39 -27 66q-27 26 -66 27h-7v0z" />
    <glyph glyph-name="three" unicode="3" horiz-adv-x="320" 
d="M0 392q2 22 24 24h256q16 -1 22 -15q6 -15 -5 -26l-149 -143h40q56 -1 93 -39q38 -37 39 -93q-1 -56 -39 -93q-37 -38 -93 -39h-91q-30 0 -54 16q-25 15 -39 41l-1 4q-8 21 10 32q21 8 32 -10l2 -4q17 -30 50 -31h91q36 1 59 25q24 23 25 59q-1 36 -25 59q-23 24 -59 25
h-100q-16 1 -22 15q-6 15 5 26l149 143h-196q-22 2 -24 24v0z" />
    <glyph glyph-name="four" unicode="4" horiz-adv-x="384" 
d="M189 381q9 20 -10 32q-20 9 -32 -10l-144 -272q-6 -12 0 -23q8 -12 21 -12h248v-104q2 -22 24 -24q22 2 24 24v104h40q22 2 24 24q-2 22 -24 24h-40v152q-2 22 -24 24q-22 -2 -24 -24v-152h-208l125 237v0z" />
    <glyph glyph-name="five" unicode="5" horiz-adv-x="320" 
d="M32 396q5 19 24 20h208q22 -2 24 -24q-2 -22 -24 -24h-188l-23 -136h135q56 -1 93 -39q38 -37 39 -93q-1 -56 -39 -93q-37 -38 -93 -39h-95q-28 0 -51 14t-35 39l-5 8q-7 21 11 33q21 7 32 -11l5 -8q14 -26 43 -27h95q36 1 59 25q24 23 25 59q-1 36 -25 59q-23 24 -59 25
h-164q-11 0 -18 9q-7 8 -6 19l32 184v0z" />
    <glyph glyph-name="six" unicode="6" horiz-adv-x="320" 
d="M272 128q-1 48 -33 79v0q-31 32 -79 33q-50 -1 -82 -36l-5 -6q-25 -31 -25 -70q1 -48 33 -79q31 -32 79 -33q48 1 79 33q32 31 33 79v0zM146 287q7 1 14 1q68 -2 113 -47t47 -113q-2 -68 -47 -113t-113 -47q-68 2 -113 47t-47 113q1 64 42 108l139 171q16 16 34 4
q16 -16 4 -34l-73 -90v0z" />
    <glyph glyph-name="seven" unicode="7" horiz-adv-x="320" 
d="M0 392q2 22 24 24h272q14 0 21 -12q6 -12 0 -24l-240 -400q-13 -18 -33 -9q-18 13 -8 33l218 364h-230q-22 2 -24 24v0z" />
    <glyph glyph-name="eight" unicode="8" horiz-adv-x="320" 
d="M304 292q-1 53 -36 88v0q-35 35 -88 36h-40q-53 -1 -88 -36t-36 -88q2 -58 43 -94q-27 -17 -43 -44q-16 -28 -16 -62q1 -53 36 -88t88 -36h72q53 1 88 36t36 88q0 34 -16 62q-16 27 -43 44q41 36 43 94v0zM180 168h16q32 -1 54 -22q21 -22 22 -54q-1 -32 -22 -54
q-22 -21 -54 -22h-72q-32 1 -54 22q-21 22 -22 54q1 32 22 54q22 21 54 22h16v0v0h40v0v0v0zM180 216v0v0v0h-40v0v0q-32 1 -54 22q-21 22 -22 54q1 32 22 54q22 21 54 22h40q32 -1 54 -22q21 -22 22 -54q-1 -32 -22 -54q-22 -21 -54 -22v0z" />
    <glyph glyph-name="nine" unicode="9" horiz-adv-x="320" 
d="M48 256q1 -48 33 -79v0q31 -32 79 -33q50 1 82 36l5 6q25 31 25 70q-1 48 -33 79q-31 32 -79 33q-48 -1 -79 -33q-32 -31 -33 -79v0zM174 97q-7 -1 -14 -1q-68 2 -113 47t-47 113q2 68 47 113t113 47q68 -2 113 -47t47 -113q-1 -64 -42 -108l-139 -171q-16 -16 -34 -4
q-16 16 -4 34l73 90v0z" />
    <glyph glyph-name="uniF536" unicode="&#xf536;" horiz-adv-x="384" 
d="M382 371q7 -21 -11 -33l-293 -146l293 -147q18 -11 10 -32q-11 -18 -32 -10l-336 168q-12 6 -13 21q0 14 13 21l336 168q21 8 33 -10v0z" />
    <glyph glyph-name="uniF536" unicode="&#x3c;" horiz-adv-x="384" 
d="M382 371q7 -21 -11 -33l-293 -146l293 -147q18 -11 10 -32q-11 -18 -32 -10l-336 168q-12 6 -13 21q0 14 13 21l336 168q21 8 33 -10v0z" />
    <glyph glyph-name="uniF52C" unicode="&#xf52c;" horiz-adv-x="448" 
d="M40 304q-22 -2 -24 -24q2 -22 24 -24h368q22 2 24 24q-2 22 -24 24h-368v0zM40 128q-22 -2 -24 -24q2 -22 24 -24h368q22 2 24 24q-2 22 -24 24h-368v0z" />
    <glyph glyph-name="uniF52C" unicode="=" horiz-adv-x="448" 
d="M40 304q-22 -2 -24 -24q2 -22 24 -24h368q22 2 24 24q-2 22 -24 24h-368v0zM40 128q-22 -2 -24 -24q2 -22 24 -24h368q22 2 24 24q-2 22 -24 24h-368v0z" />
    <glyph glyph-name="uniF531" unicode="&#xf531;" horiz-adv-x="384" 
d="M3 371q-8 -21 10 -33l293 -146l-293 -147q-18 -11 -10 -32q11 -18 32 -10l336 168q12 7 13 21q0 15 -13 22l-336 168q-21 7 -32 -11v0z" />
    <glyph glyph-name="uniF531" unicode="&#x3e;" horiz-adv-x="384" 
d="M3 371q-8 -21 10 -33l293 -146l-293 -147q-18 -11 -10 -32q11 -18 32 -10l336 168q12 7 13 21q0 15 -13 22l-336 168q-21 7 -32 -11v0z" />
    <glyph glyph-name="uniF128" unicode="&#xf128;" horiz-adv-x="320" 
d="M64 288q1 34 23 57v0q23 22 57 23h32q34 -1 57 -23q22 -23 23 -57v-5q-1 -38 -32 -60l-52 -34q-35 -25 -36 -67v-2q2 -22 24 -24q22 2 24 24v2q0 17 14 27l53 34q25 18 39 44t14 56v5q-1 54 -38 91q-36 36 -90 37h-32q-54 -1 -91 -37q-36 -37 -37 -91q2 -22 24 -24
q22 2 24 24v0zM160 -32q14 0 23 9v0q9 9 9 23t-9 23t-23 9t-23 -9t-9 -23t9 -23t23 -9v0z" />
    <glyph glyph-name="uniF128" unicode="&#x2754;" horiz-adv-x="320" 
d="M64 288q1 34 23 57v0q23 22 57 23h32q34 -1 57 -23q22 -23 23 -57v-5q-1 -38 -32 -60l-52 -34q-35 -25 -36 -67v-2q2 -22 24 -24q22 2 24 24v2q0 17 14 27l53 34q25 18 39 44t14 56v5q-1 54 -38 91q-36 36 -90 37h-32q-54 -1 -91 -37q-36 -37 -37 -91q2 -22 24 -24
q22 2 24 24v0zM160 -32q14 0 23 9v0q9 9 9 23t-9 23t-23 9t-23 -9t-9 -23t9 -23t23 -9v0z" />
    <glyph glyph-name="uniF128" unicode="&#x2753;" horiz-adv-x="320" 
d="M64 288q1 34 23 57v0q23 22 57 23h32q34 -1 57 -23q22 -23 23 -57v-5q-1 -38 -32 -60l-52 -34q-35 -25 -36 -67v-2q2 -22 24 -24q22 2 24 24v2q0 17 14 27l53 34q25 18 39 44t14 56v5q-1 54 -38 91q-36 36 -90 37h-32q-54 -1 -91 -37q-36 -37 -37 -91q2 -22 24 -24
q22 2 24 24v0zM160 -32q14 0 23 9v0q9 9 9 23t-9 23t-23 9t-23 -9t-9 -23t9 -23t23 -9v0z" />
    <glyph glyph-name="uniF128" unicode="?" horiz-adv-x="320" 
d="M64 288q1 34 23 57v0q23 22 57 23h32q34 -1 57 -23q22 -23 23 -57v-5q-1 -38 -32 -60l-52 -34q-35 -25 -36 -67v-2q2 -22 24 -24q22 2 24 24v2q0 17 14 27l53 34q25 18 39 44t14 56v5q-1 54 -38 91q-36 36 -90 37h-32q-54 -1 -91 -37q-36 -37 -37 -91q2 -22 24 -24
q22 2 24 24v0zM160 -32q14 0 23 9v0q9 9 9 23t-9 23t-23 9t-23 -9t-9 -23t9 -23t23 -9v0z" />
    <glyph glyph-name="uniF1FA" unicode="&#xf1fa;" 
d="M256 400q-88 -2 -147 -61v0q-59 -59 -61 -147q2 -88 61 -147t147 -61q22 -2 24 -24q-2 -22 -24 -24q-72 1 -129 35q-58 34 -92 92q-34 57 -35 129q1 72 35 129q34 58 92 92q57 34 129 35q72 -1 129 -35q58 -34 92 -92q34 -57 35 -129v-28q-1 -39 -27 -65t-65 -27
q-49 2 -75 39q-35 -37 -89 -39q-51 1 -85 35t-35 85q1 51 35 85t85 35q44 -1 76 -27q7 10 20 11q22 -2 24 -24v-80v-28q0 -19 13 -31q12 -13 31 -13t31 13q13 12 13 31v28q-2 88 -61 147t-147 61v0zM328 192q-1 41 -36 62q-36 20 -72 0q-35 -21 -36 -62q1 -41 36 -62
q36 -20 72 0q35 21 36 62v0z" />
    <glyph glyph-name="uniF1FA" unicode="@" 
d="M256 400q-88 -2 -147 -61v0q-59 -59 -61 -147q2 -88 61 -147t147 -61q22 -2 24 -24q-2 -22 -24 -24q-72 1 -129 35q-58 34 -92 92q-34 57 -35 129q1 72 35 129q34 58 92 92q57 34 129 35q72 -1 129 -35q58 -34 92 -92q34 -57 35 -129v-28q-1 -39 -27 -65t-65 -27
q-49 2 -75 39q-35 -37 -89 -39q-51 1 -85 35t-35 85q1 51 35 85t85 35q44 -1 76 -27q7 10 20 11q22 -2 24 -24v-80v-28q0 -19 13 -31q12 -13 31 -13t31 13q13 12 13 31v28q-2 88 -61 147t-147 61v0zM328 192q-1 41 -36 62q-36 20 -72 0q-35 -21 -36 -62q1 -41 36 -62
q36 -20 72 0q35 21 36 62v0z" />
    <glyph glyph-name="a" unicode="a" horiz-adv-x="384" 
d="M214 401q-6 14 -22 15q-16 -1 -22 -15l-168 -400q-7 -21 13 -31q21 -7 31 13l34 81h224l34 -81q10 -20 31 -13q20 10 13 31l-168 400v0zM284 112h-184l92 218l92 -218v0z" />
    <glyph glyph-name="a" unicode="A" horiz-adv-x="384" 
d="M214 401q-6 14 -22 15q-16 -1 -22 -15l-168 -400q-7 -21 13 -31q21 -7 31 13l34 81h224l34 -81q10 -20 31 -13q20 10 13 31l-168 400v0zM284 112h-184l92 218l92 -218v0z" />
    <glyph glyph-name="b" unicode="b" horiz-adv-x="320" 
d="M56 416q-24 -1 -40 -16v0q-15 -16 -16 -40v-168v-168q1 -24 16 -40q16 -15 40 -16h140q53 1 88 36t36 88q0 37 -19 66q-19 30 -50 45q36 35 37 89q-1 53 -36 88t-88 36h-108v0zM164 216h-116v144q1 7 8 8h108q32 -1 54 -22q21 -22 22 -54q-1 -32 -22 -54q-22 -21 -54 -22
v0zM48 168h116h28h4q32 -1 54 -22q21 -22 22 -54q-1 -32 -22 -54q-22 -21 -54 -22h-140q-7 1 -8 8v144v0z" />
    <glyph glyph-name="b" unicode="B" horiz-adv-x="320" 
d="M56 416q-24 -1 -40 -16v0q-15 -16 -16 -40v-168v-168q1 -24 16 -40q16 -15 40 -16h140q53 1 88 36t36 88q0 37 -19 66q-19 30 -50 45q36 35 37 89q-1 53 -36 88t-88 36h-108v0zM164 216h-116v144q1 7 8 8h108q32 -1 54 -22q21 -22 22 -54q-1 -32 -22 -54q-22 -21 -54 -22
v0zM48 168h116h28h4q32 -1 54 -22q21 -22 22 -54q-1 -32 -22 -54q-22 -21 -54 -22h-140q-7 1 -8 8v144v0z" />
    <glyph glyph-name="c" unicode="c" horiz-adv-x="384" 
d="M344 316q-54 52 -123 52v0q-69 0 -123 -52q-50 -54 -50 -124t50 -124q54 -52 123 -52t123 52q16 14 33 0q14 -17 0 -35q-44 -43 -100 -58t-112 0t-100 58q-44 45 -58 102t0 114t58 101t100 59q56 14 112 0q56 -15 100 -59q14 -17 0 -34q-17 -14 -33 0v0z" />
    <glyph glyph-name="c" unicode="C" horiz-adv-x="384" 
d="M344 316q-54 52 -123 52v0q-69 0 -123 -52q-50 -54 -50 -124t50 -124q54 -52 123 -52t123 52q16 14 33 0q14 -17 0 -35q-44 -43 -100 -58t-112 0t-100 58q-44 45 -58 102t0 114t58 101t100 59q56 14 112 0q56 -15 100 -59q14 -17 0 -34q-17 -14 -33 0v0z" />
    <glyph glyph-name="d" unicode="d" horiz-adv-x="384" 
d="M56 368q-7 -1 -8 -8v-336q1 -7 8 -8h104q75 2 124 52q50 49 52 124q-2 75 -52 124q-49 50 -124 52h-104v0zM0 360q1 24 16 40v0q16 15 40 16h104q63 -1 113 -31q51 -29 80 -80q30 -50 31 -113q-1 -63 -31 -113q-29 -51 -80 -80q-50 -30 -113 -31h-104q-24 1 -40 16
q-15 16 -16 40v336v0z" />
    <glyph glyph-name="d" unicode="D" horiz-adv-x="384" 
d="M56 368q-7 -1 -8 -8v-336q1 -7 8 -8h104q75 2 124 52q50 49 52 124q-2 75 -52 124q-49 50 -124 52h-104v0zM0 360q1 24 16 40v0q16 15 40 16h104q63 -1 113 -31q51 -29 80 -80q30 -50 31 -113q-1 -63 -31 -113q-29 -51 -80 -80q-50 -30 -113 -31h-104q-24 1 -40 16
q-15 16 -16 40v336v0z" />
    <glyph glyph-name="e" unicode="e" horiz-adv-x="320" 
d="M56 416q-24 -1 -40 -16v0q-15 -16 -16 -40v-168v-168q1 -24 16 -40q16 -15 40 -16h240q22 2 24 24q-2 22 -24 24h-240q-7 1 -8 8v152h184q22 2 24 24q-2 22 -24 24h-184v136q1 7 8 8h240q22 2 24 24q-2 22 -24 24h-240v0z" />
    <glyph glyph-name="e" unicode="E" horiz-adv-x="320" 
d="M56 416q-24 -1 -40 -16v0q-15 -16 -16 -40v-168v-168q1 -24 16 -40q16 -15 40 -16h240q22 2 24 24q-2 22 -24 24h-240q-7 1 -8 8v152h184q22 2 24 24q-2 22 -24 24h-184v136q1 7 8 8h240q22 2 24 24q-2 22 -24 24h-240v0z" />
    <glyph glyph-name="f" unicode="f" horiz-adv-x="320" 
d="M56 416q-24 -1 -40 -16v0q-15 -16 -16 -40v-160v-208q2 -22 24 -24q22 2 24 24v184h184q22 2 24 24q-2 22 -24 24h-184v136q1 7 8 8h240q22 2 24 24q-2 22 -24 24h-240v0z" />
    <glyph glyph-name="f" unicode="F" horiz-adv-x="320" 
d="M56 416q-24 -1 -40 -16v0q-15 -16 -16 -40v-160v-208q2 -22 24 -24q22 2 24 24v184h184q22 2 24 24q-2 22 -24 24h-184v136q1 7 8 8h240q22 2 24 24q-2 22 -24 24h-240v0z" />
    <glyph glyph-name="g" unicode="g" horiz-adv-x="448" 
d="M224 368q-75 -2 -124 -52v0q-50 -49 -52 -124q2 -75 52 -124q49 -50 124 -52q68 1 116 44q48 42 58 108h-149q-22 2 -24 24q2 22 24 24h159q17 0 28 -12q12 -12 11 -30q-9 -89 -71 -146q-62 -58 -152 -60q-63 1 -113 31q-51 29 -80 80q-30 50 -31 113q1 63 31 113
q29 51 80 80q50 30 113 31q88 -2 149 -57q15 -16 2 -34q-16 -15 -34 -2q-48 44 -117 45v0z" />
    <glyph glyph-name="g" unicode="G" horiz-adv-x="448" 
d="M224 368q-75 -2 -124 -52v0q-50 -49 -52 -124q2 -75 52 -124q49 -50 124 -52q68 1 116 44q48 42 58 108h-149q-22 2 -24 24q2 22 24 24h159q17 0 28 -12q12 -12 11 -30q-9 -89 -71 -146q-62 -58 -152 -60q-63 1 -113 31q-51 29 -80 80q-30 50 -31 113q1 63 31 113
q29 51 80 80q50 30 113 31q88 -2 149 -57q15 -16 2 -34q-16 -15 -34 -2q-48 44 -117 45v0z" />
    <glyph glyph-name="h" unicode="h" horiz-adv-x="384" 
d="M336 192v-200q2 -22 24 -24q22 2 24 24v232v168q-2 22 -24 24q-22 -2 -24 -24v-152h-288v152q-2 22 -24 24q-22 -2 -24 -24v-400q2 -22 24 -24q22 2 24 24v200h288v0z" />
    <glyph glyph-name="h" unicode="H" horiz-adv-x="384" 
d="M336 192v-200q2 -22 24 -24q22 2 24 24v232v168q-2 22 -24 24q-22 -2 -24 -24v-152h-288v152q-2 22 -24 24q-22 -2 -24 -24v-400q2 -22 24 -24q22 2 24 24v200h288v0z" />
    <glyph glyph-name="i" unicode="i" horiz-adv-x="320" 
d="M24 416q-22 -2 -24 -24q2 -22 24 -24h112v-352h-112q-22 -2 -24 -24q2 -22 24 -24h272q22 2 24 24q-2 22 -24 24h-112v352h112q22 2 24 24q-2 22 -24 24h-136h-136v0z" />
    <glyph glyph-name="i" unicode="I" horiz-adv-x="320" 
d="M24 416q-22 -2 -24 -24q2 -22 24 -24h112v-352h-112q-22 -2 -24 -24q2 -22 24 -24h272q22 2 24 24q-2 22 -24 24h-112v352h112q22 2 24 24q-2 22 -24 24h-136h-136v0z" />
    <glyph glyph-name="j" unicode="j" horiz-adv-x="320" 
d="M296 416q22 -2 24 -24v-264q-2 -68 -47 -113t-113 -47q-68 2 -113 47t-47 113v40q2 22 24 24q22 -2 24 -24v-40q1 -48 33 -79q31 -32 79 -33q48 1 79 33q32 31 33 79v264q2 22 24 24v0z" />
    <glyph glyph-name="j" unicode="J" horiz-adv-x="320" 
d="M296 416q22 -2 24 -24v-264q-2 -68 -47 -113t-113 -47q-68 2 -113 47t-47 113v40q2 22 24 24q22 -2 24 -24v-40q1 -48 33 -79q31 -32 79 -33q48 1 79 33q32 31 33 79v264q2 22 24 24v0z" />
    <glyph glyph-name="k" unicode="k" horiz-adv-x="320" 
d="M48 392q-2 22 -24 24q-22 -2 -24 -24v-272v-128q2 -22 24 -24q22 2 24 24v118l80 80l148 -212q15 -17 34 -6q16 15 6 34l-154 218l151 151q14 17 0 34q-17 14 -34 0l-231 -231v214v0z" />
    <glyph glyph-name="k" unicode="K" horiz-adv-x="320" 
d="M48 392q-2 22 -24 24q-22 -2 -24 -24v-272v-128q2 -22 24 -24q22 2 24 24v118l80 80l148 -212q15 -17 34 -6q16 15 6 34l-154 218l151 151q14 17 0 34q-17 14 -34 0l-231 -231v214v0z" />
    <glyph glyph-name="l" unicode="l" horiz-adv-x="320" 
d="M56 416q22 -2 24 -24v-376h216q22 -2 24 -24q-2 -22 -24 -24h-240q-22 2 -24 24v400q2 22 24 24v0z" />
    <glyph glyph-name="l" unicode="L" horiz-adv-x="320" 
d="M56 416q22 -2 24 -24v-376h216q22 -2 24 -24q-2 -22 -24 -24h-240q-22 2 -24 24v400q2 22 24 24v0z" />
    <glyph glyph-name="m" unicode="m" horiz-adv-x="448" 
d="M17 415q17 4 27 -10l180 -273l180 273q10 14 27 10q16 -6 17 -23v-400q-2 -22 -24 -24q-22 2 -24 24v320l-156 -237q-7 -11 -20 -11t-20 11l-156 237v-320q-2 -22 -24 -24q-22 2 -24 24v400q1 17 17 23v0z" />
    <glyph glyph-name="m" unicode="M" horiz-adv-x="448" 
d="M17 415q17 4 27 -10l180 -273l180 273q10 14 27 10q16 -6 17 -23v-400q-2 -22 -24 -24q-22 2 -24 24v320l-156 -237q-7 -11 -20 -11t-20 11l-156 237v-320q-2 -22 -24 -24q-22 2 -24 24v400q1 17 17 23v0z" />
    <glyph glyph-name="n" unicode="n" horiz-adv-x="384" 
d="M16 415q15 4 26 -8l294 -349v334q2 22 24 24q22 -2 24 -24v-400q-1 -16 -16 -23q-15 -4 -26 7l-294 350v-334q-2 -22 -24 -24q-22 2 -24 24v400q1 16 16 23v0z" />
    <glyph glyph-name="n" unicode="N" horiz-adv-x="384" 
d="M16 415q15 4 26 -8l294 -349v334q2 22 24 24q22 -2 24 -24v-400q-1 -16 -16 -23q-15 -4 -26 7l-294 350v-334q-2 -22 -24 -24q-22 2 -24 24v400q1 16 16 23v0z" />
    <glyph glyph-name="o" unicode="o" horiz-adv-x="448" 
d="M224 368q-48 0 -88 -24v0q-40 -23 -64 -64q-24 -42 -24 -88t24 -88q24 -41 64 -64q40 -24 88 -24t88 24q40 23 64 64q24 42 24 88t-24 88q-24 41 -64 64q-40 24 -88 24v0zM448 192q-1 -61 -30 -112v0q-30 -51 -82 -82q-53 -30 -112 -30t-112 30q-52 31 -82 82
q-29 51 -30 112q1 61 30 112q30 51 82 82q53 30 112 30t112 -30q52 -31 82 -82q29 -51 30 -112v0z" />
    <glyph glyph-name="o" unicode="O" horiz-adv-x="448" 
d="M224 368q-48 0 -88 -24v0q-40 -23 -64 -64q-24 -42 -24 -88t24 -88q24 -41 64 -64q40 -24 88 -24t88 24q40 23 64 64q24 42 24 88t-24 88q-24 41 -64 64q-40 24 -88 24v0zM448 192q-1 -61 -30 -112v0q-30 -51 -82 -82q-53 -30 -112 -30t-112 30q-52 31 -82 82
q-29 51 -30 112q1 61 30 112q30 51 82 82q53 30 112 30t112 -30q52 -31 82 -82q29 -51 30 -112v0z" />
    <glyph glyph-name="p" unicode="p" horiz-adv-x="320" 
d="M56 368h112q44 -1 74 -30q29 -30 30 -74q-1 -44 -30 -74q-30 -29 -74 -30h-120v200q1 7 8 8v0zM48 112h120q65 2 107 45q43 42 45 107q-2 65 -45 107q-42 43 -107 45h-112q-24 -1 -40 -16q-15 -16 -16 -40v-224v-144q2 -22 24 -24q22 2 24 24v120v0z" />
    <glyph glyph-name="p" unicode="P" horiz-adv-x="320" 
d="M56 368h112q44 -1 74 -30q29 -30 30 -74q-1 -44 -30 -74q-30 -29 -74 -30h-120v200q1 7 8 8v0zM48 112h120q65 2 107 45q43 42 45 107q-2 65 -45 107q-42 43 -107 45h-112q-24 -1 -40 -16q-15 -16 -16 -40v-224v-144q2 -22 24 -24q22 2 24 24v120v0z" />
    <glyph glyph-name="q" unicode="q" horiz-adv-x="448" 
d="M48 192q2 -75 52 -124v0q49 -50 124 -52q54 1 97 29l-91 107q-13 19 3 34q18 13 33 -3l91 -107q42 48 43 116q-2 75 -52 124q-49 50 -124 52q-75 -2 -124 -52q-50 -49 -52 -124v0zM352 8q-56 -39 -128 -40q-63 1 -113 31q-51 29 -80 80q-30 50 -31 113q1 63 31 113
q29 51 80 80q50 30 113 31q63 -1 113 -31q51 -29 80 -80q30 -50 31 -113q-2 -90 -60 -152l54 -65q13 -18 -2 -33q-19 -13 -34 2l-54 64v0z" />
    <glyph glyph-name="q" unicode="Q" horiz-adv-x="448" 
d="M48 192q2 -75 52 -124v0q49 -50 124 -52q54 1 97 29l-91 107q-13 19 3 34q18 13 33 -3l91 -107q42 48 43 116q-2 75 -52 124q-49 50 -124 52q-75 -2 -124 -52q-50 -49 -52 -124v0zM352 8q-56 -39 -128 -40q-63 1 -113 31q-51 29 -80 80q-30 50 -31 113q1 63 31 113
q29 51 80 80q50 30 113 31q63 -1 113 -31q51 -29 80 -80q30 -50 31 -113q-2 -90 -60 -152l54 -65q13 -18 -2 -33q-19 -13 -34 2l-54 64v0z" />
    <glyph glyph-name="r" unicode="r" horiz-adv-x="320" 
d="M56 416q-24 -1 -40 -16v0q-15 -16 -16 -40v-192v-176q2 -22 24 -24q22 2 24 24v152h110l119 -166q14 -17 33 -6q17 15 6 34l-101 141q46 12 75 48t30 85q-1 58 -40 96q-38 39 -96 40h-128v0zM176 192h-128v168q1 7 8 8h128q37 -1 62 -26t26 -62q-1 -37 -26 -62t-62 -26
h-8v0z" />
    <glyph glyph-name="r" unicode="R" horiz-adv-x="320" 
d="M56 416q-24 -1 -40 -16v0q-15 -16 -16 -40v-192v-176q2 -22 24 -24q22 2 24 24v152h110l119 -166q14 -17 33 -6q17 15 6 34l-101 141q46 12 75 48t30 85q-1 58 -40 96q-38 39 -96 40h-128v0zM176 192h-128v168q1 7 8 8h128q37 -1 62 -26t26 -62q-1 -37 -26 -62t-62 -26
h-8v0z" />
    <glyph glyph-name="s" unicode="s" horiz-adv-x="320" 
d="M91 357q-36 -15 -42 -48q-3 -23 3 -35q6 -13 21 -24q35 -21 94 -35q1 0 2 -1v0q27 -7 55 -16q27 -10 50 -25q24 -15 38 -43q12 -28 6 -64q-14 -61 -71 -84q-54 -21 -125 -10v0q-20 3 -45 11t-46 15h-1q-8 3 -13 4q-21 9 -16 31q9 20 31 15q3 -1 7 -2q4 -2 9 -3
q21 -7 43 -14t38 -10q62 -9 100 8q36 15 42 48q3 23 -3 35q-6 13 -21 24q-35 21 -93 35q-2 0 -3 1v0q-27 7 -55 17q-27 9 -50 24q-24 15 -37 43t-7 64l24 -4l-24 4q14 61 71 84q54 21 125 10q12 -2 35 -6q22 -4 35 -8q21 -7 17 -29q-7 -20 -29 -17q-11 3 -32 7l-33 6l4 24
l-4 -24q-62 9 -100 -8v0z" />
    <glyph glyph-name="s" unicode="S" horiz-adv-x="320" 
d="M91 357q-36 -15 -42 -48q-3 -23 3 -35q6 -13 21 -24q35 -21 94 -35q1 0 2 -1v0q27 -7 55 -16q27 -10 50 -25q24 -15 38 -43q12 -28 6 -64q-14 -61 -71 -84q-54 -21 -125 -10v0q-20 3 -45 11t-46 15h-1q-8 3 -13 4q-21 9 -16 31q9 20 31 15q3 -1 7 -2q4 -2 9 -3
q21 -7 43 -14t38 -10q62 -9 100 8q36 15 42 48q3 23 -3 35q-6 13 -21 24q-35 21 -93 35q-2 0 -3 1v0q-27 7 -55 17q-27 9 -50 24q-24 15 -37 43t-7 64l24 -4l-24 4q14 61 71 84q54 21 125 10q12 -2 35 -6q22 -4 35 -8q21 -7 17 -29q-7 -20 -29 -17q-11 3 -32 7l-33 6l4 24
l-4 -24q-62 9 -100 -8v0z" />
    <glyph glyph-name="t" unicode="t" horiz-adv-x="384" 
d="M24 416q-22 -2 -24 -24q2 -22 24 -24h144v-376q2 -22 24 -24q22 2 24 24v376h144q22 2 24 24q-2 22 -24 24h-168h-168v0z" />
    <glyph glyph-name="t" unicode="T" horiz-adv-x="384" 
d="M24 416q-22 -2 -24 -24q2 -22 24 -24h144v-376q2 -22 24 -24q22 2 24 24v376h144q22 2 24 24q-2 22 -24 24h-168h-168v0z" />
    <glyph glyph-name="u" unicode="u" horiz-adv-x="384" 
d="M24 416q22 -2 24 -24v-232q2 -61 42 -102q41 -40 102 -42q61 2 102 42q40 41 42 102v232q2 22 24 24q22 -2 24 -24v-232q-2 -82 -56 -136t-136 -56q-82 2 -136 56t-56 136v232q2 22 24 24v0z" />
    <glyph glyph-name="u" unicode="U" horiz-adv-x="384" 
d="M24 416q22 -2 24 -24v-232q2 -61 42 -102q41 -40 102 -42q61 2 102 42q40 41 42 102v232q2 22 24 24q22 -2 24 -24v-232q-2 -82 -56 -136t-136 -56q-82 2 -136 56t-56 136v232q2 22 24 24v0z" />
    <glyph glyph-name="v" unicode="v" horiz-adv-x="384" 
d="M15 414q21 7 31 -13l146 -347l146 347q10 20 31 13q20 -10 13 -31l-168 -400q-7 -14 -22 -15q-15 1 -22 15l-168 400q-7 21 13 31v0z" />
    <glyph glyph-name="v" unicode="V" horiz-adv-x="384" 
d="M15 414q21 7 31 -13l146 -347l146 347q10 20 31 13q20 -10 13 -31l-168 -400q-7 -14 -22 -15q-15 1 -22 15l-168 400q-7 21 13 31v0z" />
    <glyph glyph-name="w" unicode="w" horiz-adv-x="576" 
d="M16 415q21 5 31 -15l119 -331l99 330q6 16 23 17q17 -1 23 -17l99 -330l119 331q10 20 31 15q20 -10 15 -31l-144 -400q-7 -15 -24 -16q-16 1 -22 17l-97 323l-97 -323q-6 -16 -22 -17q-17 0 -23 16l-145 400q-5 21 15 31v0z" />
    <glyph glyph-name="w" unicode="W" horiz-adv-x="576" 
d="M16 415q21 5 31 -15l119 -331l99 330q6 16 23 17q17 -1 23 -17l99 -330l119 331q10 20 31 15q20 -10 15 -31l-144 -400q-7 -15 -24 -16q-16 1 -22 17l-97 323l-97 -323q-6 -16 -22 -17q-17 0 -23 16l-145 400q-5 21 15 31v0z" />
    <glyph glyph-name="x" unicode="x" horiz-adv-x="384" 
d="M378 377q13 18 -2 33q-19 13 -34 -3l-150 -178l-150 178q-15 16 -33 3q-16 -15 -3 -33l155 -185l-155 -185q-13 -18 3 -33q18 -13 33 2l150 179l150 -178q15 -16 33 -3q16 15 3 33l-155 185l155 185v0z" />
    <glyph glyph-name="x" unicode="X" horiz-adv-x="384" 
d="M378 377q13 18 -2 33q-19 13 -34 -3l-150 -178l-150 178q-15 16 -33 3q-16 -15 -3 -33l155 -185l-155 -185q-13 -18 3 -33q18 -13 33 2l150 179l150 -178q15 -16 33 -3q16 15 3 33l-155 185l155 185v0z" />
    <glyph glyph-name="y" unicode="y" horiz-adv-x="384" 
d="M43 406q-14 17 -33 5q-17 -14 -5 -33l163 -226v-160q2 -22 24 -24q22 2 24 24v160l163 226q12 19 -5 33q-19 12 -33 -5l-149 -205l-149 205v0z" />
    <glyph glyph-name="y" unicode="Y" horiz-adv-x="384" 
d="M43 406q-14 17 -33 5q-17 -14 -5 -33l163 -226v-160q2 -22 24 -24q22 2 24 24v160l163 226q12 19 -5 33q-19 12 -33 -5l-149 -205l-149 205v0z" />
    <glyph glyph-name="z" unicode="z" horiz-adv-x="384" 
d="M0 392q2 22 24 24h336q15 -1 22 -14q6 -14 -4 -26l-302 -360h284q22 -2 24 -24q-2 -22 -24 -24h-336q-15 1 -22 14q-6 14 4 25l303 361h-285q-22 2 -24 24v0z" />
    <glyph glyph-name="z" unicode="Z" horiz-adv-x="384" 
d="M0 392q2 22 24 24h336q15 -1 22 -14q6 -14 -4 -26l-302 -360h284q22 -2 24 -24q-2 -22 -24 -24h-336q-15 1 -22 14q-6 14 4 25l303 361h-285q-22 2 -24 24v0z" />
    <glyph glyph-name="uniE185" unicode="&#xe185;" 
d="M252 320v0q16 -16 39 -16h157q15 -1 16 -16v-32h-416v96q1 15 16 16h134q6 0 11 -5l34 34l-34 -34l43 -43v0zM48 208h416v-176q-1 -15 -16 -16h-384q-15 1 -16 16v176v0zM286 354l-43 43q-19 19 -46 19h-133q-27 -1 -45 -19t-19 -45v-320q1 -27 19 -45t45 -19h384
q27 1 45 19t19 45v256q-1 27 -19 45t-45 19h-157q-3 0 -5 2v0z" />
    <glyph glyph-name="uniE1FE" unicode="&#xe1fe;" horiz-adv-x="384" 
d="M48 26l115 166l-115 166v-332v0zM77 -16h230l-115 166l-115 -166v0zM221 192l115 -166v332l-115 -166v0zM307 400h-230l115 -166l115 166v0zM0 400q1 20 14 34v0q14 13 34 14h288q20 -1 34 -14q13 -14 14 -34v-416q-1 -20 -14 -34q-14 -13 -34 -14h-288q-20 1 -34 14
q-13 14 -14 34v416v0z" />
    <glyph glyph-name="u1F9E1" unicode="&#x1f9e1;" 
d="M226 -20l-3 2l-175 163q-47 45 -48 110v3q1 54 34 94q32 39 85 50q62 11 112 -24q14 -9 25 -22q6 7 14 13q5 5 11 9v0v0q50 35 112 25q53 -11 85 -51q33 -40 34 -94v-3q-1 -65 -48 -110l-175 -163l-3 -2q-13 -12 -30 -12t-30 12v0zM239 303l-1 1v0v0l-18 20v0v0
q-18 20 -42 28t-50 3q-35 -7 -57 -34q-22 -26 -23 -63v-3q1 -44 33 -75l175 -163l175 163q32 31 33 75v3q-1 37 -23 63q-22 27 -57 34q-26 5 -50 -3t-42 -28v0v0l-18 -20l-1 -1v0q-7 -7 -17 -7t-17 7v0z" />
    <glyph glyph-name="u1F9E1" unicode="&#x1f90e;" 
d="M226 -20l-3 2l-175 163q-47 45 -48 110v3q1 54 34 94q32 39 85 50q62 11 112 -24q14 -9 25 -22q6 7 14 13q5 5 11 9v0v0q50 35 112 25q53 -11 85 -51q33 -40 34 -94v-3q-1 -65 -48 -110l-175 -163l-3 -2q-13 -12 -30 -12t-30 12v0zM239 303l-1 1v0v0l-18 20v0v0
q-18 20 -42 28t-50 3q-35 -7 -57 -34q-22 -26 -23 -63v-3q1 -44 33 -75l175 -163l175 163q32 31 33 75v3q-1 37 -23 63q-22 27 -57 34q-26 5 -50 -3t-42 -28v0v0l-18 -20l-1 -1v0q-7 -7 -17 -7t-17 7v0z" />
    <glyph glyph-name="u1F9E1" unicode="&#x1f90d;" 
d="M226 -20l-3 2l-175 163q-47 45 -48 110v3q1 54 34 94q32 39 85 50q62 11 112 -24q14 -9 25 -22q6 7 14 13q5 5 11 9v0v0q50 35 112 25q53 -11 85 -51q33 -40 34 -94v-3q-1 -65 -48 -110l-175 -163l-3 -2q-13 -12 -30 -12t-30 12v0zM239 303l-1 1v0v0l-18 20v0v0
q-18 20 -42 28t-50 3q-35 -7 -57 -34q-22 -26 -23 -63v-3q1 -44 33 -75l175 -163l175 163q32 31 33 75v3q-1 37 -23 63q-22 27 -57 34q-26 5 -50 -3t-42 -28v0v0l-18 -20l-1 -1v0q-7 -7 -17 -7t-17 7v0z" />
    <glyph glyph-name="u1F9E1" unicode="&#x1f5a4;" 
d="M226 -20l-3 2l-175 163q-47 45 -48 110v3q1 54 34 94q32 39 85 50q62 11 112 -24q14 -9 25 -22q6 7 14 13q5 5 11 9v0v0q50 35 112 25q53 -11 85 -51q33 -40 34 -94v-3q-1 -65 -48 -110l-175 -163l-3 -2q-13 -12 -30 -12t-30 12v0zM239 303l-1 1v0v0l-18 20v0v0
q-18 20 -42 28t-50 3q-35 -7 -57 -34q-22 -26 -23 -63v-3q1 -44 33 -75l175 -163l175 163q32 31 33 75v3q-1 37 -23 63q-22 27 -57 34q-26 5 -50 -3t-42 -28v0v0l-18 -20l-1 -1v0q-7 -7 -17 -7t-17 7v0z" />
    <glyph glyph-name="u1F9E1" unicode="&#x1f49c;" 
d="M226 -20l-3 2l-175 163q-47 45 -48 110v3q1 54 34 94q32 39 85 50q62 11 112 -24q14 -9 25 -22q6 7 14 13q5 5 11 9v0v0q50 35 112 25q53 -11 85 -51q33 -40 34 -94v-3q-1 -65 -48 -110l-175 -163l-3 -2q-13 -12 -30 -12t-30 12v0zM239 303l-1 1v0v0l-18 20v0v0
q-18 20 -42 28t-50 3q-35 -7 -57 -34q-22 -26 -23 -63v-3q1 -44 33 -75l175 -163l175 163q32 31 33 75v3q-1 37 -23 63q-22 27 -57 34q-26 5 -50 -3t-42 -28v0v0l-18 -20l-1 -1v0q-7 -7 -17 -7t-17 7v0z" />
    <glyph glyph-name="u1F9E1" unicode="&#x1f49b;" 
d="M226 -20l-3 2l-175 163q-47 45 -48 110v3q1 54 34 94q32 39 85 50q62 11 112 -24q14 -9 25 -22q6 7 14 13q5 5 11 9v0v0q50 35 112 25q53 -11 85 -51q33 -40 34 -94v-3q-1 -65 -48 -110l-175 -163l-3 -2q-13 -12 -30 -12t-30 12v0zM239 303l-1 1v0v0l-18 20v0v0
q-18 20 -42 28t-50 3q-35 -7 -57 -34q-22 -26 -23 -63v-3q1 -44 33 -75l175 -163l175 163q32 31 33 75v3q-1 37 -23 63q-22 27 -57 34q-26 5 -50 -3t-42 -28v0v0l-18 -20l-1 -1v0q-7 -7 -17 -7t-17 7v0z" />
    <glyph glyph-name="u1F9E1" unicode="&#x1f49a;" 
d="M226 -20l-3 2l-175 163q-47 45 -48 110v3q1 54 34 94q32 39 85 50q62 11 112 -24q14 -9 25 -22q6 7 14 13q5 5 11 9v0v0q50 35 112 25q53 -11 85 -51q33 -40 34 -94v-3q-1 -65 -48 -110l-175 -163l-3 -2q-13 -12 -30 -12t-30 12v0zM239 303l-1 1v0v0l-18 20v0v0
q-18 20 -42 28t-50 3q-35 -7 -57 -34q-22 -26 -23 -63v-3q1 -44 33 -75l175 -163l175 163q32 31 33 75v3q-1 37 -23 63q-22 27 -57 34q-26 5 -50 -3t-42 -28v0v0l-18 -20l-1 -1v0q-7 -7 -17 -7t-17 7v0z" />
    <glyph glyph-name="u1F9E1" unicode="&#x1f499;" 
d="M226 -20l-3 2l-175 163q-47 45 -48 110v3q1 54 34 94q32 39 85 50q62 11 112 -24q14 -9 25 -22q6 7 14 13q5 5 11 9v0v0q50 35 112 25q53 -11 85 -51q33 -40 34 -94v-3q-1 -65 -48 -110l-175 -163l-3 -2q-13 -12 -30 -12t-30 12v0zM239 303l-1 1v0v0l-18 20v0v0
q-18 20 -42 28t-50 3q-35 -7 -57 -34q-22 -26 -23 -63v-3q1 -44 33 -75l175 -163l175 163q32 31 33 75v3q-1 37 -23 63q-22 27 -57 34q-26 5 -50 -3t-42 -28v0v0l-18 -20l-1 -1v0q-7 -7 -17 -7t-17 7v0z" />
    <glyph glyph-name="u1F9E1" unicode="&#xf08a;" 
d="M226 -20l-3 2l-175 163q-47 45 -48 110v3q1 54 34 94q32 39 85 50q62 11 112 -24q14 -9 25 -22q6 7 14 13q5 5 11 9v0v0q50 35 112 25q53 -11 85 -51q33 -40 34 -94v-3q-1 -65 -48 -110l-175 -163l-3 -2q-13 -12 -30 -12t-30 12v0zM239 303l-1 1v0v0l-18 20v0v0
q-18 20 -42 28t-50 3q-35 -7 -57 -34q-22 -26 -23 -63v-3q1 -44 33 -75l175 -163l175 163q32 31 33 75v3q-1 37 -23 63q-22 27 -57 34q-26 5 -50 -3t-42 -28v0v0l-18 -20l-1 -1v0q-7 -7 -17 -7t-17 7v0z" />
    <glyph glyph-name="u1F9E1" unicode="&#xf004;" 
d="M226 -20l-3 2l-175 163q-47 45 -48 110v3q1 54 34 94q32 39 85 50q62 11 112 -24q14 -9 25 -22q6 7 14 13q5 5 11 9v0v0q50 35 112 25q53 -11 85 -51q33 -40 34 -94v-3q-1 -65 -48 -110l-175 -163l-3 -2q-13 -12 -30 -12t-30 12v0zM239 303l-1 1v0v0l-18 20v0v0
q-18 20 -42 28t-50 3q-35 -7 -57 -34q-22 -26 -23 -63v-3q1 -44 33 -75l175 -163l175 163q32 31 33 75v3q-1 37 -23 63q-22 27 -57 34q-26 5 -50 -3t-42 -28v0v0l-18 -20l-1 -1v0q-7 -7 -17 -7t-17 7v0z" />
    <glyph glyph-name="u1F9E1" unicode="&#x2764;" 
d="M226 -20l-3 2l-175 163q-47 45 -48 110v3q1 54 34 94q32 39 85 50q62 11 112 -24q14 -9 25 -22q6 7 14 13q5 5 11 9v0v0q50 35 112 25q53 -11 85 -51q33 -40 34 -94v-3q-1 -65 -48 -110l-175 -163l-3 -2q-13 -12 -30 -12t-30 12v0zM239 303l-1 1v0v0l-18 20v0v0
q-18 20 -42 28t-50 3q-35 -7 -57 -34q-22 -26 -23 -63v-3q1 -44 33 -75l175 -163l175 163q32 31 33 75v3q-1 37 -23 63q-22 27 -57 34q-26 5 -50 -3t-42 -28v0v0l-18 -20l-1 -1v0q-7 -7 -17 -7t-17 7v0z" />
    <glyph glyph-name="u1F9E1" unicode="&#x2665;" 
d="M226 -20l-3 2l-175 163q-47 45 -48 110v3q1 54 34 94q32 39 85 50q62 11 112 -24q14 -9 25 -22q6 7 14 13q5 5 11 9v0v0q50 35 112 25q53 -11 85 -51q33 -40 34 -94v-3q-1 -65 -48 -110l-175 -163l-3 -2q-13 -12 -30 -12t-30 12v0zM239 303l-1 1v0v0l-18 20v0v0
q-18 20 -42 28t-50 3q-35 -7 -57 -34q-22 -26 -23 -63v-3q1 -44 33 -75l175 -163l175 163q32 31 33 75v3q-1 37 -23 63q-22 27 -57 34q-26 5 -50 -3t-42 -28v0v0l-18 -20l-1 -1v0q-7 -7 -17 -7t-17 7v0z" />
    <glyph glyph-name="uniF006" unicode="&#xf006;" horiz-adv-x="576" 
d="M288 448q15 -1 22 -14l68 -141l153 -22q15 -3 20 -17q4 -14 -6 -24l-111 -110l26 -156q2 -14 -10 -24q-12 -8 -25 -1l-137 73l-137 -73q-13 -7 -25 2t-10 23l26 156l-111 110q-10 10 -6 24q5 14 20 17l153 22l68 141q7 13 22 14v0zM288 369l-53 -108q-5 -11 -18 -14
l-118 -17l86 -85q8 -9 7 -21l-21 -120l106 56q11 6 22 0l105 -56l-20 120q-2 12 7 21l86 85l-118 17q-13 3 -18 14l-53 108v0z" />
    <glyph glyph-name="uniF006" unicode="&#xf005;" horiz-adv-x="576" 
d="M288 448q15 -1 22 -14l68 -141l153 -22q15 -3 20 -17q4 -14 -6 -24l-111 -110l26 -156q2 -14 -10 -24q-12 -8 -25 -1l-137 73l-137 -73q-13 -7 -25 2t-10 23l26 156l-111 110q-10 10 -6 24q5 14 20 17l153 22l68 141q7 13 22 14v0zM288 369l-53 -108q-5 -11 -18 -14
l-118 -17l86 -85q8 -9 7 -21l-21 -120l106 56q11 6 22 0l105 -56l-20 120q-2 12 7 21l86 85l-118 17q-13 3 -18 14l-53 108v0z" />
    <glyph glyph-name="uniF006" unicode="&#x2b50;" horiz-adv-x="576" 
d="M288 448q15 -1 22 -14l68 -141l153 -22q15 -3 20 -17q4 -14 -6 -24l-111 -110l26 -156q2 -14 -10 -24q-12 -8 -25 -1l-137 73l-137 -73q-13 -7 -25 2t-10 23l26 156l-111 110q-10 10 -6 24q5 14 20 17l153 22l68 141q7 13 22 14v0zM288 369l-53 -108q-5 -11 -18 -14
l-118 -17l86 -85q8 -9 7 -21l-21 -120l106 56q11 6 22 0l105 -56l-20 120q-2 12 7 21l86 85l-118 17q-13 3 -18 14l-53 108v0z" />
    <glyph glyph-name="u1F464" unicode="&#x1f464;" horiz-adv-x="448" 
d="M304 320q-1 45 -40 69q-40 22 -80 0q-39 -24 -40 -69q1 -45 40 -69q40 -22 80 0q39 24 40 69v0zM96 320q0 35 17 64v0q17 29 47 47q30 17 64 17t64 -17q30 -18 47 -47t17 -64t-17 -64t-47 -47q-30 -17 -64 -17t-64 17q-30 18 -47 47t-17 64v0zM49 -16h350q-8 49 -43 80
q-36 31 -86 32h-92q-50 -1 -85 -32q-36 -31 -44 -80v0zM0 -34q2 75 52 126v0q51 50 126 52h92q75 -2 126 -52q50 -51 52 -126q0 -13 -9 -21q-8 -9 -21 -9h-388q-13 0 -21 9q-9 8 -9 21v0z" />
    <glyph glyph-name="u1F464" unicode="&#xf2c0;" horiz-adv-x="448" 
d="M304 320q-1 45 -40 69q-40 22 -80 0q-39 -24 -40 -69q1 -45 40 -69q40 -22 80 0q39 24 40 69v0zM96 320q0 35 17 64v0q17 29 47 47q30 17 64 17t64 -17q30 -18 47 -47t17 -64t-17 -64t-47 -47q-30 -17 -64 -17t-64 17q-30 18 -47 47t-17 64v0zM49 -16h350q-8 49 -43 80
q-36 31 -86 32h-92q-50 -1 -85 -32q-36 -31 -44 -80v0zM0 -34q2 75 52 126v0q51 50 126 52h92q75 -2 126 -52q50 -51 52 -126q0 -13 -9 -21q-8 -9 -21 -9h-388q-13 0 -21 9q-9 8 -9 21v0z" />
    <glyph glyph-name="u1F464" unicode="&#xf007;" horiz-adv-x="448" 
d="M304 320q-1 45 -40 69q-40 22 -80 0q-39 -24 -40 -69q1 -45 40 -69q40 -22 80 0q39 24 40 69v0zM96 320q0 35 17 64v0q17 29 47 47q30 17 64 17t64 -17q30 -18 47 -47t17 -64t-17 -64t-47 -47q-30 -17 -64 -17t-64 17q-30 18 -47 47t-17 64v0zM49 -16h350q-8 49 -43 80
q-36 31 -86 32h-92q-50 -1 -85 -32q-36 -31 -44 -80v0zM0 -34q2 75 52 126v0q51 50 126 52h92q75 -2 126 -52q50 -51 52 -126q0 -13 -9 -21q-8 -9 -21 -9h-388q-13 0 -21 9q-9 8 -9 21v0z" />
    <glyph glyph-name="u1F553" unicode="&#x1f553;" 
d="M464 192q0 -57 -28 -104v0q-27 -47 -76 -76q-49 -28 -104 -28t-104 28q-49 29 -76 76q-28 47 -28 104t28 104q27 47 76 76q49 28 104 28t104 -28q49 -29 76 -76q28 -47 28 -104v0zM0 192q1 -70 34 -128v0q34 -58 94 -94q61 -34 128 -34t128 34q60 36 94 94q33 58 34 128
q-1 70 -34 128q-34 58 -94 94q-61 34 -128 34t-128 -34q-60 -36 -94 -94q-33 -58 -34 -128v0zM232 328v-136q0 -13 11 -20l96 -64q19 -11 33 7q11 19 -7 33l-85 57v123q-2 22 -24 24q-22 -2 -24 -24v0z" />
    <glyph glyph-name="u1F553" unicode="&#xf017;" 
d="M464 192q0 -57 -28 -104v0q-27 -47 -76 -76q-49 -28 -104 -28t-104 28q-49 29 -76 76q-28 47 -28 104t28 104q27 47 76 76q49 28 104 28t104 -28q49 -29 76 -76q28 -47 28 -104v0zM0 192q1 -70 34 -128v0q34 -58 94 -94q61 -34 128 -34t128 34q60 36 94 94q33 58 34 128
q-1 70 -34 128q-34 58 -94 94q-61 34 -128 34t-128 -34q-60 -36 -94 -94q-33 -58 -34 -128v0zM232 328v-136q0 -13 11 -20l96 -64q19 -11 33 7q11 19 -7 33l-85 57v123q-2 22 -24 24q-22 -2 -24 -24v0z" />
    <glyph glyph-name="uniF022" unicode="&#xf022;" horiz-adv-x="576" 
d="M64 368q-15 -1 -16 -16v-320q1 -15 16 -16h448q15 1 16 16v320q-1 15 -16 16h-448v0zM0 352q1 27 19 45v0q18 18 45 19h448q27 -1 45 -19t19 -45v-320q-1 -27 -19 -45t-45 -19h-448q-27 1 -45 19t-19 45v320v0zM96 288q0 14 9 23v0q9 9 23 9t23 -9t9 -23t-9 -23t-23 -9
t-23 9t-9 23v0zM200 288q2 22 24 24h224q22 -2 24 -24q-2 -22 -24 -24h-224q-22 2 -24 24v0zM200 192q2 22 24 24h224q22 -2 24 -24q-2 -22 -24 -24h-224q-22 2 -24 24v0zM200 96q2 22 24 24h224q22 -2 24 -24q-2 -22 -24 -24h-224q-22 2 -24 24v0zM128 160q-14 0 -23 9v0
q-9 9 -9 23t9 23t23 9t23 -9t9 -23t-9 -23t-23 -9v0zM96 96q0 14 9 23v0q9 9 23 9t23 -9t9 -23t-9 -23t-23 -9t-23 9t-9 23v0z" />
    <glyph glyph-name="u1F3F4" unicode="&#x1f3f4;" horiz-adv-x="448" 
d="M48 424q-2 22 -24 24q-22 -2 -24 -24v-40v-287v-49v-88q2 -22 24 -24q22 2 24 24v100l80 20q64 15 123 -13q69 -34 142 -8l34 13q20 9 21 30v280q-1 18 -15 26q-13 9 -30 2l-9 -5q-36 -18 -74 -18t-73 18q-55 26 -114 12l-85 -21v28v0zM48 346l97 25q41 10 80 -9
q42 -21 87 -22q45 -2 88 15v-242l-24 -9q-53 -19 -104 6q-75 36 -155 17l-69 -18v237v0z" />
    <glyph glyph-name="u1F3F4" unicode="&#xf11d;" horiz-adv-x="448" 
d="M48 424q-2 22 -24 24q-22 -2 -24 -24v-40v-287v-49v-88q2 -22 24 -24q22 2 24 24v100l80 20q64 15 123 -13q69 -34 142 -8l34 13q20 9 21 30v280q-1 18 -15 26q-13 9 -30 2l-9 -5q-36 -18 -74 -18t-73 18q-55 26 -114 12l-85 -21v28v0zM48 346l97 25q41 10 80 -9
q42 -21 87 -22q45 -2 88 15v-242l-24 -9q-53 -19 -104 6q-75 36 -155 17l-69 -18v237v0z" />
    <glyph glyph-name="u1F3F4" unicode="&#xf024;" horiz-adv-x="448" 
d="M48 424q-2 22 -24 24q-22 -2 -24 -24v-40v-287v-49v-88q2 -22 24 -24q22 2 24 24v100l80 20q64 15 123 -13q69 -34 142 -8l34 13q20 9 21 30v280q-1 18 -15 26q-13 9 -30 2l-9 -5q-36 -18 -74 -18t-73 18q-55 26 -114 12l-85 -21v28v0zM48 346l97 25q41 10 80 -9
q42 -21 87 -22q45 -2 88 15v-242l-24 -9q-53 -19 -104 6q-75 36 -155 17l-69 -18v237v0z" />
    <glyph glyph-name="u1F516" unicode="&#x1f516;" horiz-adv-x="384" 
d="M0 400q1 20 14 34v0q14 13 34 14v-48v-393l130 92q14 9 28 0l130 -92v393h-288v48h288q20 -1 34 -14q13 -14 14 -34v-440q0 -14 -13 -21q-13 -6 -25 1l-154 110l-154 -110q-12 -7 -25 -1q-12 7 -13 21v440v0z" />
    <glyph glyph-name="u1F516" unicode="&#xf097;" horiz-adv-x="384" 
d="M0 400q1 20 14 34v0q14 13 34 14v-48v-393l130 92q14 9 28 0l130 -92v393h-288v48h288q20 -1 34 -14q13 -14 14 -34v-440q0 -14 -13 -21q-13 -6 -25 1l-154 110l-154 -110q-12 -7 -25 -1q-12 7 -13 21v440v0z" />
    <glyph glyph-name="u1F516" unicode="&#xf02e;" horiz-adv-x="384" 
d="M0 400q1 20 14 34v0q14 13 34 14v-48v-393l130 92q14 9 28 0l130 -92v393h-288v48h288q20 -1 34 -14q13 -14 14 -34v-440q0 -14 -13 -21q-13 -6 -25 1l-154 110l-154 -110q-12 -7 -25 -1q-12 7 -13 21v440v0z" />
    <glyph glyph-name="uniF03E" unicode="&#xf03e;" 
d="M448 368q15 -1 16 -16v-320l-5 7l-136 176q-7 9 -19 9t-19 -9l-83 -108l-30 43q-8 10 -20 10t-19 -10l-80 -112l-5 -6v0v320q1 15 16 16h384v0zM64 416q-27 -1 -45 -19v0q-18 -18 -19 -45v-320q1 -27 19 -45t45 -19h384q27 1 45 19t19 45v320q-1 27 -19 45t-45 19h-384v0
zM144 224q27 1 42 24q12 24 0 48q-15 23 -42 24q-27 -1 -42 -24q-12 -24 0 -48q15 -23 42 -24v0z" />
    <glyph glyph-name="uniF044" unicode="&#xf044;" 
d="M441 389l12 -12q14 -17 0 -34l-29 -29l-46 46l29 29q17 14 34 0v0zM210 192l134 134l46 -46l-134 -134q-5 -5 -11 -6l-58 -17l17 58q1 6 6 11v0zM373 423l-197 -197q-13 -14 -18 -31l-29 -100q-4 -14 6 -24q10 -9 24 -6l100 29q18 5 31 18l197 197q21 22 21 51t-21 51
l-12 12q-22 21 -51 21t-51 -21v0zM88 384q-37 -1 -62 -26v0q-25 -25 -26 -62v-272q1 -37 26 -62t62 -26h272q37 1 62 26t26 62v112q-2 22 -24 24q-22 -2 -24 -24v-112q0 -17 -12 -28q-11 -12 -28 -12h-272q-17 0 -28 12q-12 11 -12 28v272q0 17 12 28q11 12 28 12h112
q22 2 24 24q-2 22 -24 24h-112v0z" />
    <glyph glyph-name="uniF05C" unicode="&#xf05c;" 
d="M256 400q57 0 104 -28v0q47 -27 76 -76q28 -49 28 -104t-28 -104q-29 -49 -76 -76q-47 -28 -104 -28t-104 28q-47 27 -76 76q-28 49 -28 104t28 104q29 49 76 76q47 28 104 28v0zM256 -64q70 1 128 34v0q58 34 94 94q34 61 34 128t-34 128q-36 60 -94 94q-58 33 -128 34
q-70 -1 -128 -34q-58 -34 -94 -94q-34 -61 -34 -128t34 -128q36 -60 94 -94q58 -33 128 -34v0zM175 273q-14 -17 0 -34l47 -47l-47 -47q-14 -17 0 -34q17 -14 34 0l47 47l47 -47q17 -14 34 0q14 17 0 34l-47 47l47 47q14 17 0 34q-17 14 -34 0l-47 -47l-47 47q-17 14 -34 0
v0z" />
    <glyph glyph-name="uniF05C" unicode="&#xf057;" 
d="M256 400q57 0 104 -28v0q47 -27 76 -76q28 -49 28 -104t-28 -104q-29 -49 -76 -76q-47 -28 -104 -28t-104 28q-47 27 -76 76q-28 49 -28 104t28 104q29 49 76 76q47 28 104 28v0zM256 -64q70 1 128 34v0q58 34 94 94q34 61 34 128t-34 128q-36 60 -94 94q-58 33 -128 34
q-70 -1 -128 -34q-58 -34 -94 -94q-34 -61 -34 -128t34 -128q36 -60 94 -94q58 -33 128 -34v0zM175 273q-14 -17 0 -34l47 -47l-47 -47q-14 -17 0 -34q17 -14 34 0l47 47l47 -47q17 -14 34 0q14 17 0 34l-47 47l47 47q14 17 0 34q-17 14 -34 0l-47 -47l-47 47q-17 14 -34 0
v0z" />
    <glyph glyph-name="uniF05D" unicode="&#xf05d;" 
d="M256 400q57 0 104 -28v0q47 -27 76 -76q28 -49 28 -104t-28 -104q-29 -49 -76 -76q-47 -28 -104 -28t-104 28q-47 27 -76 76q-28 49 -28 104t28 104q29 49 76 76q47 28 104 28v0zM256 -64q70 1 128 34v0q58 34 94 94q34 61 34 128t-34 128q-36 60 -94 94q-58 33 -128 34
q-70 -1 -128 -34q-58 -34 -94 -94q-34 -61 -34 -128t34 -128q36 -60 94 -94q58 -33 128 -34v0zM369 239q14 17 0 34q-17 14 -34 0l-111 -111l-47 47q-17 14 -34 0q-14 -17 0 -34l64 -64q17 -14 34 0l128 128v0z" />
    <glyph glyph-name="uniF05D" unicode="&#xf058;" 
d="M256 400q57 0 104 -28v0q47 -27 76 -76q28 -49 28 -104t-28 -104q-29 -49 -76 -76q-47 -28 -104 -28t-104 28q-47 27 -76 76q-28 49 -28 104t28 104q29 49 76 76q47 28 104 28v0zM256 -64q70 1 128 34v0q58 34 94 94q34 61 34 128t-34 128q-36 60 -94 94q-58 33 -128 34
q-70 -1 -128 -34q-58 -34 -94 -94q-34 -61 -34 -128t34 -128q36 -60 94 -94q58 -33 128 -34v0zM369 239q14 17 0 34q-17 14 -34 0l-111 -111l-47 47q-17 14 -34 0q-14 -17 0 -34l64 -64q17 -14 34 0l128 128v0z" />
    <glyph glyph-name="uniF29C" unicode="&#xf29c;" 
d="M464 192q0 57 -28 104v0q-27 47 -76 76q-49 28 -104 28t-104 -28q-49 -29 -76 -76q-28 -47 -28 -104t28 -104q27 -47 76 -76q49 -28 104 -28t104 28q49 29 76 76q28 47 28 104v0zM0 192q1 70 34 128v0q34 58 94 94q61 34 128 34t128 -34q60 -36 94 -94q33 -58 34 -128
q-1 -70 -34 -128q-34 -58 -94 -94q-61 -34 -128 -34t-128 34q-60 36 -94 94q-33 58 -34 128v0zM170 283q6 17 20 27v0q14 10 33 10h58q27 -1 45 -19q17 -17 18 -44q-1 -36 -32 -55l-32 -18q-2 -22 -24 -24q-22 2 -24 24v13q0 14 12 21l44 26q8 4 8 13q-1 14 -15 15h-58
q-6 0 -8 -5v-2q-10 -20 -31 -14q-20 9 -14 30v2v0zM224 96q0 14 9 23v0q9 9 23 9t23 -9t9 -23t-9 -23t-23 -9t-23 9t-9 23v0z" />
    <glyph glyph-name="uniF29C" unicode="&#xf059;" 
d="M464 192q0 57 -28 104v0q-27 47 -76 76q-49 28 -104 28t-104 -28q-49 -29 -76 -76q-28 -47 -28 -104t28 -104q27 -47 76 -76q49 -28 104 -28t104 28q49 29 76 76q28 47 28 104v0zM0 192q1 70 34 128v0q34 58 94 94q61 34 128 34t128 -34q60 -36 94 -94q33 -58 34 -128
q-1 -70 -34 -128q-34 -58 -94 -94q-61 -34 -128 -34t-128 34q-60 36 -94 94q-33 58 -34 128v0zM170 283q6 17 20 27v0q14 10 33 10h58q27 -1 45 -19q17 -17 18 -44q-1 -36 -32 -55l-32 -18q-2 -22 -24 -24q-22 2 -24 24v13q0 14 12 21l44 26q8 4 8 13q-1 14 -15 15h-58
q-6 0 -8 -5v-2q-10 -20 -31 -14q-20 9 -14 30v2v0zM224 96q0 14 9 23v0q9 9 23 9t23 -9t9 -23t-9 -23t-23 -9t-23 9t-9 23v0z" />
    <glyph glyph-name="u1F441" unicode="&#x1f441;" horiz-adv-x="576" 
d="M288 368q-49 -1 -89 -20v0q-40 -18 -71 -48q-29 -27 -49 -56q-19 -29 -30 -52q11 -23 30 -52q20 -29 49 -56q31 -30 71 -48q40 -19 89 -20q49 1 89 20q40 18 71 48q29 27 49 56q19 29 30 52q-11 23 -30 52q-20 29 -49 56q-31 30 -71 48q-40 19 -89 20v0zM95 335
q36 34 84 57v0q48 23 109 24q61 -1 109 -24t84 -57q35 -33 58 -68t35 -63q5 -12 0 -24q-12 -28 -35 -63t-58 -68q-36 -34 -84 -57t-109 -24q-61 1 -109 24t-84 57q-35 33 -58 68t-34 63q-5 12 0 24q11 28 34 63t58 68v0zM288 112q34 1 57 23v0q22 23 23 57q-1 34 -23 57
q-23 22 -57 23h-1h-1q2 -8 2 -16q-1 -27 -19 -45t-45 -19q-8 0 -16 2v-1v-1q1 -34 23 -57q23 -22 57 -23v0zM288 320q35 0 64 -17v0q29 -17 47 -47q17 -30 17 -64t-17 -64q-18 -30 -47 -47t-64 -17t-64 17t-47 47q-17 30 -17 64t17 64q18 30 47 47t64 17v0z" />
    <glyph glyph-name="u1F441" unicode="&#xf06e;" horiz-adv-x="576" 
d="M288 368q-49 -1 -89 -20v0q-40 -18 -71 -48q-29 -27 -49 -56q-19 -29 -30 -52q11 -23 30 -52q20 -29 49 -56q31 -30 71 -48q40 -19 89 -20q49 1 89 20q40 18 71 48q29 27 49 56q19 29 30 52q-11 23 -30 52q-20 29 -49 56q-31 30 -71 48q-40 19 -89 20v0zM95 335
q36 34 84 57v0q48 23 109 24q61 -1 109 -24t84 -57q35 -33 58 -68t35 -63q5 -12 0 -24q-12 -28 -35 -63t-58 -68q-36 -34 -84 -57t-109 -24q-61 1 -109 24t-84 57q-35 33 -58 68t-34 63q-5 12 0 24q11 28 34 63t58 68v0zM288 112q34 1 57 23v0q22 23 23 57q-1 34 -23 57
q-23 22 -57 23h-1h-1q2 -8 2 -16q-1 -27 -19 -45t-45 -19q-8 0 -16 2v-1v-1q1 -34 23 -57q23 -22 57 -23v0zM288 320q35 0 64 -17v0q29 -17 47 -47q17 -30 17 -64t-17 -64q-18 -30 -47 -47t-64 -17t-64 17t-47 47q-17 30 -17 64t17 64q18 30 47 47t64 17v0z" />
    <glyph glyph-name="uniF070" unicode="&#xf070;" horiz-adv-x="640" 
d="M39 443q-19 12 -34 -4q-12 -19 4 -34l592 -464q19 -12 34 4q12 19 -4 34l-105 82q29 31 49 63q20 31 31 56q4 12 0 24q-12 28 -35 63t-58 68q-36 34 -84 57t-109 24q-51 -1 -94 -17q-42 -17 -75 -44l-112 88v0zM190 325q54 41 130 43q49 -1 89 -20q40 -18 71 -48
q29 -27 49 -56q19 -29 30 -52q-10 -21 -28 -48t-43 -53l-54 42q14 27 14 59q-1 54 -37 91q-37 36 -91 37q-49 -1 -84 -31l-46 36v0zM395 164l-82 64q7 13 7 28q0 8 -2 16h2q34 -1 57 -23q22 -23 23 -57q0 -15 -5 -28v0zM404 33q-38 -16 -84 -17q-49 1 -89 20q-40 18 -71 48
q-29 27 -49 56q-19 29 -30 52q13 29 40 65l-38 29q-34 -46 -48 -82q-5 -12 0 -24q11 -28 34 -63t59 -68q35 -34 83 -57t109 -24q72 2 126 32l-42 33v0zM192 192q1 -54 37 -91v0q37 -36 91 -37q20 0 38 6l-56 44q-37 9 -54 42l-56 44v-8v0z" />
    <glyph glyph-name="uniF073" unicode="&#xf073;" horiz-adv-x="448" 
d="M152 424q-2 22 -24 24q-22 -2 -24 -24v-40h-40q-27 -1 -45 -19t-19 -45v-16v-48v-256q1 -27 19 -45t45 -19h320q27 1 45 19t19 45v256v48v16q-1 27 -19 45t-45 19h-40v40q-2 22 -24 24q-22 -2 -24 -24v-40h-144v40v0zM48 256h80v-56h-80v56v0zM48 152h80v-64h-80v64v0z
M176 152h96v-64h-96v64v0zM320 152h80v-64h-80v64v0zM400 200h-80v56h80v-56v0zM400 40v-40q-1 -15 -16 -16h-64v56h80v0zM272 40v-56h-96v56h96v0zM128 40v-56h-64q-15 1 -16 16v40h80v0zM272 200h-96v56h96v-56v0z" />
    <glyph glyph-name="u1F5E9" unicode="&#x1f5e9;" 
d="M124 57q20 14 44 6q40 -15 88 -15q95 3 151 50q56 48 57 110q-1 62 -57 110q-56 47 -151 50q-95 -3 -151 -50q-56 -48 -57 -110q0 -49 36 -89q13 -15 12 -36q-3 -27 -12 -49q26 13 40 23v0zM21 16q3 4 5 8q17 26 22 63q-47 52 -48 121q1 58 35 105t92 75q57 27 129 28
q72 -1 129 -28q58 -28 92 -75t35 -105q-1 -58 -35 -105t-92 -75q-57 -27 -129 -28q-56 0 -104 18q-19 -14 -54 -31q-23 -10 -51 -16h-1h-1q-6 -2 -13 -2v0h-1q-7 -1 -15 -1q-11 0 -15 10q-3 10 3 17q7 6 12 14q2 3 5 7v0v0v0z" />
    <glyph glyph-name="u1F5E9" unicode="&#xf0e5;" 
d="M124 57q20 14 44 6q40 -15 88 -15q95 3 151 50q56 48 57 110q-1 62 -57 110q-56 47 -151 50q-95 -3 -151 -50q-56 -48 -57 -110q0 -49 36 -89q13 -15 12 -36q-3 -27 -12 -49q26 13 40 23v0zM21 16q3 4 5 8q17 26 22 63q-47 52 -48 121q1 58 35 105t92 75q57 27 129 28
q72 -1 129 -28q58 -28 92 -75t35 -105q-1 -58 -35 -105t-92 -75q-57 -27 -129 -28q-56 0 -104 18q-19 -14 -54 -31q-23 -10 -51 -16h-1h-1q-6 -2 -13 -2v0h-1q-7 -1 -15 -1q-11 0 -15 10q-3 10 3 17q7 6 12 14q2 3 5 7v0v0v0z" />
    <glyph glyph-name="u1F5E9" unicode="&#xf075;" 
d="M124 57q20 14 44 6q40 -15 88 -15q95 3 151 50q56 48 57 110q-1 62 -57 110q-56 47 -151 50q-95 -3 -151 -50q-56 -48 -57 -110q0 -49 36 -89q13 -15 12 -36q-3 -27 -12 -49q26 13 40 23v0zM21 16q3 4 5 8q17 26 22 63q-47 52 -48 121q1 58 35 105t92 75q57 27 129 28
q72 -1 129 -28q58 -28 92 -75t35 -105q-1 -58 -35 -105t-92 -75q-57 -27 -129 -28q-56 0 -104 18q-19 -14 -54 -31q-23 -10 -51 -16h-1h-1q-6 -2 -13 -2v0h-1q-7 -1 -15 -1q-11 0 -15 10q-3 10 3 17q7 6 12 14q2 3 5 7v0v0v0z" />
    <glyph glyph-name="u1F5BF" unicode="&#x1f5bf;" 
d="M0 352q1 27 19 45v0q18 18 45 19h132q30 0 51 -21l43 -43h158q27 -1 45 -19t19 -45v-256q-1 -27 -19 -45t-45 -19h-384q-27 1 -45 19t-19 45v320v0zM64 368q-15 -1 -16 -16v-320q1 -15 16 -16h384q15 1 16 16v256q-1 15 -16 16h-161q-17 0 -29 12l-45 45q-7 7 -17 7h-132
v0z" />
    <glyph glyph-name="u1F5BF" unicode="&#x1f4c1;" 
d="M0 352q1 27 19 45v0q18 18 45 19h132q30 0 51 -21l43 -43h158q27 -1 45 -19t19 -45v-256q-1 -27 -19 -45t-45 -19h-384q-27 1 -45 19t-19 45v320v0zM64 368q-15 -1 -16 -16v-320q1 -15 16 -16h384q15 1 16 16v256q-1 15 -16 16h-161q-17 0 -29 12l-45 45q-7 7 -17 7h-132
v0z" />
    <glyph glyph-name="u1F5BF" unicode="&#xf114;" 
d="M0 352q1 27 19 45v0q18 18 45 19h132q30 0 51 -21l43 -43h158q27 -1 45 -19t19 -45v-256q-1 -27 -19 -45t-45 -19h-384q-27 1 -45 19t-19 45v320v0zM64 368q-15 -1 -16 -16v-320q1 -15 16 -16h384q15 1 16 16v256q-1 15 -16 16h-161q-17 0 -29 12l-45 45q-7 7 -17 7h-132
v0z" />
    <glyph glyph-name="u1F5BF" unicode="&#xf07b;" 
d="M0 352q1 27 19 45v0q18 18 45 19h132q30 0 51 -21l43 -43h158q27 -1 45 -19t19 -45v-256q-1 -27 -19 -45t-45 -19h-384q-27 1 -45 19t-19 45v320v0zM64 368q-15 -1 -16 -16v-320q1 -15 16 -16h384q15 1 16 16v256q-1 15 -16 16h-161q-17 0 -29 12l-45 45q-7 7 -17 7h-132
v0z" />
    <glyph glyph-name="u1F5C1" unicode="&#x1f5c1;" horiz-adv-x="576" 
d="M384 -32h48q18 1 28 16l112 192q8 16 0 32q-10 15 -28 16h-400q-18 -1 -28 -16l-68 -117v261q1 15 16 16h118q6 0 11 -5l26 -26q33 -32 80 -33h117q15 -1 16 -16v-32h48v32q-1 27 -19 45t-45 19h-117q-27 0 -46 19l-26 26q-19 19 -46 19h-117q-27 -1 -45 -19t-19 -45
v-320q1 -27 19 -45t45 -19h24h296v0z" />
    <glyph glyph-name="u1F5C1" unicode="&#x1f4c2;" horiz-adv-x="576" 
d="M384 -32h48q18 1 28 16l112 192q8 16 0 32q-10 15 -28 16h-400q-18 -1 -28 -16l-68 -117v261q1 15 16 16h118q6 0 11 -5l26 -26q33 -32 80 -33h117q15 -1 16 -16v-32h48v32q-1 27 -19 45t-45 19h-117q-27 0 -46 19l-26 26q-19 19 -46 19h-117q-27 -1 -45 -19t-19 -45
v-320q1 -27 19 -45t45 -19h24h296v0z" />
    <glyph glyph-name="u1F5C1" unicode="&#xf115;" horiz-adv-x="576" 
d="M384 -32h48q18 1 28 16l112 192q8 16 0 32q-10 15 -28 16h-400q-18 -1 -28 -16l-68 -117v261q1 15 16 16h118q6 0 11 -5l26 -26q33 -32 80 -33h117q15 -1 16 -16v-32h48v32q-1 27 -19 45t-45 19h-117q-27 0 -46 19l-26 26q-19 19 -46 19h-117q-27 -1 -45 -19t-19 -45
v-320q1 -27 19 -45t45 -19h24h296v0z" />
    <glyph glyph-name="u1F5C1" unicode="&#xf07c;" horiz-adv-x="576" 
d="M384 -32h48q18 1 28 16l112 192q8 16 0 32q-10 15 -28 16h-400q-18 -1 -28 -16l-68 -117v261q1 15 16 16h118q6 0 11 -5l26 -26q33 -32 80 -33h117q15 -1 16 -16v-32h48v32q-1 27 -19 45t-45 19h-117q-27 0 -46 19l-26 26q-19 19 -46 19h-117q-27 -1 -45 -19t-19 -45
v-320q1 -27 19 -45t45 -19h24h296v0z" />
    <glyph glyph-name="uniF080" unicode="&#xf080;" 
d="M24 416q22 -2 24 -24v-352q2 -22 24 -24h416q22 -2 24 -24q-2 -22 -24 -24h-416q-31 1 -51 21t-21 51v352q2 22 24 24v0zM128 312q2 22 24 24h208q22 -2 24 -24q-2 -22 -24 -24h-208q-22 2 -24 24v0zM152 240h144q22 -2 24 -24q-2 -22 -24 -24h-144q-22 2 -24 24
q2 22 24 24v0zM152 144h272q22 -2 24 -24q-2 -22 -24 -24h-272q-22 2 -24 24q2 22 24 24v0z" />
    <glyph glyph-name="u1F5EA" unicode="&#x1f5ea;" horiz-adv-x="640" 
d="M88 139q15 30 -7 56q-33 34 -33 77q1 50 44 88t116 40q73 -2 116 -40t44 -88q-1 -50 -44 -88t-116 -40q-20 0 -38 4q-16 3 -30 -5q-7 -3 -13 -6q-24 -11 -50 -18l8 14q2 3 3 6v0zM0 272q1 -64 46 -110q-2 -3 -3 -5q-15 -29 -36 -53q-11 -11 -5 -25q7 -14 22 -15
q66 3 123 30l14 6q23 -4 47 -4q88 2 147 52q59 49 61 124q-2 75 -61 124q-59 50 -147 52q-88 -2 -147 -52q-59 -49 -61 -124v0zM432 -32q24 0 47 4l14 -6q57 -27 123 -30q15 1 22 14q5 15 -5 26q-21 24 -36 52q-1 2 -2 3q0 1 -1 3q45 46 46 110q-2 73 -58 122
q-55 49 -140 54q6 -23 6 -48v-1q66 -6 105 -43q38 -37 39 -84q0 -43 -33 -77q-22 -26 -7 -56q1 -3 3 -6l6 -10l2 -4q-26 7 -50 18q-6 3 -13 6q-14 8 -30 5q-18 -4 -38 -4q-47 1 -82 18t-55 44q-24 -8 -50 -11q26 -45 76 -72q49 -26 111 -27v0z" />
    <glyph glyph-name="u1F5EA" unicode="&#xf0e6;" horiz-adv-x="640" 
d="M88 139q15 30 -7 56q-33 34 -33 77q1 50 44 88t116 40q73 -2 116 -40t44 -88q-1 -50 -44 -88t-116 -40q-20 0 -38 4q-16 3 -30 -5q-7 -3 -13 -6q-24 -11 -50 -18l8 14q2 3 3 6v0zM0 272q1 -64 46 -110q-2 -3 -3 -5q-15 -29 -36 -53q-11 -11 -5 -25q7 -14 22 -15
q66 3 123 30l14 6q23 -4 47 -4q88 2 147 52q59 49 61 124q-2 75 -61 124q-59 50 -147 52q-88 -2 -147 -52q-59 -49 -61 -124v0zM432 -32q24 0 47 4l14 -6q57 -27 123 -30q15 1 22 14q5 15 -5 26q-21 24 -36 52q-1 2 -2 3q0 1 -1 3q45 46 46 110q-2 73 -58 122
q-55 49 -140 54q6 -23 6 -48v-1q66 -6 105 -43q38 -37 39 -84q0 -43 -33 -77q-22 -26 -7 -56q1 -3 3 -6l6 -10l2 -4q-26 7 -50 18q-6 3 -13 6q-14 8 -30 5q-18 -4 -38 -4q-47 1 -82 18t-55 44q-24 -8 -50 -11q26 -45 76 -72q49 -26 111 -27v0z" />
    <glyph glyph-name="u1F5EA" unicode="&#xf086;" horiz-adv-x="640" 
d="M88 139q15 30 -7 56q-33 34 -33 77q1 50 44 88t116 40q73 -2 116 -40t44 -88q-1 -50 -44 -88t-116 -40q-20 0 -38 4q-16 3 -30 -5q-7 -3 -13 -6q-24 -11 -50 -18l8 14q2 3 3 6v0zM0 272q1 -64 46 -110q-2 -3 -3 -5q-15 -29 -36 -53q-11 -11 -5 -25q7 -14 22 -15
q66 3 123 30l14 6q23 -4 47 -4q88 2 147 52q59 49 61 124q-2 75 -61 124q-59 50 -147 52q-88 -2 -147 -52q-59 -49 -61 -124v0zM432 -32q24 0 47 4l14 -6q57 -27 123 -30q15 1 22 14q5 15 -5 26q-21 24 -36 52q-1 2 -2 3q0 1 -1 3q45 46 46 110q-2 73 -58 122
q-55 49 -140 54q6 -23 6 -48v-1q66 -6 105 -43q38 -37 39 -84q0 -43 -33 -77q-22 -26 -7 -56q1 -3 3 -6l6 -10l2 -4q-26 7 -50 18q-6 3 -13 6q-14 8 -30 5q-18 -4 -38 -4q-47 1 -82 18t-55 44q-24 -8 -50 -11q26 -45 76 -72q49 -26 111 -27v0z" />
    <glyph glyph-name="uniF123" unicode="&#xf123;" horiz-adv-x="576" 
d="M293 447q18 -5 19 -23v-385q-1 -14 -13 -21l-148 -79q-13 -7 -25 2t-10 23l26 156l-111 110q-10 10 -6 24q5 14 20 17l153 22l68 141q9 16 27 13v0zM264 320l-29 -59q-5 -11 -18 -14l-118 -17l86 -85q8 -9 7 -21l-21 -120l93 50v266v0z" />
    <glyph glyph-name="uniF123" unicode="&#xf089;" horiz-adv-x="576" 
d="M293 447q18 -5 19 -23v-385q-1 -14 -13 -21l-148 -79q-13 -7 -25 2t-10 23l26 156l-111 110q-10 10 -6 24q5 14 20 17l153 22l68 141q9 16 27 13v0zM264 320l-29 -59q-5 -11 -18 -14l-118 -17l86 -85q8 -9 7 -21l-21 -120l93 50v266v0z" />
    <glyph glyph-name="u1F34B" unicode="&#x1f34b;" horiz-adv-x="448" 
d="M368 368q-5 0 -9 -1q-14 -5 -34 -7q-19 -2 -40 3q-44 11 -90 -4t-85 -53q-38 -39 -53 -85t-4 -90q5 -21 3 -40q-2 -20 -7 -34q-1 -4 -1 -9q0 -14 9 -23t23 -9q5 0 9 1q14 5 34 7q19 2 40 -3q44 -11 90 4t85 53q38 39 53 85t4 90q-5 21 -3 40q2 20 7 34q1 4 1 9
q0 14 -9 23t-23 9v0zM368 416q34 -1 57 -23v0q22 -23 23 -57q0 -12 -3 -22q-8 -25 -3 -49q14 -59 -5 -117q-20 -59 -65 -104t-104 -65q-58 -19 -117 -5q-24 5 -49 -3q-10 -3 -22 -3q-34 1 -57 23q-22 23 -23 57q0 12 3 22q8 25 3 49q-14 59 5 117q20 58 65 104q46 45 104 65
q58 19 117 5q24 -5 49 3q10 3 22 3v0zM247 281q-40 -12 -70 -42v0q-30 -30 -42 -70q-8 -20 -30 -16q-20 8 -16 30q16 51 54 90q39 38 90 54q22 4 30 -16q4 -22 -16 -30v0z" />
    <glyph glyph-name="u1F34B" unicode="&#xf094;" horiz-adv-x="448" 
d="M368 368q-5 0 -9 -1q-14 -5 -34 -7q-19 -2 -40 3q-44 11 -90 -4t-85 -53q-38 -39 -53 -85t-4 -90q5 -21 3 -40q-2 -20 -7 -34q-1 -4 -1 -9q0 -14 9 -23t23 -9q5 0 9 1q14 5 34 7q19 2 40 -3q44 -11 90 4t85 53q38 39 53 85t4 90q-5 21 -3 40q2 20 7 34q1 4 1 9
q0 14 -9 23t-23 9v0zM368 416q34 -1 57 -23v0q22 -23 23 -57q0 -12 -3 -22q-8 -25 -3 -49q14 -59 -5 -117q-20 -59 -65 -104t-104 -65q-58 -19 -117 -5q-24 5 -49 -3q-10 -3 -22 -3q-34 1 -57 23q-22 23 -23 57q0 12 3 22q8 25 3 49q-14 59 5 117q20 58 65 104q46 45 104 65
q58 19 117 5q24 -5 49 3q10 3 22 3v0zM247 281q-40 -12 -70 -42v0q-30 -30 -42 -70q-8 -20 -30 -16q-20 8 -16 30q16 51 54 90q39 38 90 54q22 4 30 -16q4 -22 -16 -30v0z" />
    <glyph glyph-name="u1F4B3" unicode="&#x1f4b3;" horiz-adv-x="576" 
d="M512 368q15 -1 16 -16v-32h-480v32q1 15 16 16h448v0zM528 224v-192q-1 -15 -16 -16h-448q-15 1 -16 16v192h480v0zM64 416q-27 -1 -45 -19v0q-18 -18 -19 -45v-320q1 -27 19 -45t45 -19h448q27 1 45 19t19 45v320q-1 27 -19 45t-45 19h-448v0zM120 112q-22 -2 -24 -24
q2 -22 24 -24h48q22 2 24 24q-2 22 -24 24h-48v0zM248 112q-22 -2 -24 -24q2 -22 24 -24h112q22 2 24 24q-2 22 -24 24h-112v0z" />
    <glyph glyph-name="u1F4B3" unicode="&#xf283;" horiz-adv-x="576" 
d="M512 368q15 -1 16 -16v-32h-480v32q1 15 16 16h448v0zM528 224v-192q-1 -15 -16 -16h-448q-15 1 -16 16v192h480v0zM64 416q-27 -1 -45 -19v0q-18 -18 -19 -45v-320q1 -27 19 -45t45 -19h448q27 1 45 19t19 45v320q-1 27 -19 45t-45 19h-448v0zM120 112q-22 -2 -24 -24
q2 -22 24 -24h48q22 2 24 24q-2 22 -24 24h-48v0zM248 112q-22 -2 -24 -24q2 -22 24 -24h112q22 2 24 24q-2 22 -24 24h-112v0z" />
    <glyph glyph-name="u1F4B3" unicode="&#xf09d;" horiz-adv-x="576" 
d="M512 368q15 -1 16 -16v-32h-480v32q1 15 16 16h448v0zM528 224v-192q-1 -15 -16 -16h-448q-15 1 -16 16v192h480v0zM64 416q-27 -1 -45 -19v0q-18 -18 -19 -45v-320q1 -27 19 -45t45 -19h448q27 1 45 19t19 45v320q-1 27 -19 45t-45 19h-448v0zM120 112q-22 -2 -24 -24
q2 -22 24 -24h48q22 2 24 24q-2 22 -24 24h-48v0zM248 112q-22 -2 -24 -24q2 -22 24 -24h112q22 2 24 24q-2 22 -24 24h-112v0z" />
    <glyph glyph-name="u1F5B4" unicode="&#x1f5b4;" 
d="M64 368q-15 -1 -16 -16v-162q8 2 16 2h384q8 0 16 -2v162q-1 15 -16 16h-384v0zM48 128v-96q1 -15 16 -16h384q15 1 16 16v96q-1 15 -16 16h-384q-15 -1 -16 -16v0zM0 128v224q1 27 19 45t45 19h384q27 -1 45 -19t19 -45v-224v-96q-1 -27 -19 -45t-45 -19h-384
q-27 1 -45 19t-19 45v96v0zM280 80q2 22 24 24q22 -2 24 -24q-2 -22 -24 -24q-22 2 -24 24v0zM400 104q22 -2 24 -24q-2 -22 -24 -24q-22 2 -24 24q2 22 24 24v0z" />
    <glyph glyph-name="u1F5B4" unicode="&#xf0a0;" 
d="M64 368q-15 -1 -16 -16v-162q8 2 16 2h384q8 0 16 -2v162q-1 15 -16 16h-384v0zM48 128v-96q1 -15 16 -16h384q15 1 16 16v96q-1 15 -16 16h-384q-15 -1 -16 -16v0zM0 128v224q1 27 19 45t45 19h384q27 -1 45 -19t19 -45v-224v-96q-1 -27 -19 -45t-45 -19h-384
q-27 1 -45 19t-19 45v96v0zM280 80q2 22 24 24q22 -2 24 -24q-2 -22 -24 -24q-22 2 -24 24v0zM400 104q22 -2 24 -24q-2 -22 -24 -24q-22 2 -24 24q2 22 24 24v0z" />
    <glyph glyph-name="uniF0A4" unicode="&#xf0a4;" 
d="M448 320h-178q2 -8 2 -16v-16h32h144q15 1 16 16q-1 15 -16 16v0zM224 304q0 14 -9 23v0q-9 9 -23 9v0v0h-24q-51 -1 -85 -35t-35 -85v-48q1 -40 23 -70q22 -31 58 -43q-1 4 -1 9q1 31 24 50q-8 13 -8 30q0 23 14 40q-14 17 -14 40v40q2 22 24 24q22 -2 24 -24v-40
q1 -15 16 -16q15 1 16 16v40v40v0zM192 384v0v0v0q27 -1 48 -16h208q27 -1 45 -19t19 -45q-1 -27 -19 -45t-45 -19h-82q2 -8 2 -16q-2 -40 -36 -58q4 -10 4 -22q-1 -31 -24 -50q8 -13 8 -30q-1 -27 -19 -45t-45 -19h-64h-24q-71 2 -119 49q-47 48 -49 119v48q2 71 49 119
q48 47 119 49h24v0zM256 48q15 1 16 16q-1 15 -16 16h-48h-16q-15 -1 -16 -16q1 -15 16 -16h64v0zM272 224q0 -8 -2 -16h2h32q15 1 16 16q-1 15 -16 16h-32v-16v0zM248 160h-40q-15 -1 -16 -16q1 -15 16 -16h48h16q15 1 16 16q-1 15 -16 16h-24v0z" />
    <glyph glyph-name="uniF0A5" unicode="&#xf0a5;" 
d="M64 320h178q-2 -8 -2 -16v-16h-32h-144q-15 1 -16 16q1 15 16 16v0zM288 304q0 14 9 23v0q9 9 23 9v0v0h24q51 -1 85 -35t35 -85v-48q-1 -40 -23 -70q-22 -31 -58 -43q1 4 1 9q-1 31 -24 50q8 13 8 30q0 23 -14 40q14 17 14 40v40q-2 22 -24 24q-22 -2 -24 -24v-40
q-1 -15 -16 -16q-15 1 -16 16v40v40v0zM320 384v0v0v0q-27 -1 -48 -16h-208q-27 -1 -45 -19t-19 -45q1 -27 19 -45t45 -19h82q-2 -8 -2 -16q2 -40 36 -58q-4 -10 -4 -22q1 -31 24 -50q-8 -13 -8 -30q1 -27 19 -45t45 -19h64h24q71 2 119 49q47 48 49 119v48q-2 71 -49 119
q-48 47 -119 49h-24v0zM256 48q-15 1 -16 16q1 15 16 16h48h16q15 -1 16 -16q-1 -15 -16 -16h-64v0zM240 224q0 -8 2 -16h-2h-32q-15 1 -16 16q1 15 16 16h32v-16v0zM264 160h40q15 -1 16 -16q-1 -15 -16 -16h-48h-16q-15 1 -16 16q1 15 16 16h24v0z" />
    <glyph glyph-name="uniF0A6" unicode="&#xf0a6;" horiz-adv-x="384" 
d="M64 384v-178q8 2 16 2h16v32v144q-1 15 -16 16q-15 -1 -16 -16v0zM80 160q-14 0 -23 -9v0q-9 -9 -9 -23v0v0v-24q1 -51 35 -85t85 -35h48q40 1 70 23q31 22 43 58q-4 -1 -9 -1q-31 1 -50 24q-13 -8 -30 -8q-23 0 -40 14q-17 -14 -40 -14h-40q-22 2 -24 24q2 22 24 24h40
q15 1 16 16q-1 15 -16 16h-40h-40v0zM0 128v0v0v0q1 27 16 48v208q1 27 19 45t45 19q27 -1 45 -19t19 -45v-82q8 2 16 2q40 -2 58 -36q10 4 22 4q31 -1 50 -24q13 8 30 8q27 -1 45 -19t19 -45v-64v-24q-2 -71 -49 -119q-48 -47 -119 -49h-48q-71 2 -119 49q-47 48 -49 119
v24v0zM336 192q-1 15 -16 16q-15 -1 -16 -16v-48v-16q1 -15 16 -16q15 1 16 16v64v0zM160 208q8 0 16 -2v2v32q-1 15 -16 16q-15 -1 -16 -16v-32h16v0zM224 184v-40q1 -15 16 -16q15 1 16 16v48v16q-1 15 -16 16q-15 -1 -16 -16v-24v0z" />
    <glyph glyph-name="uniF0A6" unicode="&#x261d;" horiz-adv-x="384" 
d="M64 384v-178q8 2 16 2h16v32v144q-1 15 -16 16q-15 -1 -16 -16v0zM80 160q-14 0 -23 -9v0q-9 -9 -9 -23v0v0v-24q1 -51 35 -85t85 -35h48q40 1 70 23q31 22 43 58q-4 -1 -9 -1q-31 1 -50 24q-13 -8 -30 -8q-23 0 -40 14q-17 -14 -40 -14h-40q-22 2 -24 24q2 22 24 24h40
q15 1 16 16q-1 15 -16 16h-40h-40v0zM0 128v0v0v0q1 27 16 48v208q1 27 19 45t45 19q27 -1 45 -19t19 -45v-82q8 2 16 2q40 -2 58 -36q10 4 22 4q31 -1 50 -24q13 8 30 8q27 -1 45 -19t19 -45v-64v-24q-2 -71 -49 -119q-48 -47 -119 -49h-48q-71 2 -119 49q-47 48 -49 119
v24v0zM336 192q-1 15 -16 16q-15 -1 -16 -16v-48v-16q1 -15 16 -16q15 1 16 16v64v0zM160 208q8 0 16 -2v2v32q-1 15 -16 16q-15 -1 -16 -16v-32h16v0zM224 184v-40q1 -15 16 -16q15 1 16 16v48v16q-1 15 -16 16q-15 -1 -16 -16v-24v0z" />
    <glyph glyph-name="uniF0A7" unicode="&#xf0a7;" horiz-adv-x="384" 
d="M64 0v178q8 -2 16 -2h16v-32v-144q-1 -15 -16 -16q-15 1 -16 16v0zM80 224q-14 0 -23 9v0q-9 9 -9 23v0v0v24q1 51 35 85t85 35h48q40 -1 70 -23q31 -22 43 -58q-4 1 -9 1q-31 -1 -50 -24q-13 8 -30 8q-23 0 -40 -14q-17 14 -40 14h-40q-22 -2 -24 -24q2 -22 24 -24h40
q15 -1 16 -16q-1 -15 -16 -16h-40h-40v0zM0 256v0v0v0q1 -27 16 -48v-208q1 -27 19 -45t45 -19q27 1 45 19t19 45v82q8 -2 16 -2q40 2 58 36q10 -4 22 -4q31 1 50 24q13 -8 30 -8q27 1 45 19t19 45v64v24q-2 71 -49 119q-48 47 -119 49h-48q-71 -2 -119 -49
q-47 -48 -49 -119v-24v0zM336 192q-1 -15 -16 -16q-15 1 -16 16v48v16q1 15 16 16q15 -1 16 -16v-64v0zM160 176q8 0 16 2v-2v-32q-1 -15 -16 -16q-15 1 -16 16v32h16v0zM224 200v40q1 15 16 16q15 -1 16 -16v-48v-16q-1 -15 -16 -16q-15 1 -16 16v24v0z" />
    <glyph glyph-name="uniF0C5" unicode="&#xf0c5;" 
d="M448 64h-192q-27 1 -45 19t-19 45v256q1 27 19 45t45 19h140q20 0 34 -14l68 -68q14 -14 14 -34v-204q-1 -27 -19 -45t-45 -19v0zM64 320h96v-48h-96q-15 -1 -16 -16v-256q1 -15 16 -16h192q15 1 16 16v32h48v-32q-1 -27 -19 -45t-45 -19h-192q-27 1 -45 19t-19 45v256
q1 27 19 45t45 19v0z" />
    <glyph glyph-name="u1F5AA" unicode="&#x1f5aa;" horiz-adv-x="448" 
d="M48 352v-320q1 -15 16 -16h320q15 1 16 16v245q0 7 -5 12l34 34q19 -19 19 -46v-245q-1 -27 -19 -45t-45 -19h-320q-27 1 -45 19t-19 45v320q1 27 19 45t45 19h246q26 0 45 -19l74 -74l-34 -34l-74 74l-1 1v-100q-2 -22 -24 -24h-192q-22 2 -24 24v104h-16
q-15 -1 -16 -16v0zM128 368v-80h144v80h-144v0zM160 128q1 36 32 55q32 18 64 0q31 -19 32 -55q-1 -36 -32 -55q-32 -18 -64 0q-31 19 -32 55v0z" />
    <glyph glyph-name="u1F5AA" unicode="&#x1f4be;" horiz-adv-x="448" 
d="M48 352v-320q1 -15 16 -16h320q15 1 16 16v245q0 7 -5 12l34 34q19 -19 19 -46v-245q-1 -27 -19 -45t-45 -19h-320q-27 1 -45 19t-19 45v320q1 27 19 45t45 19h246q26 0 45 -19l74 -74l-34 -34l-74 74l-1 1v-100q-2 -22 -24 -24h-192q-22 2 -24 24v104h-16
q-15 -1 -16 -16v0zM128 368v-80h144v80h-144v0zM160 128q1 36 32 55q32 18 64 0q31 -19 32 -55q-1 -36 -32 -55q-32 -18 -64 0q-31 19 -32 55v0z" />
    <glyph glyph-name="u1F5AA" unicode="&#xf0c7;" horiz-adv-x="448" 
d="M48 352v-320q1 -15 16 -16h320q15 1 16 16v245q0 7 -5 12l34 34q19 -19 19 -46v-245q-1 -27 -19 -45t-45 -19h-320q-27 1 -45 19t-19 45v320q1 27 19 45t45 19h246q26 0 45 -19l74 -74l-34 -34l-74 74l-1 1v-100q-2 -22 -24 -24h-192q-22 2 -24 24v104h-16
q-15 -1 -16 -16v0zM128 368v-80h144v80h-144v0zM160 128q1 36 32 55q32 18 64 0q31 -19 32 -55q-1 -36 -32 -55q-32 -18 -64 0q-31 19 -32 55v0z" />
    <glyph glyph-name="uniF0C8" unicode="&#xf0c8;" horiz-adv-x="448" 
d="M384 368q15 -1 16 -16v-320q-1 -15 -16 -16h-320q-15 1 -16 16v320q1 15 16 16h320v0zM64 416q-27 -1 -45 -19v0q-18 -18 -19 -45v-320q1 -27 19 -45t45 -19h320q27 1 45 19t19 45v320q-1 27 -19 45t-45 19h-320v0z" />
    <glyph glyph-name="uniF0C8" unicode="&#xf096;" horiz-adv-x="448" 
d="M384 368q15 -1 16 -16v-320q-1 -15 -16 -16h-320q-15 1 -16 16v320q1 15 16 16h320v0zM64 416q-27 -1 -45 -19v0q-18 -18 -19 -45v-320q1 -27 19 -45t45 -19h320q27 1 45 19t19 45v320q-1 27 -19 45t-45 19h-320v0z" />
    <glyph glyph-name="uniF0C8" unicode="&#x25fc;" horiz-adv-x="448" 
d="M384 368q15 -1 16 -16v-320q-1 -15 -16 -16h-320q-15 1 -16 16v320q1 15 16 16h320v0zM64 416q-27 -1 -45 -19v0q-18 -18 -19 -45v-320q1 -27 19 -45t45 -19h320q27 1 45 19t19 45v320q-1 27 -19 45t-45 19h-320v0z" />
    <glyph glyph-name="uniF0C8" unicode="&#x25fb;" horiz-adv-x="448" 
d="M384 368q15 -1 16 -16v-320q-1 -15 -16 -16h-320q-15 1 -16 16v320q1 15 16 16h320v0zM64 416q-27 -1 -45 -19v0q-18 -18 -19 -45v-320q1 -27 19 -45t45 -19h320q27 1 45 19t19 45v320q-1 27 -19 45t-45 19h-320v0z" />
    <glyph glyph-name="uniF0C8" unicode="&#x25a0;" horiz-adv-x="448" 
d="M384 368q15 -1 16 -16v-320q-1 -15 -16 -16h-320q-15 1 -16 16v320q1 15 16 16h320v0zM64 416q-27 -1 -45 -19v0q-18 -18 -19 -45v-320q1 -27 19 -45t45 -19h320q27 1 45 19t19 45v320q-1 27 -19 45t-45 19h-320v0z" />
    <glyph glyph-name="u1F582" unicode="&#x1f582;" 
d="M64 336q-15 -1 -16 -16v-22l173 -142q16 -12 35 -12q20 0 36 12l172 142v22q-1 15 -16 16h-384v0zM48 236v-172q1 -15 16 -16h384q15 1 16 16v172l-142 -117q-30 -23 -66 -23t-66 23l-142 117v0zM0 320q1 27 19 45v0q18 18 45 19h384q27 -1 45 -19t19 -45v-256
q-1 -27 -19 -45t-45 -19h-384q-27 1 -45 19t-19 45v256v0z" />
    <glyph glyph-name="u1F582" unicode="&#xf0e0;" 
d="M64 336q-15 -1 -16 -16v-22l173 -142q16 -12 35 -12q20 0 36 12l172 142v22q-1 15 -16 16h-384v0zM48 236v-172q1 -15 16 -16h384q15 1 16 16v172l-142 -117q-30 -23 -66 -23t-66 23l-142 117v0zM0 320q1 27 19 45v0q18 18 45 19h384q27 -1 45 -19t19 -45v-256
q-1 -27 -19 -45t-45 -19h-384q-27 1 -45 19t-19 45v256v0z" />
    <glyph glyph-name="u1F582" unicode="&#xf003;" 
d="M64 336q-15 -1 -16 -16v-22l173 -142q16 -12 35 -12q20 0 36 12l172 142v22q-1 15 -16 16h-384v0zM48 236v-172q1 -15 16 -16h384q15 1 16 16v172l-142 -117q-30 -23 -66 -23t-66 23l-142 117v0zM0 320q1 27 19 45v0q18 18 45 19h384q27 -1 45 -19t19 -45v-256
q-1 -27 -19 -45t-45 -19h-384q-27 1 -45 19t-19 45v256v0z" />
    <glyph glyph-name="u1F582" unicode="&#x2709;" 
d="M64 336q-15 -1 -16 -16v-22l173 -142q16 -12 35 -12q20 0 36 12l172 142v22q-1 15 -16 16h-384v0zM48 236v-172q1 -15 16 -16h384q15 1 16 16v172l-142 -117q-30 -23 -66 -23t-66 23l-142 117v0zM0 320q1 27 19 45v0q18 18 45 19h384q27 -1 45 -19t19 -45v-256
q-1 -27 -19 -45t-45 -19h-384q-27 1 -45 19t-19 45v256v0z" />
    <glyph glyph-name="uniF0EA" unicode="&#xf0ea;" 
d="M105 400h-41q-27 -1 -45 -19t-19 -45v-272q1 -27 19 -45t45 -19h96v48h-96q-15 1 -16 16v272q1 15 16 16h16q0 -14 9 -23t23 -9h72q28 31 72 32h62q-6 21 -22 34q-17 14 -40 14h-41q-3 21 -18 34q-15 14 -37 14t-37 -14q-15 -13 -18 -34v0zM144 392q1 15 16 16
q15 -1 16 -16q-1 -15 -16 -16q-15 1 -16 16v0zM448 -16h-192q-15 1 -16 16v256q1 15 16 16h140l68 -68v-204q-1 -15 -16 -16v0zM256 -64h192q27 1 45 19t19 45v204q0 20 -14 34l-68 68q-14 14 -34 14h-140q-27 -1 -45 -19t-19 -45v-256q1 -27 19 -45t45 -19v0z" />
    <glyph glyph-name="u1F4A1" unicode="&#x1f4a1;" horiz-adv-x="384" 
d="M297 199q22 32 23 73q-1 54 -37 91q-37 36 -91 37q-54 -1 -91 -37q-36 -37 -37 -91q1 -41 23 -73q5 -8 13 -18v0q21 -27 39 -59q15 -29 19 -58h-49q-3 18 -12 35q-15 26 -34 51v0v0l-16 22q-30 43 -31 100q2 75 52 124q49 50 124 52q75 -2 124 -52q50 -49 52 -124
q-1 -57 -31 -100q-8 -11 -16 -21v-1v0v0q-19 -25 -34 -51q-9 -17 -12 -35h-49q4 29 19 58q19 32 40 59v0v0v0q7 10 12 18v0zM192 320q-20 -1 -34 -14v0q-13 -14 -14 -34q-1 -15 -16 -16q-15 1 -16 16q1 34 23 57q23 22 57 23q15 -1 16 -16q-1 -15 -16 -16v0zM192 -64
q-34 1 -57 23v0q-22 23 -23 57v16h160v-16q-1 -34 -23 -57q-23 -22 -57 -23v0z" />
    <glyph glyph-name="u1F4A1" unicode="&#xf0eb;" horiz-adv-x="384" 
d="M297 199q22 32 23 73q-1 54 -37 91q-37 36 -91 37q-54 -1 -91 -37q-36 -37 -37 -91q1 -41 23 -73q5 -8 13 -18v0q21 -27 39 -59q15 -29 19 -58h-49q-3 18 -12 35q-15 26 -34 51v0v0l-16 22q-30 43 -31 100q2 75 52 124q49 50 124 52q75 -2 124 -52q50 -49 52 -124
q-1 -57 -31 -100q-8 -11 -16 -21v-1v0v0q-19 -25 -34 -51q-9 -17 -12 -35h-49q4 29 19 58q19 32 40 59v0v0v0q7 10 12 18v0zM192 320q-20 -1 -34 -14v0q-13 -14 -14 -34q-1 -15 -16 -16q-15 1 -16 16q1 34 23 57q23 22 57 23q15 -1 16 -16q-1 -15 -16 -16v0zM192 -64
q-34 1 -57 23v0q-22 23 -23 57v16h160v-16q-1 -34 -23 -57q-23 -22 -57 -23v0z" />
    <glyph glyph-name="u1F514" unicode="&#x1f514;" horiz-adv-x="448" 
d="M224 448q-14 0 -23 -9v0q-9 -9 -9 -23v-18q-56 -10 -91 -51q-36 -41 -37 -99v-33q-1 -70 -44 -125l-15 -19q-9 -12 -3 -25q7 -13 22 -14h400q15 1 22 14q5 13 -3 25l-15 19q-43 55 -44 125v33q-1 58 -37 99q-35 41 -91 51v18q0 14 -9 23t-23 9v0zM224 352h8q44 -1 74 -30
q29 -30 30 -74v-33q0 -74 40 -135h-304q39 61 40 135v33q1 44 30 74q30 29 74 30h8v0zM288 0h-64h-64q0 -26 19 -45t45 -19t45 19t19 45v0z" />
    <glyph glyph-name="u1F514" unicode="&#xf0f3;" horiz-adv-x="448" 
d="M224 448q-14 0 -23 -9v0q-9 -9 -9 -23v-18q-56 -10 -91 -51q-36 -41 -37 -99v-33q-1 -70 -44 -125l-15 -19q-9 -12 -3 -25q7 -13 22 -14h400q15 1 22 14q5 13 -3 25l-15 19q-43 55 -44 125v33q-1 58 -37 99q-35 41 -91 51v18q0 14 -9 23t-23 9v0zM224 352h8q44 -1 74 -30
q29 -30 30 -74v-33q0 -74 40 -135h-304q39 61 40 135v33q1 44 30 74q30 29 74 30h8v0zM288 0h-64h-64q0 -26 19 -45t45 -19t45 19t19 45v0z" />
    <glyph glyph-name="u1F514" unicode="&#xf0a2;" horiz-adv-x="448" 
d="M224 448q-14 0 -23 -9v0q-9 -9 -9 -23v-18q-56 -10 -91 -51q-36 -41 -37 -99v-33q-1 -70 -44 -125l-15 -19q-9 -12 -3 -25q7 -13 22 -14h400q15 1 22 14q5 13 -3 25l-15 19q-43 55 -44 125v33q-1 58 -37 99q-35 41 -91 51v18q0 14 -9 23t-23 9v0zM224 352h8q44 -1 74 -30
q29 -30 30 -74v-33q0 -74 40 -135h-304q39 61 40 135v33q1 44 30 74q30 29 74 30h8v0zM288 0h-64h-64q0 -26 19 -45t45 -19t45 19t19 45v0z" />
    <glyph glyph-name="u1F3E5" unicode="&#x1f3e5;" horiz-adv-x="640" 
d="M232 448q-31 -1 -51 -21v0q-20 -20 -21 -51v-8h-88q-31 -1 -51 -21t-21 -51v-288q1 -31 21 -51t51 -21v0v0h1v0v0v0v0v0h1v0v0v0v0h1v0v0v0v0v0h1v0v0v0v0h1v0v0v0v0v0h1v0v0v0v0h1v0v0v0v0v0h1v0v0v0v0h1v0v0v0v0h1v0v0v0v0v0h1v0v0v0v0h1v0v0v0v0h1v0v0v0v0v0h1v0v0v0
v0h1v0v0v0v0h1v0v0v0v0h1v0v0v0v0h1v0v0v0v0h1v0v0v0v0h1v0v0v0v0h1v0v0v0v0h1v0v0v0v0h1v0v0v0v0h1v0v0v0v0h1v0v0v0v0h1v0v0v0v0h1v0v0v0v0h1v0v0v0v0h1v0v0v0v0h1v0v0v0v0h1v0v0v0v0h1v0v0v0v0h1v0v0v0v0h1v0v0v0v0h1v0v0v0v0h1v0v0v0v0h1v0v0v0v0h1v0v0v0v0h1v0v0v0v0h1
v0v0v0v0h1v0v0v0v0h1v0v0v0v0h1v0v0v0v0h1v0v0v0v0h1v0v0v0v0h1v0v0v0v0h1v0v0v0v0h1v0v0v0v0h1v0v0v0v0h1v0v0v0v0h1v0v0v0v0h1v0v0v0v0h1v0v0v0v0h1v0v0v0v0h1v0v0v0v0h1v0v0v0v0h1v0v0v0v0h1v0v0v0v0h1v0v0v0v0h1v0v0v0v0h1v0v0v0v0h1v0v0v0v0h1v0v0v0v0h1v0v0v0v0h1v0v0
v0v0h1v0v0v0v0h1v0v0v0v0h1v0v0v0v0h1v0v0v0v0h1v0v0v0v0h1v0v0v0v0h1v0v0v0v0h1v0v0v0v0h1v0v0v0v0h1v0v0v0v0h1v0v0v0v0h1v0v0v0v0h1v0v0v0v0h1v0v0v0v0h1v0v0v0v0h1v0v0v0v0h1v0v0v0v0h1v0v0v0v0h1v0v0v0v0h1v0v0v0v0h1v0v0v0v0h1v0v0v0v0h1v0v0v0v0h1v0v0v0v0h1v0v0v0v0
h1v0v0v0v0h1v0v0v0v0h1v0v0v0v0h1v0v0v0v0h1v0v0v0v0h1v0v0v0v0h1v0v0v0v0h1v0v0v0v0h1v0v0v0v0h1v0v0v0v0h1v0v0v0v0h283h8v0h104q31 1 51 21t21 51v288q-1 31 -21 51t-51 21h-88v8q-1 31 -21 51t-51 21h-176v0zM480 320h88q22 -2 24 -24v-40h-56q-22 -2 -24 -24
q2 -22 24 -24h56v-48h-56q-22 -2 -24 -24q2 -22 24 -24h56v-104q-2 -22 -24 -24h-88v128v208v0zM72 320h88v-336v0v0v0h-1v0v0v0h-1v0v0v0h-1v0v0v0v0h-1v0v0v0v0h-1v0v0v0h-1v0v0h-1v0v0v0h-1v0v0v0v0h-1v0v0v0v0h-1v0v0h-1v0v0v0h-1v0v0v0v0h-1v0v0v0v0h-1v0v0h-1v0v0v0
h-1v0v0v0v0h-1v0v0v0v0h-1v0v0h-1v0v0v0v0h-1v0v0v0v0h-1v0v0h-1v0v0v0v0h-1v0v0v0v0h-1v0v0h-1v0v0v0v0h-1v0v0v0v0h-1v0v0h-1v0v0v0v0h-1v0v0v0h-1v0v0v0v0h-1v0v0v0v0h-1v0v0h-1v0v0v0v0h-1v0v0v0h-1v0v0v0v0h-1v0v0v0h-1v0v0v0v0h-1v0v0v0h-1v0v0v0v0h-1v0v0v0h-1v0v0v0
v0h-1v0v0v0h-1v0v0v0v0h-1v0v0v0h-1v0v0v0v0h-1v0v0v0h-1v0v0v0v0h-1v0v0v0v0h-1v0v0v0h-1v0v0v0v0h-1v0v0v0v0h-1v0v0v0h-1v0v0v0v0h-1v0v0v0v0h-1v0v0v0h-1v0v0v0v0h-1v0v0v0v0h-1v0v0v0v0h-1v0v0v0v0h-1v0v0v0h-1v0v0v0v0h-1v0v0v0v0h-1v0v0v0v0h-1v0v0v0v0h-1v0v0v0v0
h-1v0v0v0v0h-1v0v0v0v0h-1v0v0v0v0h-1v0v0v0v0h-1v0v0v0v0h-1v0v0v0v0h-1v0v0v0v0h-1v0v0v0v0h-1v0v0v0v0h-1v0v0v0v0h-1v0v0v0v0h-1v0v0v0v0h-1v0v0v0v0v0h-1v0v0v0v0h-1v0v0v0v0h-1v0v0v0v0v0h-1v0v0v0v0h-1v0v0v0v0v0h-1v0v0v0v0h-1v0v0v0v0v0h-1v0v0v0v0h-1v0v0v0v0v0
h-1v0v0v0q-22 2 -24 24v104h56q22 2 24 24q-2 22 -24 24h-56v48h56q22 2 24 24q-2 22 -24 24h-56v40q2 22 24 24v0zM208 376q2 22 24 24h176q22 -2 24 -24v-264v-128h-64v64q-1 20 -14 34q-14 13 -34 14q-20 -1 -34 -14q-13 -14 -14 -34v-64h-64v392v0zM296 352v-24h-24
q-15 -1 -16 -16v-16q1 -15 16 -16h24v-24q1 -15 16 -16h16q15 1 16 16v24h24q15 1 16 16v16q-1 15 -16 16h-24v24q-1 15 -16 16h-16q-15 -1 -16 -16v0z" />
    <glyph glyph-name="u1F3E5" unicode="&#xf47d;" horiz-adv-x="640" 
d="M232 448q-31 -1 -51 -21v0q-20 -20 -21 -51v-8h-88q-31 -1 -51 -21t-21 -51v-288q1 -31 21 -51t51 -21v0v0h1v0v0v0v0v0h1v0v0v0v0h1v0v0v0v0v0h1v0v0v0v0h1v0v0v0v0v0h1v0v0v0v0h1v0v0v0v0v0h1v0v0v0v0h1v0v0v0v0h1v0v0v0v0v0h1v0v0v0v0h1v0v0v0v0h1v0v0v0v0v0h1v0v0v0
v0h1v0v0v0v0h1v0v0v0v0h1v0v0v0v0h1v0v0v0v0h1v0v0v0v0h1v0v0v0v0h1v0v0v0v0h1v0v0v0v0h1v0v0v0v0h1v0v0v0v0h1v0v0v0v0h1v0v0v0v0h1v0v0v0v0h1v0v0v0v0h1v0v0v0v0h1v0v0v0v0h1v0v0v0v0h1v0v0v0v0h1v0v0v0v0h1v0v0v0v0h1v0v0v0v0h1v0v0v0v0h1v0v0v0v0h1v0v0v0v0h1v0v0v0v0h1
v0v0v0v0h1v0v0v0v0h1v0v0v0v0h1v0v0v0v0h1v0v0v0v0h1v0v0v0v0h1v0v0v0v0h1v0v0v0v0h1v0v0v0v0h1v0v0v0v0h1v0v0v0v0h1v0v0v0v0h1v0v0v0v0h1v0v0v0v0h1v0v0v0v0h1v0v0v0v0h1v0v0v0v0h1v0v0v0v0h1v0v0v0v0h1v0v0v0v0h1v0v0v0v0h1v0v0v0v0h1v0v0v0v0h1v0v0v0v0h1v0v0v0v0h1v0v0
v0v0h1v0v0v0v0h1v0v0v0v0h1v0v0v0v0h1v0v0v0v0h1v0v0v0v0h1v0v0v0v0h1v0v0v0v0h1v0v0v0v0h1v0v0v0v0h1v0v0v0v0h1v0v0v0v0h1v0v0v0v0h1v0v0v0v0h1v0v0v0v0h1v0v0v0v0h1v0v0v0v0h1v0v0v0v0h1v0v0v0v0h1v0v0v0v0h1v0v0v0v0h1v0v0v0v0h1v0v0v0v0h1v0v0v0v0h1v0v0v0v0h1v0v0v0v0
h1v0v0v0v0h1v0v0v0v0h1v0v0v0v0h1v0v0v0v0h1v0v0v0v0h1v0v0v0v0h1v0v0v0v0h1v0v0v0v0h1v0v0v0v0h1v0v0v0v0h1v0v0v0v0h283h8v0h104q31 1 51 21t21 51v288q-1 31 -21 51t-51 21h-88v8q-1 31 -21 51t-51 21h-176v0zM480 320h88q22 -2 24 -24v-40h-56q-22 -2 -24 -24
q2 -22 24 -24h56v-48h-56q-22 -2 -24 -24q2 -22 24 -24h56v-104q-2 -22 -24 -24h-88v128v208v0zM72 320h88v-336v0v0v0h-1v0v0v0h-1v0v0v0h-1v0v0v0v0h-1v0v0v0v0h-1v0v0v0h-1v0v0h-1v0v0v0h-1v0v0v0v0h-1v0v0v0v0h-1v0v0h-1v0v0v0h-1v0v0v0v0h-1v0v0v0v0h-1v0v0h-1v0v0v0
h-1v0v0v0v0h-1v0v0v0v0h-1v0v0h-1v0v0v0v0h-1v0v0v0v0h-1v0v0h-1v0v0v0v0h-1v0v0v0v0h-1v0v0h-1v0v0v0v0h-1v0v0v0v0h-1v0v0h-1v0v0v0v0h-1v0v0v0h-1v0v0v0v0h-1v0v0v0v0h-1v0v0h-1v0v0v0v0h-1v0v0v0h-1v0v0v0v0h-1v0v0v0h-1v0v0v0v0h-1v0v0v0h-1v0v0v0v0h-1v0v0v0h-1v0v0v0
v0h-1v0v0v0h-1v0v0v0v0h-1v0v0v0h-1v0v0v0v0h-1v0v0v0h-1v0v0v0v0h-1v0v0v0v0h-1v0v0v0h-1v0v0v0v0h-1v0v0v0v0h-1v0v0v0h-1v0v0v0v0h-1v0v0v0v0h-1v0v0v0h-1v0v0v0v0h-1v0v0v0v0h-1v0v0v0v0h-1v0v0v0v0h-1v0v0v0h-1v0v0v0v0h-1v0v0v0v0h-1v0v0v0v0h-1v0v0v0v0h-1v0v0v0v0
h-1v0v0v0v0h-1v0v0v0v0h-1v0v0v0v0h-1v0v0v0v0h-1v0v0v0v0h-1v0v0v0v0h-1v0v0v0v0h-1v0v0v0v0h-1v0v0v0v0h-1v0v0v0v0h-1v0v0v0v0h-1v0v0v0v0h-1v0v0v0v0v0h-1v0v0v0v0h-1v0v0v0v0h-1v0v0v0v0v0h-1v0v0v0v0h-1v0v0v0v0v0h-1v0v0v0v0h-1v0v0v0v0v0h-1v0v0v0v0h-1v0v0v0v0v0
h-1v0v0v0q-22 2 -24 24v104h56q22 2 24 24q-2 22 -24 24h-56v48h56q22 2 24 24q-2 22 -24 24h-56v40q2 22 24 24v0zM208 376q2 22 24 24h176q22 -2 24 -24v-264v-128h-64v64q-1 20 -14 34q-14 13 -34 14q-20 -1 -34 -14q-13 -14 -14 -34v-64h-64v392v0zM296 352v-24h-24
q-15 -1 -16 -16v-16q1 -15 16 -16h24v-24q1 -15 16 -16h16q15 1 16 16v24h24q15 1 16 16v16q-1 15 -16 16h-24v24q-1 15 -16 16h-16q-15 -1 -16 -16v0z" />
    <glyph glyph-name="u1F3E5" unicode="&#xf0f8;" horiz-adv-x="640" 
d="M232 448q-31 -1 -51 -21v0q-20 -20 -21 -51v-8h-88q-31 -1 -51 -21t-21 -51v-288q1 -31 21 -51t51 -21v0v0h1v0v0v0v0v0h1v0v0v0v0h1v0v0v0v0v0h1v0v0v0v0h1v0v0v0v0v0h1v0v0v0v0h1v0v0v0v0v0h1v0v0v0v0h1v0v0v0v0h1v0v0v0v0v0h1v0v0v0v0h1v0v0v0v0h1v0v0v0v0v0h1v0v0v0
v0h1v0v0v0v0h1v0v0v0v0h1v0v0v0v0h1v0v0v0v0h1v0v0v0v0h1v0v0v0v0h1v0v0v0v0h1v0v0v0v0h1v0v0v0v0h1v0v0v0v0h1v0v0v0v0h1v0v0v0v0h1v0v0v0v0h1v0v0v0v0h1v0v0v0v0h1v0v0v0v0h1v0v0v0v0h1v0v0v0v0h1v0v0v0v0h1v0v0v0v0h1v0v0v0v0h1v0v0v0v0h1v0v0v0v0h1v0v0v0v0h1v0v0v0v0h1
v0v0v0v0h1v0v0v0v0h1v0v0v0v0h1v0v0v0v0h1v0v0v0v0h1v0v0v0v0h1v0v0v0v0h1v0v0v0v0h1v0v0v0v0h1v0v0v0v0h1v0v0v0v0h1v0v0v0v0h1v0v0v0v0h1v0v0v0v0h1v0v0v0v0h1v0v0v0v0h1v0v0v0v0h1v0v0v0v0h1v0v0v0v0h1v0v0v0v0h1v0v0v0v0h1v0v0v0v0h1v0v0v0v0h1v0v0v0v0h1v0v0v0v0h1v0v0
v0v0h1v0v0v0v0h1v0v0v0v0h1v0v0v0v0h1v0v0v0v0h1v0v0v0v0h1v0v0v0v0h1v0v0v0v0h1v0v0v0v0h1v0v0v0v0h1v0v0v0v0h1v0v0v0v0h1v0v0v0v0h1v0v0v0v0h1v0v0v0v0h1v0v0v0v0h1v0v0v0v0h1v0v0v0v0h1v0v0v0v0h1v0v0v0v0h1v0v0v0v0h1v0v0v0v0h1v0v0v0v0h1v0v0v0v0h1v0v0v0v0h1v0v0v0v0
h1v0v0v0v0h1v0v0v0v0h1v0v0v0v0h1v0v0v0v0h1v0v0v0v0h1v0v0v0v0h1v0v0v0v0h1v0v0v0v0h1v0v0v0v0h1v0v0v0v0h1v0v0v0v0h283h8v0h104q31 1 51 21t21 51v288q-1 31 -21 51t-51 21h-88v8q-1 31 -21 51t-51 21h-176v0zM480 320h88q22 -2 24 -24v-40h-56q-22 -2 -24 -24
q2 -22 24 -24h56v-48h-56q-22 -2 -24 -24q2 -22 24 -24h56v-104q-2 -22 -24 -24h-88v128v208v0zM72 320h88v-336v0v0v0h-1v0v0v0h-1v0v0v0h-1v0v0v0v0h-1v0v0v0v0h-1v0v0v0h-1v0v0h-1v0v0v0h-1v0v0v0v0h-1v0v0v0v0h-1v0v0h-1v0v0v0h-1v0v0v0v0h-1v0v0v0v0h-1v0v0h-1v0v0v0
h-1v0v0v0v0h-1v0v0v0v0h-1v0v0h-1v0v0v0v0h-1v0v0v0v0h-1v0v0h-1v0v0v0v0h-1v0v0v0v0h-1v0v0h-1v0v0v0v0h-1v0v0v0v0h-1v0v0h-1v0v0v0v0h-1v0v0v0h-1v0v0v0v0h-1v0v0v0v0h-1v0v0h-1v0v0v0v0h-1v0v0v0h-1v0v0v0v0h-1v0v0v0h-1v0v0v0v0h-1v0v0v0h-1v0v0v0v0h-1v0v0v0h-1v0v0v0
v0h-1v0v0v0h-1v0v0v0v0h-1v0v0v0h-1v0v0v0v0h-1v0v0v0h-1v0v0v0v0h-1v0v0v0v0h-1v0v0v0h-1v0v0v0v0h-1v0v0v0v0h-1v0v0v0h-1v0v0v0v0h-1v0v0v0v0h-1v0v0v0h-1v0v0v0v0h-1v0v0v0v0h-1v0v0v0v0h-1v0v0v0v0h-1v0v0v0h-1v0v0v0v0h-1v0v0v0v0h-1v0v0v0v0h-1v0v0v0v0h-1v0v0v0v0
h-1v0v0v0v0h-1v0v0v0v0h-1v0v0v0v0h-1v0v0v0v0h-1v0v0v0v0h-1v0v0v0v0h-1v0v0v0v0h-1v0v0v0v0h-1v0v0v0v0h-1v0v0v0v0h-1v0v0v0v0h-1v0v0v0v0h-1v0v0v0v0v0h-1v0v0v0v0h-1v0v0v0v0h-1v0v0v0v0v0h-1v0v0v0v0h-1v0v0v0v0v0h-1v0v0v0v0h-1v0v0v0v0v0h-1v0v0v0v0h-1v0v0v0v0v0
h-1v0v0v0q-22 2 -24 24v104h56q22 2 24 24q-2 22 -24 24h-56v48h56q22 2 24 24q-2 22 -24 24h-56v40q2 22 24 24v0zM208 376q2 22 24 24h176q22 -2 24 -24v-264v-128h-64v64q-1 20 -14 34q-14 13 -34 14q-20 -1 -34 -14q-13 -14 -14 -34v-64h-64v392v0zM296 352v-24h-24
q-15 -1 -16 -16v-16q1 -15 16 -16h24v-24q1 -15 16 -16h16q15 1 16 16v24h24q15 1 16 16v16q-1 15 -16 16h-24v24q-1 15 -16 16h-16q-15 -1 -16 -16v0z" />
    <glyph glyph-name="uniF196" unicode="&#xf196;" horiz-adv-x="448" 
d="M64 368q-15 -1 -16 -16v-320q1 -15 16 -16h320q15 1 16 16v320q-1 15 -16 16h-320v0zM0 352q1 27 19 45v0q18 18 45 19h320q27 -1 45 -19t19 -45v-320q-1 -27 -19 -45t-45 -19h-320q-27 1 -45 19t-19 45v320v0zM200 104v64h-64q-22 2 -24 24q2 22 24 24h64v64q2 22 24 24
q22 -2 24 -24v-64h64q22 -2 24 -24q-2 -22 -24 -24h-64v-64q-2 -22 -24 -24q-22 2 -24 24v0z" />
    <glyph glyph-name="uniF196" unicode="&#xf0fe;" horiz-adv-x="448" 
d="M64 368q-15 -1 -16 -16v-320q1 -15 16 -16h320q15 1 16 16v320q-1 15 -16 16h-320v0zM0 352q1 27 19 45v0q18 18 45 19h320q27 -1 45 -19t19 -45v-320q-1 -27 -19 -45t-45 -19h-320q-27 1 -45 19t-19 45v320v0zM200 104v64h-64q-22 2 -24 24q2 22 24 24h64v64q2 22 24 24
q22 -2 24 -24v-64h64q22 -2 24 -24q-2 -22 -24 -24h-64v-64q-2 -22 -24 -24q-22 2 -24 24v0z" />
    <glyph glyph-name="u1F7E4" unicode="&#x1f7e4;" 
d="M464 192q0 57 -28 104v0q-27 47 -76 76q-49 28 -104 28t-104 -28q-49 -29 -76 -76q-28 -47 -28 -104t28 -104q27 -47 76 -76q49 -28 104 -28t104 28q49 29 76 76q28 47 28 104v0zM0 192q1 70 34 128v0q34 58 94 94q61 34 128 34t128 -34q60 -36 94 -94q33 -58 34 -128
q-1 -70 -34 -128q-34 -58 -94 -94q-61 -34 -128 -34t-128 34q-60 36 -94 94q-33 58 -34 128v0z" />
    <glyph glyph-name="u1F7E4" unicode="&#x1f7e3;" 
d="M464 192q0 57 -28 104v0q-27 47 -76 76q-49 28 -104 28t-104 -28q-49 -29 -76 -76q-28 -47 -28 -104t28 -104q27 -47 76 -76q49 -28 104 -28t104 28q49 29 76 76q28 47 28 104v0zM0 192q1 70 34 128v0q34 58 94 94q61 34 128 34t128 -34q60 -36 94 -94q33 -58 34 -128
q-1 -70 -34 -128q-34 -58 -94 -94q-61 -34 -128 -34t-128 34q-60 36 -94 94q-33 58 -34 128v0z" />
    <glyph glyph-name="u1F7E4" unicode="&#x1f7e2;" 
d="M464 192q0 57 -28 104v0q-27 47 -76 76q-49 28 -104 28t-104 -28q-49 -29 -76 -76q-28 -47 -28 -104t28 -104q27 -47 76 -76q49 -28 104 -28t104 28q49 29 76 76q28 47 28 104v0zM0 192q1 70 34 128v0q34 58 94 94q61 34 128 34t128 -34q60 -36 94 -94q33 -58 34 -128
q-1 -70 -34 -128q-34 -58 -94 -94q-61 -34 -128 -34t-128 34q-60 36 -94 94q-33 58 -34 128v0z" />
    <glyph glyph-name="u1F7E4" unicode="&#x1f7e1;" 
d="M464 192q0 57 -28 104v0q-27 47 -76 76q-49 28 -104 28t-104 -28q-49 -29 -76 -76q-28 -47 -28 -104t28 -104q27 -47 76 -76q49 -28 104 -28t104 28q49 29 76 76q28 47 28 104v0zM0 192q1 70 34 128v0q34 58 94 94q61 34 128 34t128 -34q60 -36 94 -94q33 -58 34 -128
q-1 -70 -34 -128q-34 -58 -94 -94q-61 -34 -128 -34t-128 34q-60 36 -94 94q-33 58 -34 128v0z" />
    <glyph glyph-name="u1F7E4" unicode="&#x1f7e0;" 
d="M464 192q0 57 -28 104v0q-27 47 -76 76q-49 28 -104 28t-104 -28q-49 -29 -76 -76q-28 -47 -28 -104t28 -104q27 -47 76 -76q49 -28 104 -28t104 28q49 29 76 76q28 47 28 104v0zM0 192q1 70 34 128v0q34 58 94 94q61 34 128 34t128 -34q60 -36 94 -94q33 -58 34 -128
q-1 -70 -34 -128q-34 -58 -94 -94q-61 -34 -128 -34t-128 34q-60 36 -94 94q-33 58 -34 128v0z" />
    <glyph glyph-name="u1F7E4" unicode="&#x1f535;" 
d="M464 192q0 57 -28 104v0q-27 47 -76 76q-49 28 -104 28t-104 -28q-49 -29 -76 -76q-28 -47 -28 -104t28 -104q27 -47 76 -76q49 -28 104 -28t104 28q49 29 76 76q28 47 28 104v0zM0 192q1 70 34 128v0q34 58 94 94q61 34 128 34t128 -34q60 -36 94 -94q33 -58 34 -128
q-1 -70 -34 -128q-34 -58 -94 -94q-61 -34 -128 -34t-128 34q-60 36 -94 94q-33 58 -34 128v0z" />
    <glyph glyph-name="u1F7E4" unicode="&#x1f534;" 
d="M464 192q0 57 -28 104v0q-27 47 -76 76q-49 28 -104 28t-104 -28q-49 -29 -76 -76q-28 -47 -28 -104t28 -104q27 -47 76 -76q49 -28 104 -28t104 28q49 29 76 76q28 47 28 104v0zM0 192q1 70 34 128v0q34 58 94 94q61 34 128 34t128 -34q60 -36 94 -94q33 -58 34 -128
q-1 -70 -34 -128q-34 -58 -94 -94q-61 -34 -128 -34t-128 34q-60 36 -94 94q-33 58 -34 128v0z" />
    <glyph glyph-name="u1F7E4" unicode="&#xf1db;" 
d="M464 192q0 57 -28 104v0q-27 47 -76 76q-49 28 -104 28t-104 -28q-49 -29 -76 -76q-28 -47 -28 -104t28 -104q27 -47 76 -76q49 -28 104 -28t104 28q49 29 76 76q28 47 28 104v0zM0 192q1 70 34 128v0q34 58 94 94q61 34 128 34t128 -34q60 -36 94 -94q33 -58 34 -128
q-1 -70 -34 -128q-34 -58 -94 -94q-61 -34 -128 -34t-128 34q-60 36 -94 94q-33 58 -34 128v0z" />
    <glyph glyph-name="u1F7E4" unicode="&#xf111;" 
d="M464 192q0 57 -28 104v0q-27 47 -76 76q-49 28 -104 28t-104 -28q-49 -29 -76 -76q-28 -47 -28 -104t28 -104q27 -47 76 -76q49 -28 104 -28t104 28q49 29 76 76q28 47 28 104v0zM0 192q1 70 34 128v0q34 58 94 94q61 34 128 34t128 -34q60 -36 94 -94q33 -58 34 -128
q-1 -70 -34 -128q-34 -58 -94 -94q-61 -34 -128 -34t-128 34q-60 36 -94 94q-33 58 -34 128v0z" />
    <glyph glyph-name="u1F7E4" unicode="&#xf10c;" 
d="M464 192q0 57 -28 104v0q-27 47 -76 76q-49 28 -104 28t-104 -28q-49 -29 -76 -76q-28 -47 -28 -104t28 -104q27 -47 76 -76q49 -28 104 -28t104 28q49 29 76 76q28 47 28 104v0zM0 192q1 70 34 128v0q34 58 94 94q61 34 128 34t128 -34q60 -36 94 -94q33 -58 34 -128
q-1 -70 -34 -128q-34 -58 -94 -94q-61 -34 -128 -34t-128 34q-60 36 -94 94q-33 58 -34 128v0z" />
    <glyph glyph-name="u1F7E4" unicode="&#x2b24;" 
d="M464 192q0 57 -28 104v0q-27 47 -76 76q-49 28 -104 28t-104 -28q-49 -29 -76 -76q-28 -47 -28 -104t28 -104q27 -47 76 -76q49 -28 104 -28t104 28q49 29 76 76q28 47 28 104v0zM0 192q1 70 34 128v0q34 58 94 94q61 34 128 34t128 -34q60 -36 94 -94q33 -58 34 -128
q-1 -70 -34 -128q-34 -58 -94 -94q-61 -34 -128 -34t-128 34q-60 36 -94 94q-33 58 -34 128v0z" />
    <glyph glyph-name="u1F7E4" unicode="&#x26ab;" 
d="M464 192q0 57 -28 104v0q-27 47 -76 76q-49 28 -104 28t-104 -28q-49 -29 -76 -76q-28 -47 -28 -104t28 -104q27 -47 76 -76q49 -28 104 -28t104 28q49 29 76 76q28 47 28 104v0zM0 192q1 70 34 128v0q34 58 94 94q61 34 128 34t128 -34q60 -36 94 -94q33 -58 34 -128
q-1 -70 -34 -128q-34 -58 -94 -94q-61 -34 -128 -34t-128 34q-60 36 -94 94q-33 58 -34 128v0z" />
    <glyph glyph-name="u1F7E4" unicode="&#x26aa;" 
d="M464 192q0 57 -28 104v0q-27 47 -76 76q-49 28 -104 28t-104 -28q-49 -29 -76 -76q-28 -47 -28 -104t28 -104q27 -47 76 -76q49 -28 104 -28t104 28q49 29 76 76q28 47 28 104v0zM0 192q1 70 34 128v0q34 58 94 94q61 34 128 34t128 -34q60 -36 94 -94q33 -58 34 -128
q-1 -70 -34 -128q-34 -58 -94 -94q-61 -34 -128 -34t-128 34q-60 36 -94 94q-33 58 -34 128v0z" />
    <glyph glyph-name="u1F7E4" unicode="&#x25cf;" 
d="M464 192q0 57 -28 104v0q-27 47 -76 76q-49 28 -104 28t-104 -28q-49 -29 -76 -76q-28 -47 -28 -104t28 -104q27 -47 76 -76q49 -28 104 -28t104 28q49 29 76 76q28 47 28 104v0zM0 192q1 70 34 128v0q34 58 94 94q61 34 128 34t128 -34q60 -36 94 -94q33 -58 34 -128
q-1 -70 -34 -128q-34 -58 -94 -94q-61 -34 -128 -34t-128 34q-60 36 -94 94q-33 58 -34 128v0z" />
    <glyph glyph-name="u1F642" unicode="&#x1f642;" 
d="M464 192q0 57 -28 104v0q-27 47 -76 76q-49 28 -104 28t-104 -28q-49 -29 -76 -76q-28 -47 -28 -104t28 -104q27 -47 76 -76q49 -28 104 -28t104 28q49 29 76 76q28 47 28 104v0zM0 192q1 70 34 128v0q34 58 94 94q61 34 128 34t128 -34q60 -36 94 -94q33 -58 34 -128
q-1 -70 -34 -128q-34 -58 -94 -94q-61 -34 -128 -34t-128 34q-60 36 -94 94q-33 58 -34 128v0zM178 130q11 -13 31 -23v0q19 -10 47 -11q28 1 47 11q20 10 31 23q17 15 34 1q15 -16 2 -34q-17 -18 -45 -33q-29 -15 -69 -16q-40 1 -69 16q-28 15 -45 33q-13 18 2 34
q17 14 34 -1v0zM144 240q1 14 10 23v0q9 9 22 9q14 0 23 -9t9 -23t-9 -23t-23 -9q-13 0 -22 9t-10 23v0zM336 272q14 0 23 -9v0q9 -9 9 -23t-9 -23t-23 -9q-13 0 -22 9t-10 23q1 14 10 23t22 9v0z" />
    <glyph glyph-name="u1F642" unicode="&#xf118;" 
d="M464 192q0 57 -28 104v0q-27 47 -76 76q-49 28 -104 28t-104 -28q-49 -29 -76 -76q-28 -47 -28 -104t28 -104q27 -47 76 -76q49 -28 104 -28t104 28q49 29 76 76q28 47 28 104v0zM0 192q1 70 34 128v0q34 58 94 94q61 34 128 34t128 -34q60 -36 94 -94q33 -58 34 -128
q-1 -70 -34 -128q-34 -58 -94 -94q-61 -34 -128 -34t-128 34q-60 36 -94 94q-33 58 -34 128v0zM178 130q11 -13 31 -23v0q19 -10 47 -11q28 1 47 11q20 10 31 23q17 15 34 1q15 -16 2 -34q-17 -18 -45 -33q-29 -15 -69 -16q-40 1 -69 16q-28 15 -45 33q-13 18 2 34
q17 14 34 -1v0zM144 240q1 14 10 23v0q9 9 22 9q14 0 23 -9t9 -23t-9 -23t-23 -9q-13 0 -22 9t-10 23v0zM336 272q14 0 23 -9v0q9 -9 9 -23t-9 -23t-23 -9q-13 0 -22 9t-10 23q1 14 10 23t22 9v0z" />
    <glyph glyph-name="uniF119" unicode="&#xf119;" 
d="M464 192q0 57 -28 104v0q-27 47 -76 76q-49 28 -104 28t-104 -28q-49 -29 -76 -76q-28 -47 -28 -104t28 -104q27 -47 76 -76q49 -28 104 -28t104 28q49 29 76 76q28 47 28 104v0zM0 192q1 70 34 128v0q34 58 94 94q61 34 128 34t128 -34q60 -36 94 -94q33 -58 34 -128
q-1 -70 -34 -128q-34 -58 -94 -94q-61 -34 -128 -34t-128 34q-60 36 -94 94q-33 58 -34 128v0zM175 64q-10 -20 -31 -15q-20 10 -14 31q13 37 48 58q34 22 78 22t78 -22q35 -21 49 -58q5 -21 -15 -31q-21 -5 -30 15q-8 20 -29 34q-22 13 -53 14q-31 -1 -53 -14
q-21 -14 -28 -34v0zM144 240q1 14 10 23v0q9 9 22 9q14 0 23 -9t9 -23t-9 -23t-23 -9q-13 0 -22 9t-10 23v0zM336 272q14 0 23 -9v0q9 -9 9 -23t-9 -23t-23 -9q-13 0 -22 9t-10 23q1 14 10 23t22 9v0z" />
    <glyph glyph-name="uniF119" unicode="&#x2639;" 
d="M464 192q0 57 -28 104v0q-27 47 -76 76q-49 28 -104 28t-104 -28q-49 -29 -76 -76q-28 -47 -28 -104t28 -104q27 -47 76 -76q49 -28 104 -28t104 28q49 29 76 76q28 47 28 104v0zM0 192q1 70 34 128v0q34 58 94 94q61 34 128 34t128 -34q60 -36 94 -94q33 -58 34 -128
q-1 -70 -34 -128q-34 -58 -94 -94q-61 -34 -128 -34t-128 34q-60 36 -94 94q-33 58 -34 128v0zM175 64q-10 -20 -31 -15q-20 10 -14 31q13 37 48 58q34 22 78 22t78 -22q35 -21 49 -58q5 -21 -15 -31q-21 -5 -30 15q-8 20 -29 34q-22 13 -53 14q-31 -1 -53 -14
q-21 -14 -28 -34v0zM144 240q1 14 10 23v0q9 9 22 9q14 0 23 -9t9 -23t-9 -23t-23 -9q-13 0 -22 9t-10 23v0zM336 272q14 0 23 -9v0q9 -9 9 -23t-9 -23t-23 -9q-13 0 -22 9t-10 23q1 14 10 23t22 9v0z" />
    <glyph glyph-name="u1F610" unicode="&#x1f610;" 
d="M464 192q0 -57 -28 -104v0q-27 -47 -76 -76q-49 -28 -104 -28t-104 28q-49 29 -76 76q-28 47 -28 104t28 104q27 47 76 76q49 28 104 28t104 -28q49 -29 76 -76q28 -47 28 -104v0zM256 448q-70 -1 -128 -34v0q-58 -34 -94 -94q-34 -61 -34 -128t34 -128q36 -60 94 -94
q58 -33 128 -34q70 1 128 34q58 34 94 94q34 61 34 128t-34 128q-36 60 -94 94q-58 33 -128 34v0zM176 208q14 0 23 9v0q9 9 9 23t-9 23t-23 9q-13 0 -22 -9t-10 -23q1 -14 10 -23t22 -9v0zM368 240q0 14 -9 23v0q-9 9 -23 9q-13 0 -22 -9t-10 -23q1 -14 10 -23t22 -9
q14 0 23 9t9 23v0zM184 120q-22 -2 -24 -24q2 -22 24 -24h144q22 2 24 24q-2 22 -24 24h-144v0z" />
    <glyph glyph-name="u1F610" unicode="&#xf11a;" 
d="M464 192q0 -57 -28 -104v0q-27 -47 -76 -76q-49 -28 -104 -28t-104 28q-49 29 -76 76q-28 47 -28 104t28 104q27 47 76 76q49 28 104 28t104 -28q49 -29 76 -76q28 -47 28 -104v0zM256 448q-70 -1 -128 -34v0q-58 -34 -94 -94q-34 -61 -34 -128t34 -128q36 -60 94 -94
q58 -33 128 -34q70 1 128 34q58 34 94 94q34 61 34 128t-34 128q-36 60 -94 94q-58 33 -128 34v0zM176 208q14 0 23 9v0q9 9 9 23t-9 23t-23 9q-13 0 -22 -9t-10 -23q1 -14 10 -23t22 -9v0zM368 240q0 14 -9 23v0q-9 9 -23 9q-13 0 -22 -9t-10 -23q1 -14 10 -23t22 -9
q14 0 23 9t9 23v0zM184 120q-22 -2 -24 -24q2 -22 24 -24h144q22 2 24 24q-2 22 -24 24h-144v0z" />
    <glyph glyph-name="uniF11C" unicode="&#xf11c;" horiz-adv-x="576" 
d="M64 336q-15 -1 -16 -16v-256q1 -15 16 -16h448q15 1 16 16v256q-1 15 -16 16h-448v0zM0 320q1 27 19 45v0q18 18 45 19h448q27 -1 45 -19t19 -45v-256q-1 -27 -19 -45t-45 -19h-448q-27 1 -45 19t-19 45v256v0zM176 128h224q15 -1 16 -16v-16q-1 -15 -16 -16h-224
q-15 1 -16 16v16q1 15 16 16v0zM104 200q1 15 16 16h16q15 -1 16 -16v-16q-1 -15 -16 -16h-16q-15 1 -16 16v16v0zM120 296h16q15 -1 16 -16v-16q-1 -15 -16 -16h-16q-15 1 -16 16v16q1 15 16 16v0zM184 200q1 15 16 16h16q15 -1 16 -16v-16q-1 -15 -16 -16h-16
q-15 1 -16 16v16v0zM200 296h16q15 -1 16 -16v-16q-1 -15 -16 -16h-16q-15 1 -16 16v16q1 15 16 16v0zM264 200q1 15 16 16h16q15 -1 16 -16v-16q-1 -15 -16 -16h-16q-15 1 -16 16v16v0zM280 296h16q15 -1 16 -16v-16q-1 -15 -16 -16h-16q-15 1 -16 16v16q1 15 16 16v0z
M344 200q1 15 16 16h16q15 -1 16 -16v-16q-1 -15 -16 -16h-16q-15 1 -16 16v16v0zM360 296h16q15 -1 16 -16v-16q-1 -15 -16 -16h-16q-15 1 -16 16v16q1 15 16 16v0zM424 200q1 15 16 16h16q15 -1 16 -16v-16q-1 -15 -16 -16h-16q-15 1 -16 16v16v0zM440 296h16
q15 -1 16 -16v-16q-1 -15 -16 -16h-16q-15 1 -16 16v16q1 15 16 16v0z" />
    <glyph glyph-name="uniF11C" unicode="&#x2328;" horiz-adv-x="576" 
d="M64 336q-15 -1 -16 -16v-256q1 -15 16 -16h448q15 1 16 16v256q-1 15 -16 16h-448v0zM0 320q1 27 19 45v0q18 18 45 19h448q27 -1 45 -19t19 -45v-256q-1 -27 -19 -45t-45 -19h-448q-27 1 -45 19t-19 45v256v0zM176 128h224q15 -1 16 -16v-16q-1 -15 -16 -16h-224
q-15 1 -16 16v16q1 15 16 16v0zM104 200q1 15 16 16h16q15 -1 16 -16v-16q-1 -15 -16 -16h-16q-15 1 -16 16v16v0zM120 296h16q15 -1 16 -16v-16q-1 -15 -16 -16h-16q-15 1 -16 16v16q1 15 16 16v0zM184 200q1 15 16 16h16q15 -1 16 -16v-16q-1 -15 -16 -16h-16
q-15 1 -16 16v16v0zM200 296h16q15 -1 16 -16v-16q-1 -15 -16 -16h-16q-15 1 -16 16v16q1 15 16 16v0zM264 200q1 15 16 16h16q15 -1 16 -16v-16q-1 -15 -16 -16h-16q-15 1 -16 16v16v0zM280 296h16q15 -1 16 -16v-16q-1 -15 -16 -16h-16q-15 1 -16 16v16q1 15 16 16v0z
M344 200q1 15 16 16h16q15 -1 16 -16v-16q-1 -15 -16 -16h-16q-15 1 -16 16v16v0zM360 296h16q15 -1 16 -16v-16q-1 -15 -16 -16h-16q-15 1 -16 16v16q1 15 16 16v0zM424 200q1 15 16 16h16q15 -1 16 -16v-16q-1 -15 -16 -16h-16q-15 1 -16 16v16v0zM440 296h16
q15 -1 16 -16v-16q-1 -15 -16 -16h-16q-15 1 -16 16v16q1 15 16 16v0z" />
    <glyph glyph-name="u1F4C6" unicode="&#x1f4c6;" horiz-adv-x="448" 
d="M152 424q-2 22 -24 24q-22 -2 -24 -24v-40h-40q-27 -1 -45 -19t-19 -45v-16v-48v-256q1 -27 19 -45t45 -19h320q27 1 45 19t19 45v256v48v16q-1 27 -19 45t-45 19h-40v40q-2 22 -24 24q-22 -2 -24 -24v-40h-144v40v0zM48 256h352v-256q-1 -15 -16 -16h-320q-15 1 -16 16
v256v0z" />
    <glyph glyph-name="u1F4C6" unicode="&#x1f4c5;" horiz-adv-x="448" 
d="M152 424q-2 22 -24 24q-22 -2 -24 -24v-40h-40q-27 -1 -45 -19t-19 -45v-16v-48v-256q1 -27 19 -45t45 -19h320q27 1 45 19t19 45v256v48v16q-1 27 -19 45t-45 19h-40v40q-2 22 -24 24q-22 -2 -24 -24v-40h-144v40v0zM48 256h352v-256q-1 -15 -16 -16h-320q-15 1 -16 16
v256v0z" />
    <glyph glyph-name="u1F4C6" unicode="&#xf133;" horiz-adv-x="448" 
d="M152 424q-2 22 -24 24q-22 -2 -24 -24v-40h-40q-27 -1 -45 -19t-19 -45v-16v-48v-256q1 -27 19 -45t45 -19h320q27 1 45 19t19 45v256v48v16q-1 27 -19 45t-45 19h-40v40q-2 22 -24 24q-22 -2 -24 -24v-40h-144v40v0zM48 256h352v-256q-1 -15 -16 -16h-320q-15 1 -16 16
v256v0z" />
    <glyph glyph-name="uniF144" unicode="&#xf144;" 
d="M464 192q0 57 -28 104v0q-27 47 -76 76q-49 28 -104 28t-104 -28q-49 -29 -76 -76q-28 -47 -28 -104t28 -104q27 -47 76 -76q49 -28 104 -28t104 28q49 29 76 76q28 47 28 104v0zM0 192q1 70 34 128v0q34 58 94 94q61 34 128 34t128 -34q60 -36 94 -94q33 -58 34 -128
q-1 -70 -34 -128q-34 -58 -94 -94q-61 -34 -128 -34t-128 34q-60 36 -94 94q-33 58 -34 128v0zM188 301q13 6 25 -1l144 -88q11 -7 11 -20t-11 -21l-144 -88q-12 -6 -25 0q-12 7 -12 21v176q0 14 12 21v0z" />
    <glyph glyph-name="uniF144" unicode="&#xf01d;" 
d="M464 192q0 57 -28 104v0q-27 47 -76 76q-49 28 -104 28t-104 -28q-49 -29 -76 -76q-28 -47 -28 -104t28 -104q27 -47 76 -76q49 -28 104 -28t104 28q49 29 76 76q28 47 28 104v0zM0 192q1 70 34 128v0q34 58 94 94q61 34 128 34t128 -34q60 -36 94 -94q33 -58 34 -128
q-1 -70 -34 -128q-34 -58 -94 -94q-61 -34 -128 -34t-128 34q-60 36 -94 94q-33 58 -34 128v0zM188 301q13 6 25 -1l144 -88q11 -7 11 -20t-11 -21l-144 -88q-12 -6 -25 0q-12 7 -12 21v176q0 14 12 21v0z" />
    <glyph glyph-name="uniF147" unicode="&#xf147;" horiz-adv-x="448" 
d="M64 368q-15 -1 -16 -16v-320q1 -15 16 -16h320q15 1 16 16v320q-1 15 -16 16h-320v0zM0 352q1 27 19 45v0q18 18 45 19h320q27 -1 45 -19t19 -45v-320q-1 -27 -19 -45t-45 -19h-320q-27 1 -45 19t-19 45v320v0zM152 216h144q22 -2 24 -24q-2 -22 -24 -24h-144
q-22 2 -24 24q2 22 24 24v0z" />
    <glyph glyph-name="uniF147" unicode="&#xf146;" horiz-adv-x="448" 
d="M64 368q-15 -1 -16 -16v-320q1 -15 16 -16h320q15 1 16 16v320q-1 15 -16 16h-320v0zM0 352q1 27 19 45v0q18 18 45 19h320q27 -1 45 -19t19 -45v-320q-1 -27 -19 -45t-45 -19h-320q-27 1 -45 19t-19 45v320v0zM152 216h144q22 -2 24 -24q-2 -22 -24 -24h-144
q-22 2 -24 24q2 22 24 24v0z" />
    <glyph glyph-name="uniF14A" unicode="&#xf14a;" horiz-adv-x="448" 
d="M64 368q-15 -1 -16 -16v-320q1 -15 16 -16h320q15 1 16 16v320q-1 15 -16 16h-320v0zM0 352q1 27 19 45v0q18 18 45 19h320q27 -1 45 -19t19 -45v-320q-1 -27 -19 -45t-45 -19h-320q-27 1 -45 19t-19 45v320v0zM337 239l-128 -128q-17 -14 -34 0l-64 64q-14 17 0 34
q17 14 34 0l47 -47l111 111q17 14 34 0q14 -17 0 -34v0z" />
    <glyph glyph-name="uniF14A" unicode="&#xf046;" horiz-adv-x="448" 
d="M64 368q-15 -1 -16 -16v-320q1 -15 16 -16h320q15 1 16 16v320q-1 15 -16 16h-320v0zM0 352q1 27 19 45v0q18 18 45 19h320q27 -1 45 -19t19 -45v-320q-1 -27 -19 -45t-45 -19h-320q-27 1 -45 19t-19 45v320v0zM337 239l-128 -128q-17 -14 -34 0l-64 64q-14 17 0 34
q17 14 34 0l47 -47l111 111q17 14 34 0q14 -17 0 -34v0z" />
    <glyph glyph-name="uniF14A" unicode="&#x2705;" horiz-adv-x="448" 
d="M64 368q-15 -1 -16 -16v-320q1 -15 16 -16h320q15 1 16 16v320q-1 15 -16 16h-320v0zM0 352q1 27 19 45v0q18 18 45 19h320q27 -1 45 -19t19 -45v-320q-1 -27 -19 -45t-45 -19h-320q-27 1 -45 19t-19 45v320v0zM337 239l-128 -128q-17 -14 -34 0l-64 64q-14 17 0 34
q17 14 34 0l47 -47l111 111q17 14 34 0q14 -17 0 -34v0z" />
    <glyph glyph-name="uniF14A" unicode="&#x2611;" horiz-adv-x="448" 
d="M64 368q-15 -1 -16 -16v-320q1 -15 16 -16h320q15 1 16 16v320q-1 15 -16 16h-320v0zM0 352q1 27 19 45v0q18 18 45 19h320q27 -1 45 -19t19 -45v-320q-1 -27 -19 -45t-45 -19h-320q-27 1 -45 19t-19 45v320v0zM337 239l-128 -128q-17 -14 -34 0l-64 64q-14 17 0 34
q17 14 34 0l47 -47l111 111q17 14 34 0q14 -17 0 -34v0z" />
    <glyph glyph-name="uniF14D" unicode="&#xf14d;" horiz-adv-x="576" 
d="M400 193v15v32q-1 15 -16 16h-32h-16h-46q-39 -1 -68 -23q-29 -21 -41 -57q-5 14 -5 32q1 48 33 79q31 32 79 33h48h16h32q15 1 16 16v32v15l106 -95l-106 -95v0zM336 208h16v-48q0 -14 9 -23t23 -9h4q12 0 21 8l139 125q12 11 12 27t-12 27l-138 124q-10 9 -23 9
q-15 0 -25 -10t-10 -25v-45h-16h-32h-16q-68 -2 -113 -47t-47 -113q1 -45 21 -75t43 -46q9 -6 17 -11q6 -4 11 -7q6 -2 9 -4q3 -1 7 -1h2q17 2 18 18q-1 12 -12 19v0v1h-1q-2 2 -5 4v1l-2 2l-1 1l-2 2q-2 3 -5 8q-4 9 -4 23q1 27 19 46q19 18 47 19h14h32v0zM72 416
q-31 -1 -51 -21v0q-20 -20 -21 -51v-336q1 -31 21 -51t51 -21h336q31 1 51 21t21 51v64q-2 22 -24 24q-22 -2 -24 -24v-64q-2 -22 -24 -24h-336q-22 2 -24 24v336q2 22 24 24h64q22 2 24 24q-2 22 -24 24h-64v0z" />
    <glyph glyph-name="uniF14D" unicode="&#xf045;" horiz-adv-x="576" 
d="M400 193v15v32q-1 15 -16 16h-32h-16h-46q-39 -1 -68 -23q-29 -21 -41 -57q-5 14 -5 32q1 48 33 79q31 32 79 33h48h16h32q15 1 16 16v32v15l106 -95l-106 -95v0zM336 208h16v-48q0 -14 9 -23t23 -9h4q12 0 21 8l139 125q12 11 12 27t-12 27l-138 124q-10 9 -23 9
q-15 0 -25 -10t-10 -25v-45h-16h-32h-16q-68 -2 -113 -47t-47 -113q1 -45 21 -75t43 -46q9 -6 17 -11q6 -4 11 -7q6 -2 9 -4q3 -1 7 -1h2q17 2 18 18q-1 12 -12 19v0v1h-1q-2 2 -5 4v1l-2 2l-1 1l-2 2q-2 3 -5 8q-4 9 -4 23q1 27 19 46q19 18 47 19h14h32v0zM72 416
q-31 -1 -51 -21v0q-20 -20 -21 -51v-336q1 -31 21 -51t51 -21h336q31 1 51 21t21 51v64q-2 22 -24 24q-22 -2 -24 -24v-64q-2 -22 -24 -24h-336q-22 2 -24 24v336q2 22 24 24h64q22 2 24 24q-2 22 -24 24h-64v0z" />
    <glyph glyph-name="u1F9ED" unicode="&#x1f9ed;" 
d="M464 192q0 57 -28 104v0q-27 47 -76 76q-49 28 -104 28t-104 -28q-49 -29 -76 -76q-28 -47 -28 -104t28 -104q27 -47 76 -76q49 -28 104 -28t104 28q49 29 76 76q28 47 28 104v0zM0 192q1 70 34 128v0q34 58 94 94q61 34 128 34t128 -34q60 -36 94 -94q33 -58 34 -128
q-1 -70 -34 -128q-34 -58 -94 -94q-61 -34 -128 -34t-128 34q-60 36 -94 94q-33 58 -34 128v0zM307 123l-145 -56q-15 -4 -25 6t-6 25l56 145q5 13 18 18l145 56q15 4 25 -6t6 -25l-56 -145q-5 -13 -18 -18v0zM288 192q0 14 -9 23v0q-9 9 -23 9t-23 -9t-9 -23t9 -23t23 -9
t23 9t9 23v0z" />
    <glyph glyph-name="u1F9ED" unicode="&#xf14e;" 
d="M464 192q0 57 -28 104v0q-27 47 -76 76q-49 28 -104 28t-104 -28q-49 -29 -76 -76q-28 -47 -28 -104t28 -104q27 -47 76 -76q49 -28 104 -28t104 28q49 29 76 76q28 47 28 104v0zM0 192q1 70 34 128v0q34 58 94 94q61 34 128 34t128 -34q60 -36 94 -94q33 -58 34 -128
q-1 -70 -34 -128q-34 -58 -94 -94q-61 -34 -128 -34t-128 34q-60 36 -94 94q-33 58 -34 128v0zM307 123l-145 -56q-15 -4 -25 6t-6 25l56 145q5 13 18 18l145 56q15 4 25 -6t6 -25l-56 -145q-5 -13 -18 -18v0zM288 192q0 14 -9 23v0q-9 9 -23 9t-23 -9t-9 -23t9 -23t23 -9
t23 9t9 23v0z" />
    <glyph glyph-name="uniF150" unicode="&#xf150;" horiz-adv-x="448" 
d="M384 16q15 1 16 16v320q-1 15 -16 16h-320q-15 -1 -16 -16v-320q1 -15 16 -16h320v0zM448 32q-1 -27 -19 -45v0q-18 -18 -45 -19h-320q-27 1 -45 19t-19 45v320q1 27 19 45t45 19h320q27 -1 45 -19t19 -45v-320v0zM224 96q-10 0 -18 8l-104 112q-10 11 -4 26q7 13 22 14
h208q15 -1 22 -14q6 -15 -4 -26l-104 -112q-8 -8 -18 -8v0z" />
    <glyph glyph-name="uniF151" unicode="&#xf151;" horiz-adv-x="448" 
d="M64 368q-15 -1 -16 -16v-320q1 -15 16 -16h320q15 1 16 16v320q-1 15 -16 16h-320v0zM0 352q1 27 19 45v0q18 18 45 19h320q27 -1 45 -19t19 -45v-320q-1 -27 -19 -45t-45 -19h-320q-27 1 -45 19t-19 45v320v0zM224 288q10 0 18 -8l104 -112q10 -11 4 -26q-7 -13 -22 -14
h-208q-15 1 -22 14q-6 15 4 26l104 112q8 8 18 8v0z" />
    <glyph glyph-name="uniF152" unicode="&#xf152;" horiz-adv-x="448" 
d="M400 352q-1 15 -16 16h-320q-15 -1 -16 -16v-320q1 -15 16 -16h320q15 1 16 16v320v0zM384 416q27 -1 45 -19v0q18 -18 19 -45v-320q-1 -27 -19 -45t-45 -19h-320q-27 1 -45 19t-19 45v320q1 27 19 45t45 19h320v0zM320 192q0 -10 -8 -18l-112 -104q-11 -10 -26 -4
q-13 7 -14 22v208q1 15 14 22q15 6 26 -4l112 -104q8 -8 8 -18v0z" />
    <glyph glyph-name="u1F5CB" unicode="&#x1f5cb;" horiz-adv-x="384" 
d="M320 -16q15 1 16 16v288h-80q-14 0 -23 9t-9 23v80h-160q-15 -1 -16 -16v-384q1 -15 16 -16h256v0zM0 384q1 27 19 45v0q18 18 45 19h166q26 0 45 -19l90 -90q19 -19 19 -46v-293q-1 -27 -19 -45t-45 -19h-256q-27 1 -45 19t-19 45v384v0z" />
    <glyph glyph-name="u1F5CB" unicode="&#x1f4c4;" horiz-adv-x="384" 
d="M320 -16q15 1 16 16v288h-80q-14 0 -23 9t-9 23v80h-160q-15 -1 -16 -16v-384q1 -15 16 -16h256v0zM0 384q1 27 19 45v0q18 18 45 19h166q26 0 45 -19l90 -90q19 -19 19 -46v-293q-1 -27 -19 -45t-45 -19h-256q-27 1 -45 19t-19 45v384v0z" />
    <glyph glyph-name="u1F5CB" unicode="&#xf15b;" horiz-adv-x="384" 
d="M320 -16q15 1 16 16v288h-80q-14 0 -23 9t-9 23v80h-160q-15 -1 -16 -16v-384q1 -15 16 -16h256v0zM0 384q1 27 19 45v0q18 18 45 19h166q26 0 45 -19l90 -90q19 -19 19 -46v-293q-1 -27 -19 -45t-45 -19h-256q-27 1 -45 19t-19 45v384v0z" />
    <glyph glyph-name="u1F5CB" unicode="&#xf016;" horiz-adv-x="384" 
d="M320 -16q15 1 16 16v288h-80q-14 0 -23 9t-9 23v80h-160q-15 -1 -16 -16v-384q1 -15 16 -16h256v0zM0 384q1 27 19 45v0q18 18 45 19h166q26 0 45 -19l90 -90q19 -19 19 -46v-293q-1 -27 -19 -45t-45 -19h-256q-27 1 -45 19t-19 45v384v0z" />
    <glyph glyph-name="u1F5CE" unicode="&#x1f5ce;" horiz-adv-x="384" 
d="M64 -16q-15 1 -16 16v384q1 15 16 16h160v-80q0 -14 9 -23t23 -9h80v-288q-1 -15 -16 -16h-256v0zM64 448q-27 -1 -45 -19v0q-18 -18 -19 -45v-384q1 -27 19 -45t45 -19h256q27 1 45 19t19 45v293q0 27 -19 46l-90 90q-19 19 -45 19h-166v0zM120 192q-22 -2 -24 -24
q2 -22 24 -24h144q22 2 24 24q-2 22 -24 24h-144v0zM120 96q-22 -2 -24 -24q2 -22 24 -24h144q22 2 24 24q-2 22 -24 24h-144v0z" />
    <glyph glyph-name="u1F5CE" unicode="&#x1f5b9;" horiz-adv-x="384" 
d="M64 -16q-15 1 -16 16v384q1 15 16 16h160v-80q0 -14 9 -23t23 -9h80v-288q-1 -15 -16 -16h-256v0zM64 448q-27 -1 -45 -19v0q-18 -18 -19 -45v-384q1 -27 19 -45t45 -19h256q27 1 45 19t19 45v293q0 27 -19 46l-90 90q-19 19 -45 19h-166v0zM120 192q-22 -2 -24 -24
q2 -22 24 -24h144q22 2 24 24q-2 22 -24 24h-144v0zM120 96q-22 -2 -24 -24q2 -22 24 -24h144q22 2 24 24q-2 22 -24 24h-144v0z" />
    <glyph glyph-name="u1F5CE" unicode="&#xf15c;" horiz-adv-x="384" 
d="M64 -16q-15 1 -16 16v384q1 15 16 16h160v-80q0 -14 9 -23t23 -9h80v-288q-1 -15 -16 -16h-256v0zM64 448q-27 -1 -45 -19v0q-18 -18 -19 -45v-384q1 -27 19 -45t45 -19h256q27 1 45 19t19 45v293q0 27 -19 46l-90 90q-19 19 -45 19h-166v0zM120 192q-22 -2 -24 -24
q2 -22 24 -24h144q22 2 24 24q-2 22 -24 24h-144v0zM120 96q-22 -2 -24 -24q2 -22 24 -24h144q22 2 24 24q-2 22 -24 24h-144v0z" />
    <glyph glyph-name="u1F5CE" unicode="&#xf0f6;" horiz-adv-x="384" 
d="M64 -16q-15 1 -16 16v384q1 15 16 16h160v-80q0 -14 9 -23t23 -9h80v-288q-1 -15 -16 -16h-256v0zM64 448q-27 -1 -45 -19v0q-18 -18 -19 -45v-384q1 -27 19 -45t45 -19h256q27 1 45 19t19 45v293q0 27 -19 46l-90 90q-19 19 -45 19h-166v0zM120 192q-22 -2 -24 -24
q2 -22 24 -24h144q22 2 24 24q-2 22 -24 24h-144v0zM120 96q-22 -2 -24 -24q2 -22 24 -24h144q22 2 24 24q-2 22 -24 24h-144v0z" />
    <glyph glyph-name="u1F44D" unicode="&#x1f44d;" 
d="M324 413q-30 8 -55 -6v0q-25 -14 -34 -43l-6 -20q-6 -20 -19 -35l-52 -57q-13 -17 2 -34q18 -13 34 2l51 56q21 24 30 55l6 20q8 20 30 16q20 -8 16 -30l-6 -20q-8 -30 -26 -55q-8 -12 -2 -25q7 -13 21 -13h134q15 -1 16 -16q-1 -11 -10 -15q-12 -5 -15 -17t5 -21
q4 -5 4 -11q-1 -13 -13 -16q-13 -3 -18 -15q-4 -12 4 -23q3 -4 3 -10q-1 -11 -10 -15q-19 -9 -15 -29q1 -2 1 -4q-1 -15 -16 -16h-97q-20 0 -36 11l-62 41q-19 10 -33 -7q-11 -19 7 -33l61 -41q29 -19 63 -19h97q27 1 45 18t19 44q23 18 24 50q0 7 -1 13q24 19 25 51
q0 10 -3 19q18 18 19 45q-1 27 -19 45t-45 19h-92q7 16 12 32l5 20q8 30 -6 55t-43 34v0zM32 256q-14 0 -23 -9v0q-9 -9 -9 -23v-224q0 -14 9 -23t23 -9h64q14 0 23 9t9 23v224q0 14 -9 23t-23 9h-64v0z" />
    <glyph glyph-name="u1F44D" unicode="&#xf164;" 
d="M324 413q-30 8 -55 -6v0q-25 -14 -34 -43l-6 -20q-6 -20 -19 -35l-52 -57q-13 -17 2 -34q18 -13 34 2l51 56q21 24 30 55l6 20q8 20 30 16q20 -8 16 -30l-6 -20q-8 -30 -26 -55q-8 -12 -2 -25q7 -13 21 -13h134q15 -1 16 -16q-1 -11 -10 -15q-12 -5 -15 -17t5 -21
q4 -5 4 -11q-1 -13 -13 -16q-13 -3 -18 -15q-4 -12 4 -23q3 -4 3 -10q-1 -11 -10 -15q-19 -9 -15 -29q1 -2 1 -4q-1 -15 -16 -16h-97q-20 0 -36 11l-62 41q-19 10 -33 -7q-11 -19 7 -33l61 -41q29 -19 63 -19h97q27 1 45 18t19 44q23 18 24 50q0 7 -1 13q24 19 25 51
q0 10 -3 19q18 18 19 45q-1 27 -19 45t-45 19h-92q7 16 12 32l5 20q8 30 -6 55t-43 34v0zM32 256q-14 0 -23 -9v0q-9 -9 -9 -23v-224q0 -14 9 -23t23 -9h64q14 0 23 9t9 23v224q0 14 -9 23t-23 9h-64v0z" />
    <glyph glyph-name="u1F44D" unicode="&#xf087;" 
d="M324 413q-30 8 -55 -6v0q-25 -14 -34 -43l-6 -20q-6 -20 -19 -35l-52 -57q-13 -17 2 -34q18 -13 34 2l51 56q21 24 30 55l6 20q8 20 30 16q20 -8 16 -30l-6 -20q-8 -30 -26 -55q-8 -12 -2 -25q7 -13 21 -13h134q15 -1 16 -16q-1 -11 -10 -15q-12 -5 -15 -17t5 -21
q4 -5 4 -11q-1 -13 -13 -16q-13 -3 -18 -15q-4 -12 4 -23q3 -4 3 -10q-1 -11 -10 -15q-19 -9 -15 -29q1 -2 1 -4q-1 -15 -16 -16h-97q-20 0 -36 11l-62 41q-19 10 -33 -7q-11 -19 7 -33l61 -41q29 -19 63 -19h97q27 1 45 18t19 44q23 18 24 50q0 7 -1 13q24 19 25 51
q0 10 -3 19q18 18 19 45q-1 27 -19 45t-45 19h-92q7 16 12 32l5 20q8 30 -6 55t-43 34v0zM32 256q-14 0 -23 -9v0q-9 -9 -9 -23v-224q0 -14 9 -23t23 -9h64q14 0 23 9t9 23v224q0 14 -9 23t-23 9h-64v0z" />
    <glyph glyph-name="u1F44E" unicode="&#x1f44e;" 
d="M324 -29q-30 -8 -55 6v0q-25 14 -34 43l-6 20q-6 20 -19 35l-52 57q-13 17 2 33q18 14 34 -1l51 -57q21 -23 30 -54l6 -20q8 -20 30 -16q20 8 16 30l-6 20q-8 30 -26 55q-8 12 -2 25q7 12 21 13h134q15 1 16 16q-1 11 -10 15q-12 5 -15 17t5 21q4 5 4 11q-1 13 -13 16
q-13 3 -18 15q-4 13 4 23q3 4 3 10q-1 11 -10 15q-19 9 -15 29q1 2 1 4q-1 15 -16 16h-97q-20 0 -36 -11l-62 -41q-19 -10 -33 7q-11 19 7 33l61 41q29 19 63 19h97q27 0 45 -18q18 -17 19 -44q23 -18 24 -50q0 -7 -1 -13q24 -18 25 -51q0 -10 -3 -19q18 -18 19 -45
q-1 -27 -19 -45t-45 -19h-92q7 -16 12 -32l5 -20q8 -30 -6 -55t-43 -34v0zM32 64q-14 0 -23 9v0q-9 9 -9 23v224q0 14 9 23t23 9h64q14 0 23 -9t9 -23v-224q0 -14 -9 -23t-23 -9h-64v0z" />
    <glyph glyph-name="u1F44E" unicode="&#xf165;" 
d="M324 -29q-30 -8 -55 6v0q-25 14 -34 43l-6 20q-6 20 -19 35l-52 57q-13 17 2 33q18 14 34 -1l51 -57q21 -23 30 -54l6 -20q8 -20 30 -16q20 8 16 30l-6 20q-8 30 -26 55q-8 12 -2 25q7 12 21 13h134q15 1 16 16q-1 11 -10 15q-12 5 -15 17t5 21q4 5 4 11q-1 13 -13 16
q-13 3 -18 15q-4 13 4 23q3 4 3 10q-1 11 -10 15q-19 9 -15 29q1 2 1 4q-1 15 -16 16h-97q-20 0 -36 -11l-62 -41q-19 -10 -33 7q-11 19 7 33l61 41q29 19 63 19h97q27 0 45 -18q18 -17 19 -44q23 -18 24 -50q0 -7 -1 -13q24 -18 25 -51q0 -10 -3 -19q18 -18 19 -45
q-1 -27 -19 -45t-45 -19h-92q7 -16 12 -32l5 -20q8 -30 -6 -55t-43 -34v0zM32 64q-14 0 -23 9v0q-9 9 -9 23v224q0 14 9 23t23 9h64q14 0 23 -9t9 -23v-224q0 -14 -9 -23t-23 -9h-64v0z" />
    <glyph glyph-name="u1F44E" unicode="&#xf088;" 
d="M324 -29q-30 -8 -55 6v0q-25 14 -34 43l-6 20q-6 20 -19 35l-52 57q-13 17 2 33q18 14 34 -1l51 -57q21 -23 30 -54l6 -20q8 -20 30 -16q20 8 16 30l-6 20q-8 30 -26 55q-8 12 -2 25q7 12 21 13h134q15 1 16 16q-1 11 -10 15q-12 5 -15 17t5 21q4 5 4 11q-1 13 -13 16
q-13 3 -18 15q-4 13 4 23q3 4 3 10q-1 11 -10 15q-19 9 -15 29q1 2 1 4q-1 15 -16 16h-97q-20 0 -36 -11l-62 -41q-19 -10 -33 7q-11 19 7 33l61 41q29 19 63 19h97q27 0 45 -18q18 -17 19 -44q23 -18 24 -50q0 -7 -1 -13q24 -18 25 -51q0 -10 -3 -19q18 -18 19 -45
q-1 -27 -19 -45t-45 -19h-92q7 -16 12 -32l5 -20q8 -30 -6 -55t-43 -34v0zM32 64q-14 0 -23 9v0q-9 9 -9 23v224q0 14 9 23t23 9h64q14 0 23 -9t9 -23v-224q0 -14 -9 -23t-23 -9h-64v0z" />
    <glyph glyph-name="uniF185" unicode="&#xf185;" 
d="M376 428q-3 13 -15 18t-22 -2l-83 -57l-82 57q-11 7 -23 2t-15 -18l-18 -98l-98 -18q-13 -3 -18 -15t2 -23l57 -82l-57 -83q-7 -10 -2 -22t18 -15l98 -18l18 -98q3 -13 15 -18t22 2l83 57l83 -57q10 -7 22 -2t15 18l18 98l98 18q13 3 18 15t-2 22l-57 83l57 82q7 11 2 23
t-18 15l-98 18l-18 98v0zM270 338l65 45l15 -78q3 -16 19 -19l78 -15l-45 -65q-9 -14 0 -28l45 -65l-78 -15q-16 -3 -19 -19l-15 -78l-65 45q-14 9 -28 0l-65 -45l-15 78q-3 16 -19 19l-78 15l45 65q9 14 0 28l-45 65l78 15q16 3 19 19l15 78l65 -45q14 -9 28 0v0zM256 80
q30 0 56 15v0q26 15 41 41t15 56t-15 56t-41 41t-56 15t-56 -15t-41 -41t-15 -56t15 -56t41 -41t56 -15v0zM192 192q1 36 32 55q32 18 64 0q31 -19 32 -55q-1 -36 -32 -55q-32 -18 -64 0q-31 19 -32 55v0z" />
    <glyph glyph-name="uniF185" unicode="&#x2600;" 
d="M376 428q-3 13 -15 18t-22 -2l-83 -57l-82 57q-11 7 -23 2t-15 -18l-18 -98l-98 -18q-13 -3 -18 -15t2 -23l57 -82l-57 -83q-7 -10 -2 -22t18 -15l98 -18l18 -98q3 -13 15 -18t22 2l83 57l83 -57q10 -7 22 -2t15 18l18 98l98 18q13 3 18 15t-2 22l-57 83l57 82q7 11 2 23
t-18 15l-98 18l-18 98v0zM270 338l65 45l15 -78q3 -16 19 -19l78 -15l-45 -65q-9 -14 0 -28l45 -65l-78 -15q-16 -3 -19 -19l-15 -78l-65 45q-14 9 -28 0l-65 -45l-15 78q-3 16 -19 19l-78 15l45 65q9 14 0 28l-45 65l78 15q16 3 19 19l15 78l65 -45q14 -9 28 0v0zM256 80
q30 0 56 15v0q26 15 41 41t15 56t-15 56t-41 41t-56 15t-56 -15t-41 -41t-15 -56t15 -56t41 -41t56 -15v0zM192 192q1 36 32 55q32 18 64 0q31 -19 32 -55q-1 -36 -32 -55q-32 -18 -64 0q-31 19 -32 55v0z" />
    <glyph glyph-name="u1F319" unicode="&#x1f319;" horiz-adv-x="384" 
d="M145 349q-33 -52 -33 -117q1 -75 42 -131q41 -57 108 -81q-19 -4 -39 -4q-74 2 -124 52q-49 49 -51 124q1 52 27 94q26 41 70 63v0zM207 415q-89 -8 -147 -70v0q-58 -62 -60 -153q1 -63 31 -113q29 -51 80 -80q50 -30 113 -31q72 1 128 41q2 1 3 2l2 2q8 5 14 11q4 4 8 7
q8 9 3 19t-17 8q-5 0 -11 -1q-7 -1 -15 -1h-4v0q-75 2 -124 52q-49 49 -51 124q0 41 17 76t47 60l2 2h1q6 5 12 9q5 4 10 6q10 6 8 18q-3 10 -15 12q-5 1 -10 1h-8v0h-10v0q-4 -1 -7 -1v0z" />
    <glyph glyph-name="u1F319" unicode="&#xf186;" horiz-adv-x="384" 
d="M145 349q-33 -52 -33 -117q1 -75 42 -131q41 -57 108 -81q-19 -4 -39 -4q-74 2 -124 52q-49 49 -51 124q1 52 27 94q26 41 70 63v0zM207 415q-89 -8 -147 -70v0q-58 -62 -60 -153q1 -63 31 -113q29 -51 80 -80q50 -30 113 -31q72 1 128 41q2 1 3 2l2 2q8 5 14 11q4 4 8 7
q8 9 3 19t-17 8q-5 0 -11 -1q-7 -1 -15 -1h-4v0q-75 2 -124 52q-49 49 -51 124q0 41 17 76t47 60l2 2h1q6 5 12 9q5 4 10 6q10 6 8 18q-3 10 -15 12q-5 1 -10 1h-8v0h-10v0q-4 -1 -7 -1v0z" />
    <glyph glyph-name="u1F319" unicode="&#x23fe;" horiz-adv-x="384" 
d="M145 349q-33 -52 -33 -117q1 -75 42 -131q41 -57 108 -81q-19 -4 -39 -4q-74 2 -124 52q-49 49 -51 124q1 52 27 94q26 41 70 63v0zM207 415q-89 -8 -147 -70v0q-58 -62 -60 -153q1 -63 31 -113q29 -51 80 -80q50 -30 113 -31q72 1 128 41q2 1 3 2l2 2q8 5 14 11q4 4 8 7
q8 9 3 19t-17 8q-5 0 -11 -1q-7 -1 -15 -1h-4v0q-75 2 -124 52q-49 49 -51 124q0 41 17 76t47 60l2 2h1q6 5 12 9q5 4 10 6q10 6 8 18q-3 10 -15 12q-5 1 -10 1h-8v0h-10v0q-4 -1 -7 -1v0z" />
    <glyph glyph-name="uniF191" unicode="&#xf191;" horiz-adv-x="448" 
d="M48 32q1 -15 16 -16h320q15 1 16 16v320q-1 15 -16 16h-320q-15 -1 -16 -16v-320v0zM64 -32q-27 1 -45 19v0q-18 18 -19 45v320q1 27 19 45t45 19h320q27 -1 45 -19t19 -45v-320q-1 -27 -19 -45t-45 -19h-320v0zM128 192q0 10 8 18l112 104q11 10 26 4q13 -7 14 -22v-208
q-1 -15 -14 -22q-15 -6 -26 4l-112 104q-8 8 -8 18v0z" />
    <glyph glyph-name="u1F518" unicode="&#x1f518;" 
d="M464 192q0 57 -28 104v0q-27 47 -76 76q-49 28 -104 28t-104 -28q-49 -29 -76 -76q-28 -47 -28 -104t28 -104q27 -47 76 -76q49 -28 104 -28t104 28q49 29 76 76q28 47 28 104v0zM0 192q1 70 34 128v0q34 58 94 94q61 34 128 34t128 -34q60 -36 94 -94q33 -58 34 -128
q-1 -70 -34 -128q-34 -58 -94 -94q-61 -34 -128 -34t-128 34q-60 36 -94 94q-33 58 -34 128v0zM256 288q26 0 48 -13v0q22 -13 35 -35q13 -23 13 -48t-13 -48q-13 -22 -35 -35t-48 -13t-48 13t-35 35q-13 23 -13 48t13 48q13 22 35 35t48 13v0z" />
    <glyph glyph-name="u1F518" unicode="&#xf192;" 
d="M464 192q0 57 -28 104v0q-27 47 -76 76q-49 28 -104 28t-104 -28q-49 -29 -76 -76q-28 -47 -28 -104t28 -104q27 -47 76 -76q49 -28 104 -28t104 28q49 29 76 76q28 47 28 104v0zM0 192q1 70 34 128v0q34 58 94 94q61 34 128 34t128 -34q60 -36 94 -94q33 -58 34 -128
q-1 -70 -34 -128q-34 -58 -94 -94q-61 -34 -128 -34t-128 34q-60 36 -94 94q-33 58 -34 128v0zM256 288q26 0 48 -13v0q22 -13 35 -35q13 -23 13 -48t-13 -48q-13 -22 -35 -35t-48 -13t-48 13t-35 35q-13 23 -13 48t13 48q13 22 35 35t48 13v0z" />
    <glyph glyph-name="u1F3E2" unicode="&#x1f3e2;" horiz-adv-x="384" 
d="M64 400q-15 -1 -16 -16v-384q1 -15 16 -16h80v64q1 20 14 34q14 13 34 14q20 -1 34 -14q13 -14 14 -34v-64h80q15 1 16 16v384q-1 15 -16 16h-256v0zM0 384q1 27 19 45v0q18 18 45 19h256q27 -1 45 -19t19 -45v-384q-1 -27 -19 -45t-45 -19h-256q-27 1 -45 19t-19 45v384
v0zM88 344q1 15 16 16h48q15 -1 16 -16v-48q-1 -15 -16 -16h-48q-15 1 -16 16v48v0zM232 360h48q15 -1 16 -16v-48q-1 -15 -16 -16h-48q-15 1 -16 16v48q1 15 16 16v0zM88 216q1 15 16 16h48q15 -1 16 -16v-48q-1 -15 -16 -16h-48q-15 1 -16 16v48v0zM232 232h48
q15 -1 16 -16v-48q-1 -15 -16 -16h-48q-15 1 -16 16v48q1 15 16 16v0z" />
    <glyph glyph-name="u1F3E2" unicode="&#xf1ad;" horiz-adv-x="384" 
d="M64 400q-15 -1 -16 -16v-384q1 -15 16 -16h80v64q1 20 14 34q14 13 34 14q20 -1 34 -14q13 -14 14 -34v-64h80q15 1 16 16v384q-1 15 -16 16h-256v0zM0 384q1 27 19 45v0q18 18 45 19h256q27 -1 45 -19t19 -45v-384q-1 -27 -19 -45t-45 -19h-256q-27 1 -45 19t-19 45v384
v0zM88 344q1 15 16 16h48q15 -1 16 -16v-48q-1 -15 -16 -16h-48q-15 1 -16 16v48v0zM232 360h48q15 -1 16 -16v-48q-1 -15 -16 -16h-48q-15 1 -16 16v48q1 15 16 16v0zM88 216q1 15 16 16h48q15 -1 16 -16v-48q-1 -15 -16 -16h-48q-15 1 -16 16v48v0zM232 232h48
q15 -1 16 -16v-48q-1 -15 -16 -16h-48q-15 1 -16 16v48q1 15 16 16v0z" />
    <glyph glyph-name="u1F3E2" unicode="&#xf0f7;" horiz-adv-x="384" 
d="M64 400q-15 -1 -16 -16v-384q1 -15 16 -16h80v64q1 20 14 34q14 13 34 14q20 -1 34 -14q13 -14 14 -34v-64h80q15 1 16 16v384q-1 15 -16 16h-256v0zM0 384q1 27 19 45v0q18 18 45 19h256q27 -1 45 -19t19 -45v-384q-1 -27 -19 -45t-45 -19h-256q-27 1 -45 19t-19 45v384
v0zM88 344q1 15 16 16h48q15 -1 16 -16v-48q-1 -15 -16 -16h-48q-15 1 -16 16v48v0zM232 360h48q15 -1 16 -16v-48q-1 -15 -16 -16h-48q-15 1 -16 16v48q1 15 16 16v0zM88 216q1 15 16 16h48q15 -1 16 -16v-48q-1 -15 -16 -16h-48q-15 1 -16 16v48v0zM232 232h48
q15 -1 16 -16v-48q-1 -15 -16 -16h-48q-15 1 -16 16v48q1 15 16 16v0z" />
    <glyph glyph-name="uniF1C1" unicode="&#xf1c1;" 
d="M64 -16h32v-48h-32q-27 1 -45 19t-19 45v384q1 27 19 45t45 19h166q26 0 45 -19l90 -90q19 -19 19 -46v-133h-48v128h-80q-14 0 -23 9t-9 23v80h-160q-15 -1 -16 -16v-384q1 -15 16 -16v0zM176 96h32q24 -1 40 -16q15 -16 16 -40q-1 -24 -16 -40q-16 -15 -40 -16h-16v-32
q-1 -15 -16 -16q-15 1 -16 16v48v80q1 15 16 16v0zM208 16q22 2 24 24q-2 22 -24 24h-16v-48h16v0zM304 96h32q20 -1 34 -14q13 -14 14 -34v-64q-1 -20 -14 -34q-14 -13 -34 -14h-32q-15 1 -16 16v128q1 15 16 16v0zM336 -32q15 1 16 16v64q-1 15 -16 16h-16v-96h16v0z
M416 80q1 15 16 16h48q15 -1 16 -16q-1 -15 -16 -16h-32v-32h32q15 -1 16 -16q-1 -15 -16 -16h-32v-48q-1 -15 -16 -16q-15 1 -16 16v64v64v0z" />
    <glyph glyph-name="uniF1C2" unicode="&#xf1c2;" horiz-adv-x="384" 
d="M48 0v384q1 15 16 16h160v-80q0 -14 9 -23t23 -9h80v-288q-1 -15 -16 -16h-256q-15 1 -16 16v0zM64 448q-27 -1 -45 -19v0q-18 -18 -19 -45v-384q1 -27 19 -45t45 -19h256q27 1 45 19t19 45v293q0 27 -19 46l-90 90q-19 19 -45 19h-166v0zM119 207q-8 20 -30 16
q-20 -8 -16 -30l48 -160q6 -16 23 -17q17 1 23 17l25 83l25 -83q6 -16 23 -17q17 1 23 17l48 160q4 22 -16 30q-22 4 -30 -16l-25 -84l-25 84q-6 16 -23 17q-17 -1 -23 -17l-25 -84l-25 84v0z" />
    <glyph glyph-name="uniF1C3" unicode="&#xf1c3;" horiz-adv-x="384" 
d="M48 0v384q1 15 16 16h160v-80q0 -14 9 -23t23 -9h80v-288q-1 -15 -16 -16h-256q-15 1 -16 16v0zM64 448q-27 -1 -45 -19v0q-18 -18 -19 -45v-384q1 -27 19 -45t45 -19h256q27 1 45 19t19 45v293q0 27 -19 46l-90 90q-19 19 -45 19h-166v0zM155 215q-15 16 -34 4
q-16 -15 -4 -34l45 -57l-45 -57q-12 -19 4 -34q19 -12 34 4l37 48l37 -48q15 -16 34 -4q16 15 4 34l-45 57l45 57q12 19 -4 34q-19 12 -34 -4l-37 -48l-37 48v0z" />
    <glyph glyph-name="uniF1C4" unicode="&#xf1c4;" horiz-adv-x="384" 
d="M64 -16q-15 1 -16 16v384q1 15 16 16h160v-80q0 -14 9 -23t23 -9h80v-288q-1 -15 -16 -16h-256v0zM64 448q-27 -1 -45 -19v0q-18 -18 -19 -45v-384q1 -27 19 -45t45 -19h256q27 1 45 19t19 45v293q0 27 -19 46l-90 90q-19 19 -45 19h-166v0zM136 240q-22 -2 -24 -24v-104
v-56q2 -22 24 -24q22 2 24 24v32h44q32 1 54 22q21 22 22 54q-1 32 -22 54q-22 21 -54 22h-68v0zM204 136h-44v56h44q12 0 20 -8t8 -20t-8 -20t-20 -8v0z" />
    <glyph glyph-name="u1F5BB" unicode="&#x1f5bb;" horiz-adv-x="384" 
d="M64 -16q-15 1 -16 16v384q1 15 16 16h160v-80q0 -14 9 -23t23 -9h80v-288q-1 -15 -16 -16h-256v0zM64 448q-27 -1 -45 -19v0q-18 -18 -19 -45v-384q1 -27 19 -45t45 -19h256q27 1 45 19t19 45v293q0 27 -19 46l-90 90q-19 19 -45 19h-166v0zM160 192q0 14 -9 23v0
q-9 9 -23 9t-23 -9t-9 -23t9 -23t23 -9t23 9t9 23v0zM229 145q-5 7 -13 7t-13 -7l-41 -60l-12 19q-5 8 -14 8t-14 -8l-40 -64q-4 -7 0 -16q5 -8 14 -8h48h32h40h72q9 0 14 9q4 8 -1 16l-72 104v0z" />
    <glyph glyph-name="u1F5BB" unicode="&#xf1c5;" horiz-adv-x="384" 
d="M64 -16q-15 1 -16 16v384q1 15 16 16h160v-80q0 -14 9 -23t23 -9h80v-288q-1 -15 -16 -16h-256v0zM64 448q-27 -1 -45 -19v0q-18 -18 -19 -45v-384q1 -27 19 -45t45 -19h256q27 1 45 19t19 45v293q0 27 -19 46l-90 90q-19 19 -45 19h-166v0zM160 192q0 14 -9 23v0
q-9 9 -23 9t-23 -9t-9 -23t9 -23t23 -9t23 9t9 23v0zM229 145q-5 7 -13 7t-13 -7l-41 -60l-12 19q-5 8 -14 8t-14 -8l-40 -64q-4 -7 0 -16q5 -8 14 -8h48h32h40h72q9 0 14 9q4 8 -1 16l-72 104v0z" />
    <glyph glyph-name="uniF1C6" unicode="&#xf1c6;" horiz-adv-x="384" 
d="M64 -16q-15 1 -16 16v384q1 15 16 16h48q1 -15 16 -16h32q15 1 16 16h48v-80q0 -14 9 -23t23 -9h80v-288q-1 -15 -16 -16h-256v0zM64 448q-27 -1 -45 -19v0q-18 -18 -19 -45v-384q1 -27 19 -45t45 -19h256q27 1 45 19t19 45v293q0 27 -19 46l-90 90q-19 19 -45 19h-166v0
zM112 336q1 -15 16 -16h32q15 1 16 16q-1 15 -16 16h-32q-15 -1 -16 -16v0zM112 272q1 -15 16 -16h32q15 1 16 16q-1 15 -16 16h-32q-15 -1 -16 -16v0zM106 200l-24 -88q-2 -8 -2 -16q1 -27 19 -45t45 -19q27 1 45 19t19 45q0 8 -2 16l-24 88q-7 23 -30 24h-15
q-24 -1 -31 -24v0zM128 112h32q15 -1 16 -16q-1 -15 -16 -16h-32q-15 1 -16 16q1 15 16 16v0z" />
    <glyph glyph-name="uniF1C7" unicode="&#xf1c7;" horiz-adv-x="384" 
d="M64 -16h256q15 1 16 16v288h-80q-14 0 -23 9t-9 23v80h-160q-15 -1 -16 -16v-384q1 -15 16 -16v0zM0 384q1 27 19 45v0q18 18 45 19h166q26 0 45 -19l90 -90q19 -19 19 -46v-293q-1 -27 -19 -45t-45 -19h-256q-27 1 -45 19t-19 45v384v0zM192 176v-128q0 -10 -10 -15
q-10 -3 -17 4l-36 35h-17q-15 1 -16 16v48q1 15 16 16h17l36 35q7 7 17 4q9 -5 10 -15v0zM278 180q18 -30 18 -68t-18 -68q-13 -18 -33 -9q-18 13 -9 33q12 20 12 44t-12 44q-9 20 9 33q20 9 33 -9v0z" />
    <glyph glyph-name="uniF1C8" unicode="&#xf1c8;" horiz-adv-x="384" 
d="M320 -16q15 1 16 16v288h-80q-14 0 -23 9t-9 23v80h-160q-15 -1 -16 -16v-384q1 -15 16 -16h256v0zM0 384q1 27 19 45v0q18 18 45 19h166q26 0 45 -19l90 -90q19 -19 19 -46v-293q-1 -27 -19 -45t-45 -19h-256q-27 1 -45 19t-19 45v384v0zM80 160q0 14 9 23v0q9 9 23 9
h96q14 0 23 -9t9 -23v-16l45 30q3 2 7 2q11 -1 12 -12v-104q-1 -11 -12 -12q-4 0 -7 2l-45 30v-16q0 -14 -9 -23t-23 -9h-96q-14 0 -23 9t-9 23v96v0z" />
    <glyph glyph-name="uniF1C9" unicode="&#xf1c9;" horiz-adv-x="384" 
d="M64 -16q-15 1 -16 16v384q1 15 16 16h160v-80q0 -14 9 -23t23 -9h80v-288q-1 -15 -16 -16h-256v0zM64 448q-27 -1 -45 -19v0q-18 -18 -19 -45v-384q1 -27 19 -45t45 -19h256q27 1 45 19t19 45v293q0 27 -19 46l-90 90q-19 19 -45 19h-166v0zM161 159q14 17 0 34
q-17 14 -34 0l-48 -48q-14 -17 0 -34l48 -48q17 -14 34 0q14 17 0 34l-31 31l31 31v0zM257 193q-17 14 -34 0q-14 -17 0 -34l31 -31l-31 -31q-14 -17 0 -34q17 -14 34 0l48 48q14 17 0 34l-48 48v0z" />
    <glyph glyph-name="uniF1CD" unicode="&#xf1cd;" 
d="M385 29q-54 -44 -129 -45q-75 1 -129 45l80 80q22 -13 49 -13t49 13l80 -80v0zM453 29q57 68 59 163q-2 95 -59 163l12 12q14 17 0 34q-17 14 -34 0l-12 -12q-68 57 -163 59q-95 -2 -163 -59l-12 12q-17 14 -34 0q-14 -17 0 -34l12 -12q-57 -68 -59 -163q2 -95 59 -163
l-12 -12q-14 -17 0 -34q17 -14 34 0l12 12q68 -57 163 -59q95 2 163 59l12 -12q17 -14 34 0q14 17 0 34l-12 12v0zM419 63l-80 80q13 22 13 49t-13 49l80 80q44 -54 45 -129q-1 -75 -45 -129v0zM385 355l-80 -80q-22 13 -49 13t-49 -13l-80 80q54 44 129 45q75 -1 129 -45v0
zM173 143l-80 -80q-44 54 -45 129q1 75 45 129l80 -80q-13 -22 -13 -49t13 -49v0zM208 192q1 27 24 42q24 12 48 0q23 -15 24 -42q-1 -27 -24 -42q-24 -12 -48 0q-23 15 -24 42v0z" />
    <glyph glyph-name="uniF1D9" unicode="&#xf1d9;" 
d="M16 188q-17 -11 -16 -30v0q2 -19 20 -28l140 -58v-103q0 -14 10 -23q9 -10 23 -10q15 0 25 12l62 74l124 -52q15 -5 28 2q13 8 16 23l64 416q2 20 -14 31t-34 2l-448 -256v0zM68 162l342 195l-220 -245l1 -1l-123 51v0zM403 23l-166 69l214 239l-48 -308v0z" />
    <glyph glyph-name="uniF1D9" unicode="&#xf1d8;" 
d="M16 188q-17 -11 -16 -30v0q2 -19 20 -28l140 -58v-103q0 -14 10 -23q9 -10 23 -10q15 0 25 12l62 74l124 -52q15 -5 28 2q13 8 16 23l64 416q2 20 -14 31t-34 2l-448 -256v0zM68 162l342 195l-220 -245l1 -1l-123 51v0zM403 23l-166 69l214 239l-48 -308v0z" />
    <glyph glyph-name="uniF1E3" unicode="&#xf1e3;" 
d="M435 87l-89 6q-8 0 -15 -5q-6 -4 -8 -12l-22 -87q-22 -5 -45 -5t-45 5l-22 87q-2 8 -8 12q-7 5 -15 5l-89 -6q-23 38 -28 85l76 48q7 4 9 12q3 7 0 15l-34 83q31 34 73 53l69 -58q6 -5 14 -5t14 5l69 58q42 -19 73 -53l-34 -83q-3 -8 0 -15q2 -8 9 -12l76 -48
q-5 -47 -28 -85v0zM256 400h1h-2h1v0zM57 252q1 4 3 9l-3 -9v0zM132 25l4 -3l-2 2q-1 0 -2 1v0zM380 25q-2 -1 -4 -3l4 3v0zM455 252l-3 9q2 -5 3 -9v0zM256 -64q70 1 128 34v0q58 34 94 94q34 61 34 128t-34 128q-36 60 -94 94q-58 33 -128 34q-70 -1 -128 -34
q-58 -34 -94 -94q-34 -61 -34 -128t34 -128q36 -60 94 -94q58 -33 128 -34v0zM270 262q-14 9 -28 0l-48 -35q-13 -11 -9 -27l19 -56q6 -16 22 -17h60q16 1 22 17l19 56q4 16 -9 27l-48 35v0z" />
    <glyph glyph-name="uniF1E3" unicode="&#x26bd;" 
d="M435 87l-89 6q-8 0 -15 -5q-6 -4 -8 -12l-22 -87q-22 -5 -45 -5t-45 5l-22 87q-2 8 -8 12q-7 5 -15 5l-89 -6q-23 38 -28 85l76 48q7 4 9 12q3 7 0 15l-34 83q31 34 73 53l69 -58q6 -5 14 -5t14 5l69 58q42 -19 73 -53l-34 -83q-3 -8 0 -15q2 -8 9 -12l76 -48
q-5 -47 -28 -85v0zM256 400h1h-2h1v0zM57 252q1 4 3 9l-3 -9v0zM132 25l4 -3l-2 2q-1 0 -2 1v0zM380 25q-2 -1 -4 -3l4 3v0zM455 252l-3 9q2 -5 3 -9v0zM256 -64q70 1 128 34v0q58 34 94 94q34 61 34 128t-34 128q-36 60 -94 94q-58 33 -128 34q-70 -1 -128 -34
q-58 -34 -94 -94q-34 -61 -34 -128t34 -128q36 -60 94 -94q58 -33 128 -34v0zM270 262q-14 9 -28 0l-48 -35q-13 -11 -9 -27l19 -56q6 -16 22 -17h60q16 1 22 17l19 56q4 16 -9 27l-48 35v0z" />
    <glyph glyph-name="u1F4F0" unicode="&#x1f4f0;" 
d="M168 368q-22 -2 -24 -24v-304q0 -13 -4 -24h300q22 2 24 24v304q-2 22 -24 24h-272v0zM72 -32q-31 1 -51 21v0q-20 20 -21 51v296q2 22 24 24q22 -2 24 -24v-296q2 -22 24 -24q22 2 24 24v304q1 31 21 51t51 21h272q31 -1 51 -21t21 -51v-304q-1 -31 -21 -51t-51 -21
h-368v0zM176 312q2 22 24 24h96q22 -2 24 -24v-80q-2 -22 -24 -24h-96q-22 2 -24 24v80v0zM376 336h32q22 -2 24 -24q-2 -22 -24 -24h-32q-22 2 -24 24q2 22 24 24v0zM376 256h32q22 -2 24 -24q-2 -22 -24 -24h-32q-22 2 -24 24q2 22 24 24v0zM200 176h208q22 -2 24 -24
q-2 -22 -24 -24h-208q-22 2 -24 24q2 22 24 24v0zM200 96h208q22 -2 24 -24q-2 -22 -24 -24h-208q-22 2 -24 24q2 22 24 24v0z" />
    <glyph glyph-name="u1F4F0" unicode="&#xf1ea;" 
d="M168 368q-22 -2 -24 -24v-304q0 -13 -4 -24h300q22 2 24 24v304q-2 22 -24 24h-272v0zM72 -32q-31 1 -51 21v0q-20 20 -21 51v296q2 22 24 24q22 -2 24 -24v-296q2 -22 24 -24q22 2 24 24v304q1 31 21 51t51 21h272q31 -1 51 -21t21 -51v-304q-1 -31 -21 -51t-51 -21
h-368v0zM176 312q2 22 24 24h96q22 -2 24 -24v-80q-2 -22 -24 -24h-96q-22 2 -24 24v80v0zM376 336h32q22 -2 24 -24q-2 -22 -24 -24h-32q-22 2 -24 24q2 22 24 24v0zM376 256h32q22 -2 24 -24q-2 -22 -24 -24h-32q-22 2 -24 24q2 22 24 24v0zM200 176h208q22 -2 24 -24
q-2 -22 -24 -24h-208q-22 2 -24 24q2 22 24 24v0zM200 96h208q22 -2 24 -24q-2 -22 -24 -24h-208q-22 2 -24 24q2 22 24 24v0z" />
    <glyph glyph-name="u1F515" unicode="&#x1f515;" horiz-adv-x="640" 
d="M39 443q-19 12 -34 -4q-12 -19 4 -34l592 -464q19 -12 34 4q12 19 -4 34l-88 69q4 12 -4 23l-15 19q-43 55 -44 125v33q-1 58 -37 99q-35 41 -91 51v18q0 14 -9 23t-23 9t-23 -9t-9 -23v-18q-68 -12 -104 -69l-145 114v0zM222 300q13 23 37 38v0q24 14 53 14h8h8
q44 -1 74 -30q29 -30 30 -74v-33q0 -50 19 -95l-229 180v0zM406 32l-61 48h-177q32 50 39 109l-47 37v-12q-1 -69 -44 -124l-15 -19q-8 -12 -3 -25q7 -13 22 -14h286v0zM384 0h-64h-64q0 -26 19 -45t45 -19t45 19t19 45v0z" />
    <glyph glyph-name="u1F515" unicode="&#xf1f7;" horiz-adv-x="640" 
d="M39 443q-19 12 -34 -4q-12 -19 4 -34l592 -464q19 -12 34 4q12 19 -4 34l-88 69q4 12 -4 23l-15 19q-43 55 -44 125v33q-1 58 -37 99q-35 41 -91 51v18q0 14 -9 23t-23 9t-23 -9t-9 -23v-18q-68 -12 -104 -69l-145 114v0zM222 300q13 23 37 38v0q24 14 53 14h8h8
q44 -1 74 -30q29 -30 30 -74v-33q0 -50 19 -95l-229 180v0zM406 32l-61 48h-177q32 50 39 109l-47 37v-12q-1 -69 -44 -124l-15 -19q-8 -12 -3 -25q7 -13 22 -14h286v0zM384 0h-64h-64q0 -26 19 -45t45 -19t45 19t19 45v0z" />
    <glyph glyph-name="u1F515" unicode="&#xf1f6;" horiz-adv-x="640" 
d="M39 443q-19 12 -34 -4q-12 -19 4 -34l592 -464q19 -12 34 4q12 19 -4 34l-88 69q4 12 -4 23l-15 19q-43 55 -44 125v33q-1 58 -37 99q-35 41 -91 51v18q0 14 -9 23t-23 9t-23 -9t-9 -23v-18q-68 -12 -104 -69l-145 114v0zM222 300q13 23 37 38v0q24 14 53 14h8h8
q44 -1 74 -30q29 -30 30 -74v-33q0 -50 19 -95l-229 180v0zM406 32l-61 48h-177q32 50 39 109l-47 37v-12q-1 -69 -44 -124l-15 -19q-8 -12 -3 -25q7 -13 22 -14h286v0zM384 0h-64h-64q0 -26 19 -45t45 -19t45 19t19 45v0z" />
    <glyph glyph-name="uniF1F9" unicode="&#xf1f9;" 
d="M256 400q57 0 104 -28v0q47 -27 76 -76q28 -49 28 -104t-28 -104q-29 -49 -76 -76q-47 -28 -104 -28t-104 28q-47 27 -76 76q-28 49 -28 104t28 104q29 49 76 76q47 28 104 28v0zM256 -64q70 1 128 34v0q58 34 94 94q34 61 34 128t-34 128q-36 60 -94 94q-58 33 -128 34
q-70 -1 -128 -34q-58 -34 -94 -94q-34 -61 -34 -128t34 -128q36 -60 94 -94q58 -33 128 -34v0zM199 135q-23 25 -23 57v0q0 32 23 56q25 24 57 24t57 -24q17 -14 33 0q14 18 0 34q-39 38 -90 38t-91 -38q-37 -39 -37 -90t37 -91q40 -37 91 -37t90 37q14 17 0 34
q-17 14 -33 0q-25 -23 -57 -23t-57 23v0z" />
    <glyph glyph-name="uniF1F9" unicode="&#xa9;" 
d="M256 400q57 0 104 -28v0q47 -27 76 -76q28 -49 28 -104t-28 -104q-29 -49 -76 -76q-47 -28 -104 -28t-104 28q-47 27 -76 76q-28 49 -28 104t28 104q29 49 76 76q47 28 104 28v0zM256 -64q70 1 128 34v0q58 34 94 94q34 61 34 128t-34 128q-36 60 -94 94q-58 33 -128 34
q-70 -1 -128 -34q-58 -34 -94 -94q-34 -61 -34 -128t34 -128q36 -60 94 -94q58 -33 128 -34v0zM199 135q-23 25 -23 57v0q0 32 23 56q25 24 57 24t57 -24q17 -14 33 0q14 18 0 34q-39 38 -90 38t-91 -38q-37 -39 -37 -90t37 -91q40 -37 91 -37t90 37q14 17 0 34
q-17 14 -33 0q-25 -23 -57 -23t-57 23v0z" />
    <glyph glyph-name="uniF20A" unicode="&#xf20a;" horiz-adv-x="576" 
d="M512 368q15 -1 16 -16v-320q-1 -15 -16 -16h-448q-15 1 -16 16v320q1 15 16 16h448v0zM64 416q-27 -1 -45 -19v0q-18 -18 -19 -45v-320q1 -27 19 -45t45 -19h448q27 1 45 19t19 45v320q-1 27 -19 45t-45 19h-448v0zM200 240q22 -1 36 -16q16 -15 34 -2q15 16 2 34
q-28 31 -72 32q-41 -1 -68 -28t-28 -68q1 -41 28 -68t68 -28q44 1 72 32q13 18 -2 34q-18 13 -34 -2q-14 -15 -36 -16q-20 1 -34 14q-13 14 -14 34q1 20 14 34q14 13 34 14v0zM344 192q1 20 14 34v0q14 13 34 14q22 -1 36 -16q16 -15 34 -2q15 16 2 34q-28 31 -72 32
q-41 -1 -68 -28t-28 -68q1 -41 28 -68t68 -28q44 1 72 32q13 18 -2 34q-18 13 -34 -2q-14 -15 -36 -16q-20 1 -34 14q-13 14 -14 34v0z" />
    <glyph glyph-name="uniF247" unicode="&#xf247;" horiz-adv-x="576" 
d="M48 332q-15 14 -16 36q1 20 14 34q14 13 34 14q22 -1 36 -16h344q14 15 36 16q20 -1 34 -14q13 -14 14 -34q-1 -22 -16 -36v-280q15 -14 16 -36q-1 -20 -14 -34q-14 -13 -34 -14q-22 1 -36 16h-344q-14 -15 -36 -16q-20 1 -34 14q-13 14 -14 34q1 22 16 36v280v0z
M125 352q-8 -21 -29 -29v-262q21 -8 29 -29h326q8 21 29 29v262q-21 8 -29 29h-326v0zM128 288q0 14 9 23v0q9 9 23 9h128q14 0 23 -9t9 -23v-96q0 -14 -9 -23t-23 -9h-128q-14 0 -23 9t-9 23v96v0zM256 128h32q27 1 45 19t19 45v32h64q14 0 23 -9t9 -23v-96q0 -14 -9 -23
t-23 -9h-128q-14 0 -23 9t-9 23v32v0z" />
    <glyph glyph-name="uniF248" unicode="&#xf248;" horiz-adv-x="640" 
d="M48 381v3v0v0q1 14 16 16h3q12 -3 13 -16q-1 -15 -16 -16q-13 1 -16 13v0zM0 384q0 -20 11 -36v0q11 -16 29 -23v-106q-18 -7 -29 -23t-11 -36q1 -27 19 -45t45 -19q20 0 36 11t23 29h202q7 -18 23 -29t36 -11q27 1 45 19t19 45q0 20 -11 36t-29 23v106q18 7 29 23t11 36
q-1 27 -19 45t-45 19q-20 0 -36 -11t-23 -29h-202q-7 18 -23 29t-36 11q-27 -1 -45 -19t-19 -45v0zM368 384q1 15 16 16q15 -1 16 -16q-1 -15 -16 -16q-15 1 -16 16v0zM325 360q10 -25 35 -35v-106q-25 -10 -35 -35h-202q-10 25 -35 35v106q25 10 35 35h202v0zM384 176
q15 -1 16 -16q-1 -15 -16 -16q-15 1 -16 16q1 15 16 16v0zM80 160q-1 -13 -13 -16h-3v0q-14 1 -16 16v3q3 12 16 13q15 -1 16 -16v0zM471 200h46q10 -25 35 -35v-106q-25 -10 -35 -35h-202q-10 25 -35 35v37h-48v-37q-18 -7 -29 -23t-11 -36q1 -27 19 -45t45 -19q20 0 36 11
t23 29h202q7 -18 23 -29t36 -11q27 1 45 19t19 45q0 20 -11 36t-29 23v106q18 7 29 23t11 36q-1 27 -19 45t-45 19q-20 0 -36 -11t-23 -29h-69v-16q15 -14 23 -32v0zM560 227q2 9 10 13q9 3 16 -3q7 -7 6 -16q-2 -9 -10 -13q-9 -3 -17 3q-6 7 -5 16v0zM272 -3q-2 -9 -10 -13
q-9 -3 -16 3q-7 7 -6 16q2 9 10 13q9 3 17 -3q6 -7 5 -16v0zM573 -16q-12 3 -13 16q2 15 16 16q13 -1 16 -13v0v0v-3q-1 -15 -16 -16h-3v0z" />
    <glyph glyph-name="uniF24A" unicode="&#xf24a;" horiz-adv-x="448" 
d="M64 368q-15 -1 -16 -16v-320q1 -15 16 -16h224v80q0 14 9 23t23 9h80v224q-1 15 -16 16h-320v0zM288 -32h-224q-27 1 -45 19t-19 45v320q1 27 19 45t45 19h320q27 -1 45 -19t19 -45v-224v-6q0 -26 -19 -45l-90 -90q-19 -19 -45 -19h-6v0z" />
    <glyph glyph-name="uniF24A" unicode="&#xf249;" horiz-adv-x="448" 
d="M64 368q-15 -1 -16 -16v-320q1 -15 16 -16h224v80q0 14 9 23t23 9h80v224q-1 15 -16 16h-320v0zM288 -32h-224q-27 1 -45 19t-19 45v320q1 27 19 45t45 19h320q27 -1 45 -19t19 -45v-224v-6q0 -26 -19 -45l-90 -90q-19 -19 -45 -19h-6v0z" />
    <glyph glyph-name="uniF24D" unicode="&#xf24d;" 
d="M64 -16h224q15 1 16 16v64h48v-64q-1 -27 -19 -45t-45 -19h-224q-27 1 -45 19t-19 45v224q1 27 19 45t45 19h64v-48h-64q-15 -1 -16 -16v-224q1 -15 16 -16v0zM224 96q-27 1 -45 19v0q-18 18 -19 45v224q1 27 19 45t45 19h224q27 -1 45 -19t19 -45v-224q-1 -27 -19 -45
t-45 -19h-224v0z" />
    <glyph glyph-name="uniF252" unicode="&#xf252;" horiz-adv-x="384" 
d="M0 424q2 22 24 24h336q22 -2 24 -24q-2 -22 -24 -24h-8v-19q-1 -63 -44 -108l-82 -81l81 -82q44 -44 45 -107v-19h8q22 -2 24 -24q-2 -22 -24 -24h-336q-22 2 -24 24q2 22 24 24h8v19q1 63 45 107l81 82l-81 81q-44 45 -45 108v19h-8q-22 2 -24 24v0zM111 76
q-6 -5 -11 -12h184q-5 7 -10 12l-82 82l-81 -81v-1zM284 320q20 27 20 61v19h-224v-19q0 -34 20 -61h184v0z" />
    <glyph glyph-name="uniF254" unicode="&#xf254;" horiz-adv-x="384" 
d="M24 448q-22 -2 -24 -24q2 -22 24 -24h8v-19q1 -63 45 -108l81 -81l-81 -82q-44 -44 -45 -107v-19h-8q-22 -2 -24 -24q2 -22 24 -24h336q22 2 24 24q-2 22 -24 24h-8v19q-1 63 -44 107l-82 82l81 81q44 45 45 108v19h8q22 2 24 24q-2 22 -24 24h-336v0zM192 158l82 -81
q29 -31 30 -74v-19h-224v19q1 43 31 73l81 82v0zM192 226l-81 81q-30 31 -31 74v19h224v-19q-1 -43 -30 -74l-82 -81v0z" />
    <glyph glyph-name="uniF254" unicode="&#xf250;" horiz-adv-x="384" 
d="M24 448q-22 -2 -24 -24q2 -22 24 -24h8v-19q1 -63 45 -108l81 -81l-81 -82q-44 -44 -45 -107v-19h-8q-22 -2 -24 -24q2 -22 24 -24h336q22 2 24 24q-2 22 -24 24h-8v19q-1 63 -44 107l-82 82l81 81q44 45 45 108v19h8q22 2 24 24q-2 22 -24 24h-336v0zM192 158l82 -81
q29 -31 30 -74v-19h-224v19q1 43 31 73l81 82v0zM192 226l-81 81q-30 31 -31 74v19h224v-19q-1 -43 -30 -74l-82 -81v0z" />
    <glyph glyph-name="uniF254" unicode="&#x23f3;" horiz-adv-x="384" 
d="M24 448q-22 -2 -24 -24q2 -22 24 -24h8v-19q1 -63 45 -108l81 -81l-81 -82q-44 -44 -45 -107v-19h-8q-22 -2 -24 -24q2 -22 24 -24h336q22 2 24 24q-2 22 -24 24h-8v19q-1 63 -44 107l-82 82l81 81q44 45 45 108v19h8q22 2 24 24q-2 22 -24 24h-336v0zM192 158l82 -81
q29 -31 30 -74v-19h-224v19q1 43 31 73l81 82v0zM192 226l-81 81q-30 31 -31 74v19h224v-19q-1 -43 -30 -74l-82 -81v0z" />
    <glyph glyph-name="uniF255" unicode="&#xf255;" horiz-adv-x="448" 
d="M144 384q1 15 16 16q15 -1 16 -16t13 -22q14 -6 25 3q5 3 10 3q15 -1 16 -16t13 -22q14 -6 25 3q5 3 10 3q15 -1 16 -16t13 -22q14 -6 25 3q5 3 10 3q15 -1 16 -16v-104q0 -24 -13 -42q-14 -18 -35 -26q-15 -6 -16 -23v-133q2 -22 24 -24q22 2 24 24v118q29 15 46 43
q18 28 18 63v104q-1 27 -19 45t-45 19q-4 0 -8 -1q-18 31 -56 33q-4 0 -8 -1q-18 31 -56 33q-4 0 -8 -1q-18 31 -56 33q-27 -1 -45 -19t-19 -45v-64q-18 -11 -32 -27l18 -16l-18 16l-9 -11q-23 -25 -23 -59v-12q0 -38 17 -71q17 -32 48 -54l14 20l-14 -20l9 -6q10 -7 22 -11
v-109q2 -22 24 -24q22 2 24 24v128q-2 21 -22 24q-12 1 -21 7l-13 -19l13 19l-9 6q-43 32 -44 86v12q0 16 10 27l10 11q5 6 12 11v-32q1 -15 16 -16q15 1 16 16v66v14v64v0z" />
    <glyph glyph-name="u1F91A" unicode="&#x1f91a;" 
d="M256 448q-40 -2 -58 -36q-10 4 -22 4q-27 -1 -45 -19t-19 -45v-166l-3 3q-19 19 -45 19q-25 0 -45 -19q-19 -20 -19 -45q0 -26 19 -45l88 -88q36 -36 83 -56q46 -19 98 -19h8h8h2h3q70 7 117 54q48 47 54 117v3v2v176q-1 27 -19 45t-45 19q-8 0 -16 -2v2q-1 27 -19 45
t-45 19q-12 0 -22 -4q-18 34 -58 36v0zM240 352v0v0v0v32q1 15 16 16q15 -1 16 -16v-32v0v0v-136q2 -22 24 -24q22 2 24 24v136v0v0q1 15 16 16q15 -1 16 -16v-56v0v0v-80q2 -22 24 -24q22 2 24 24v72v0v0q1 15 16 16q15 -1 16 -16v-173v-1v-1q-4 -53 -40 -89t-89 -40h-2h-5
h-8q-86 1 -148 61l-87 88q-10 11 0 22q11 10 22 0l44 -43q12 -11 26 -6q14 7 15 23v223q1 15 16 16q15 -1 16 -16v-136q2 -22 24 -24q22 2 24 24v136v0z" />
    <glyph glyph-name="u1F91A" unicode="&#xf256;" 
d="M256 448q-40 -2 -58 -36q-10 4 -22 4q-27 -1 -45 -19t-19 -45v-166l-3 3q-19 19 -45 19q-25 0 -45 -19q-19 -20 -19 -45q0 -26 19 -45l88 -88q36 -36 83 -56q46 -19 98 -19h8h8h2h3q70 7 117 54q48 47 54 117v3v2v176q-1 27 -19 45t-45 19q-8 0 -16 -2v2q-1 27 -19 45
t-45 19q-12 0 -22 -4q-18 34 -58 36v0zM240 352v0v0v0v32q1 15 16 16q15 -1 16 -16v-32v0v0v-136q2 -22 24 -24q22 2 24 24v136v0v0q1 15 16 16q15 -1 16 -16v-56v0v0v-80q2 -22 24 -24q22 2 24 24v72v0v0q1 15 16 16q15 -1 16 -16v-173v-1v-1q-4 -53 -40 -89t-89 -40h-2h-5
h-8q-86 1 -148 61l-87 88q-10 11 0 22q11 10 22 0l44 -43q12 -11 26 -6q14 7 15 23v223q1 15 16 16q15 -1 16 -16v-136q2 -22 24 -24q22 2 24 24v136v0z" />
    <glyph glyph-name="u1F91A" unicode="&#x270b;" 
d="M256 448q-40 -2 -58 -36q-10 4 -22 4q-27 -1 -45 -19t-19 -45v-166l-3 3q-19 19 -45 19q-25 0 -45 -19q-19 -20 -19 -45q0 -26 19 -45l88 -88q36 -36 83 -56q46 -19 98 -19h8h8h2h3q70 7 117 54q48 47 54 117v3v2v176q-1 27 -19 45t-45 19q-8 0 -16 -2v2q-1 27 -19 45
t-45 19q-12 0 -22 -4q-18 34 -58 36v0zM240 352v0v0v0v32q1 15 16 16q15 -1 16 -16v-32v0v0v-136q2 -22 24 -24q22 2 24 24v136v0v0q1 15 16 16q15 -1 16 -16v-56v0v0v-80q2 -22 24 -24q22 2 24 24v72v0v0q1 15 16 16q15 -1 16 -16v-173v-1v-1q-4 -53 -40 -89t-89 -40h-2h-5
h-8q-86 1 -148 61l-87 88q-10 11 0 22q11 10 22 0l44 -43q12 -11 26 -6q14 7 15 23v223q1 15 16 16q15 -1 16 -16v-136q2 -22 24 -24q22 2 24 24v136v0z" />
    <glyph glyph-name="uniF257" unicode="&#xf257;" 
d="M0 172q0 27 17 46v0q18 18 45 20h3l-8 2q-26 6 -40 28t-9 48q7 27 28 40q22 14 49 9l173 -39q3 5 7 9v0l18 20q27 28 65 29h11q41 0 75 -20q35 -20 56 -55l1 -3q21 -36 21 -77v-125q-1 -51 -35 -85t-85 -35h-8h-96q-27 1 -45 19t-19 45q0 4 1 8q-31 18 -33 56v1v1
l-126 -4q-27 0 -45 17q-19 18 -21 45v0zM64 190q-15 -2 -16 -17q2 -14 17 -15l161 6q16 -1 23 -15q6 -14 -5 -26q-4 -4 -4 -11q1 -15 16 -16t22 -13q6 -14 -3 -25q-3 -5 -3 -10q1 -15 16 -16h96h8q31 1 51 21t21 51v125q0 28 -14 53l-2 2q-14 25 -38 38q-23 14 -51 14h-11
q-17 0 -29 -13l-18 16l18 -16l-19 -20q0 -1 -1 -1v-1l57 -13q14 -5 12 -20q-5 -14 -20 -12l-85 20l-189 42q-14 2 -19 -12q-2 -15 12 -19l188 -42q16 -4 19 -21v-1q0 -11 -6 -18q-7 -8 -17 -9l-187 -6v0z" />
    <glyph glyph-name="uniF258" unicode="&#xf258;" 
d="M72 336q-22 -2 -24 -24q2 -22 24 -24h168q27 -1 45 -19t19 -45q-1 -27 -19 -45t-45 -19h-104q-22 -2 -24 -24q2 -22 24 -24h152q7 0 13 -4l64 -40q11 -7 11 -20v-24q-2 -22 -24 -24q-22 2 -24 24v11l-47 29h-145q-31 1 -51 21t-21 51q1 31 21 51t51 21h104q15 1 16 16
q-1 15 -16 16h-168q-31 1 -51 21t-21 51q1 31 21 51t51 21h210q35 0 66 -15q31 -16 53 -43l79 -100q32 -42 32 -94v-108q-2 -22 -24 -24q-22 2 -24 24v108q0 36 -22 64l-78 100q-32 39 -82 40h-210v0z" />
    <glyph glyph-name="u1F596" unicode="&#x1f596;" horiz-adv-x="576" 
d="M222 423l-6 23l6 -23v0zM271 394l23 7v0l-23 -7v0zM193 374l-23 -7v0l23 7v0zM240 198l-22 -9q9 -18 30 -13q19 8 15 29l-23 -7v0zM189 319l-22 -9v0l22 9v0zM136 341l10 -22v0l-10 22v0zM115 288l-22 -9v0l22 9v0zM120 143l15 19v0l-14 -19h-1zM64 136l19 -14v0l-19 15
v-1zM71 80l-14 -19v0l14 19v0zM163 9l-14 -19l14 19v0zM464 57l23 -6l-23 6v0zM519 278l23 -6l-23 6v0zM490 327l5 23l-5 -23v0zM441 298l23 -6v0l-23 6v0zM415 193l23 -6v0l-23 6v0zM412 193l24 -4v0l-24 4v0zM439 345l24 -4v0l-24 4v0zM407 391l-4 -23l4 23v0zM361 359
l-24 4l24 -4v0zM332 195l-24 5v0l24 -5v0zM324 195l23 6v0l-23 -6v0zM336 -40l1 24l-1 -24v0zM179 98l15 19l-15 -19v0zM228 399q14 3 20 -11l46 12q-8 27 -30 39q-22 13 -48 7l12 -47v0zM217 380q-3 14 11 19l-12 47q-27 -8 -39 -30q-13 -22 -7 -48l47 12v0zM263 205
l-46 175l-47 -12l47 -176l46 13v0zM167 310l51 -121l44 19l-51 121l-44 -19v0zM146 319q14 4 21 -9l44 19q-11 25 -35 34q-24 10 -49 0l19 -44v0zM137 298q-4 14 9 21l-19 44q-25 -11 -34 -35q-10 -24 0 -49l44 19v0zM213 117l-76 181l-44 -19l76 -181l44 19v0zM106 124
l58 -45l30 38l-59 45l-29 -37v-1zM83 122q10 10 23 2l29 38q-22 17 -47 13q-25 -3 -43 -24l38 -29v0zM86 99q-11 10 -3 23l-37 29q-17 -22 -13 -47q3 -25 24 -43l29 38v0zM178 28l-92 71l-29 -38l92 -71l29 38v0zM306 -16q-71 1 -128 44l-29 -38q69 -53 157 -54v48v0z
M336 -16h-30v-48h30v48v0zM339 -16h-1v0h-1l-1 -48h1h2v48v0zM440 63q-9 -35 -37 -57v0q-27 -21 -64 -22v-48q53 1 94 32q40 32 54 84l-47 11v0zM496 284l-56 -221l47 -11l55 220l-47 12h1zM484 303q14 -4 12 -19l46 -12q6 27 -7 49t-40 29l-11 -47v0zM465 292q4 14 19 11
l12 47q-27 6 -49 -7t-29 -40l47 -11v0zM438 187l27 105l-47 12l-26 -105l46 -12v0zM414 168q19 1 24 19l-46 12q5 16 22 17v-48v0zM389 198q-2 -12 5 -21v0q8 -9 20 -9v48q11 0 17 -8q7 -8 5 -19l-47 9v0zM416 349l-27 -151l47 -9l27 152l-47 8v0zM403 368q14 -4 13 -19
l47 -8q4 27 -10 48q-15 21 -42 26l-8 -47v0zM384 355q4 14 19 13l8 47q-27 4 -48 -11q-21 -14 -26 -41l47 -8v0zM355 191l29 164l-47 8l-29 -163l47 -9v0zM328 168q22 2 27 23l-47 9q4 15 20 16v-48v0zM300 189q7 -20 28 -21v48q14 -1 19 -15l-47 -12v0zM248 388l52 -199
l47 12l-53 199l-46 -12v0zM360 -40q-2 -22 -24 -24l1 48q-23 -2 -25 -24h48v0zM336 -64q22 2 24 24h-48q2 22 24 24v-48v0zM169 98q-4 12 5 19v0q9 7 20 0l-30 -38q22 -14 39 0q18 14 10 38l-44 -19v0z" />
    <glyph glyph-name="u1F596" unicode="&#xf259;" horiz-adv-x="576" 
d="M222 423l-6 23l6 -23v0zM271 394l23 7v0l-23 -7v0zM193 374l-23 -7v0l23 7v0zM240 198l-22 -9q9 -18 30 -13q19 8 15 29l-23 -7v0zM189 319l-22 -9v0l22 9v0zM136 341l10 -22v0l-10 22v0zM115 288l-22 -9v0l22 9v0zM120 143l15 19v0l-14 -19h-1zM64 136l19 -14v0l-19 15
v-1zM71 80l-14 -19v0l14 19v0zM163 9l-14 -19l14 19v0zM464 57l23 -6l-23 6v0zM519 278l23 -6l-23 6v0zM490 327l5 23l-5 -23v0zM441 298l23 -6v0l-23 6v0zM415 193l23 -6v0l-23 6v0zM412 193l24 -4v0l-24 4v0zM439 345l24 -4v0l-24 4v0zM407 391l-4 -23l4 23v0zM361 359
l-24 4l24 -4v0zM332 195l-24 5v0l24 -5v0zM324 195l23 6v0l-23 -6v0zM336 -40l1 24l-1 -24v0zM179 98l15 19l-15 -19v0zM228 399q14 3 20 -11l46 12q-8 27 -30 39q-22 13 -48 7l12 -47v0zM217 380q-3 14 11 19l-12 47q-27 -8 -39 -30q-13 -22 -7 -48l47 12v0zM263 205
l-46 175l-47 -12l47 -176l46 13v0zM167 310l51 -121l44 19l-51 121l-44 -19v0zM146 319q14 4 21 -9l44 19q-11 25 -35 34q-24 10 -49 0l19 -44v0zM137 298q-4 14 9 21l-19 44q-25 -11 -34 -35q-10 -24 0 -49l44 19v0zM213 117l-76 181l-44 -19l76 -181l44 19v0zM106 124
l58 -45l30 38l-59 45l-29 -37v-1zM83 122q10 10 23 2l29 38q-22 17 -47 13q-25 -3 -43 -24l38 -29v0zM86 99q-11 10 -3 23l-37 29q-17 -22 -13 -47q3 -25 24 -43l29 38v0zM178 28l-92 71l-29 -38l92 -71l29 38v0zM306 -16q-71 1 -128 44l-29 -38q69 -53 157 -54v48v0z
M336 -16h-30v-48h30v48v0zM339 -16h-1v0h-1l-1 -48h1h2v48v0zM440 63q-9 -35 -37 -57v0q-27 -21 -64 -22v-48q53 1 94 32q40 32 54 84l-47 11v0zM496 284l-56 -221l47 -11l55 220l-47 12h1zM484 303q14 -4 12 -19l46 -12q6 27 -7 49t-40 29l-11 -47v0zM465 292q4 14 19 11
l12 47q-27 6 -49 -7t-29 -40l47 -11v0zM438 187l27 105l-47 12l-26 -105l46 -12v0zM414 168q19 1 24 19l-46 12q5 16 22 17v-48v0zM389 198q-2 -12 5 -21v0q8 -9 20 -9v48q11 0 17 -8q7 -8 5 -19l-47 9v0zM416 349l-27 -151l47 -9l27 152l-47 8v0zM403 368q14 -4 13 -19
l47 -8q4 27 -10 48q-15 21 -42 26l-8 -47v0zM384 355q4 14 19 13l8 47q-27 4 -48 -11q-21 -14 -26 -41l47 -8v0zM355 191l29 164l-47 8l-29 -163l47 -9v0zM328 168q22 2 27 23l-47 9q4 15 20 16v-48v0zM300 189q7 -20 28 -21v48q14 -1 19 -15l-47 -12v0zM248 388l52 -199
l47 12l-53 199l-46 -12v0zM360 -40q-2 -22 -24 -24l1 48q-23 -2 -25 -24h48v0zM336 -64q22 2 24 24h-48q2 22 24 24v-48v0zM169 98q-4 12 5 19v0q9 7 20 0l-30 -38q22 -14 39 0q18 14 10 38l-44 -19v0z" />
    <glyph glyph-name="uniF25A" unicode="&#xf25a;" horiz-adv-x="448" 
d="M160 384q1 15 16 16q15 -1 16 -16v-136q1 -17 16 -23q16 -4 27 8q5 7 13 7q15 -1 16 -16q1 -17 16 -23q17 -4 27 8q5 7 13 7q13 -1 16 -13q3 -13 15 -18q12 -4 23 3q4 4 10 4q15 -2 16 -16v-16v-104q-1 -31 -21 -51t-51 -21h-56h-60h-1q-28 0 -52 13q-25 13 -41 37
l-67 101q-7 13 4 22q13 7 22 -4l39 -58q10 -14 27 -10q16 6 17 23v20v256v0zM176 448q-27 -1 -45 -19v0q-18 -18 -19 -45v-198q-16 18 -39 21q-24 4 -44 -10q-23 -15 -28 -40q-5 -26 10 -49l67 -101q23 -33 58 -52t75 -19h1h60h56q51 1 85 35t35 85v104v16q-1 27 -19 45
t-45 19q-7 0 -13 -1q-19 24 -51 25q-10 0 -20 -3q-18 26 -52 27q-4 0 -8 -1v97q-1 27 -19 45t-45 19v0zM224 144q-1 15 -16 16q-15 -1 -16 -16v-96q1 -15 16 -16q15 1 16 16v96v0zM272 160q-15 -1 -16 -16v-96q1 -15 16 -16q15 1 16 16v96q-1 15 -16 16v0zM352 144
q-1 15 -16 16q-15 -1 -16 -16v-96q1 -15 16 -16q15 1 16 16v96v0z" />
    <glyph glyph-name="uniF25B" unicode="&#xf25b;" 
d="M251 447q-27 2 -47 -14v0q-20 -16 -23 -43l-7 -61l-17 49q-10 26 -33 37t-49 2q-25 -9 -36 -32t-3 -49l53 -150q-24 -23 -25 -58v0v-24q2 -71 49 -119q48 -47 119 -49h48q71 2 119 49q47 48 49 119v72v16v32q-1 27 -19 45t-45 19q-12 0 -22 -4q-18 34 -58 36h-1h-1l6 56
q2 27 -14 47t-43 24v0zM251 291q-11 -15 -11 -35v-48v-1v-1q-8 2 -16 2h-7l-6 15l17 162q3 14 18 14q14 -3 14 -18l-9 -90v0zM111 362l55 -154h-22q-6 0 -12 -1l-51 145q-3 14 10 20q14 4 20 -10v0zM288 256q1 15 16 16q15 -1 16 -16v-32v-16q-1 -15 -16 -16q-15 1 -16 16
v48v0zM326 148q18 -34 58 -36q8 0 16 2v-10q-1 -51 -35 -85t-85 -35h-48q-51 1 -85 35t-35 85v24v0q0 14 9 23t23 9h80q15 -1 16 -16q-1 -15 -16 -16h-40q-22 -2 -24 -24q2 -22 24 -24h40q27 1 45 19t19 45v1v1q8 -2 16 -2q12 0 22 4v0zM400 176q-1 -15 -16 -16
q-15 1 -16 16v32v16q1 15 16 16q15 -1 16 -16v-32v-16v0z" />
    <glyph glyph-name="uniF25B" unicode="&#x270c;" 
d="M251 447q-27 2 -47 -14v0q-20 -16 -23 -43l-7 -61l-17 49q-10 26 -33 37t-49 2q-25 -9 -36 -32t-3 -49l53 -150q-24 -23 -25 -58v0v-24q2 -71 49 -119q48 -47 119 -49h48q71 2 119 49q47 48 49 119v72v16v32q-1 27 -19 45t-45 19q-12 0 -22 -4q-18 34 -58 36h-1h-1l6 56
q2 27 -14 47t-43 24v0zM251 291q-11 -15 -11 -35v-48v-1v-1q-8 2 -16 2h-7l-6 15l17 162q3 14 18 14q14 -3 14 -18l-9 -90v0zM111 362l55 -154h-22q-6 0 -12 -1l-51 145q-3 14 10 20q14 4 20 -10v0zM288 256q1 15 16 16q15 -1 16 -16v-32v-16q-1 -15 -16 -16q-15 1 -16 16
v48v0zM326 148q18 -34 58 -36q8 0 16 2v-10q-1 -51 -35 -85t-85 -35h-48q-51 1 -85 35t-35 85v24v0q0 14 9 23t23 9h80q15 -1 16 -16q-1 -15 -16 -16h-40q-22 -2 -24 -24q2 -22 24 -24h40q27 1 45 19t19 45v1v1q8 -2 16 -2q12 0 22 4v0zM400 176q-1 -15 -16 -16
q-15 1 -16 16v32v16q1 15 16 16q15 -1 16 -16v-32v-16v0z" />
    <glyph glyph-name="uniF25D" unicode="&#xf25d;" 
d="M256 400q57 0 104 -28v0q47 -27 76 -76q28 -49 28 -104t-28 -104q-29 -49 -76 -76q-47 -28 -104 -28t-104 28q-47 27 -76 76q-28 49 -28 104t28 104q29 49 76 76q47 28 104 28v0zM256 -64q70 1 128 34v0q58 34 94 94q34 61 34 128t-34 128q-36 60 -94 94q-58 33 -128 34
q-70 -1 -128 -34q-58 -34 -94 -94q-34 -61 -34 -128t34 -128q36 -60 94 -94q58 -33 128 -34v0zM160 296v-112v-96q2 -22 24 -24q22 2 24 24v72h61l37 -82q11 -19 32 -12q19 11 12 32l-34 75q34 23 36 67q-1 34 -23 57q-23 22 -57 23h-88q-22 -2 -24 -24v0zM208 208v64h64
q14 0 23 -9t9 -23t-9 -23t-23 -9h-64v0z" />
    <glyph glyph-name="uniF25D" unicode="&#xae;" 
d="M256 400q57 0 104 -28v0q47 -27 76 -76q28 -49 28 -104t-28 -104q-29 -49 -76 -76q-47 -28 -104 -28t-104 28q-47 27 -76 76q-28 49 -28 104t28 104q29 49 76 76q47 28 104 28v0zM256 -64q70 1 128 34v0q58 34 94 94q34 61 34 128t-34 128q-36 60 -94 94q-58 33 -128 34
q-70 -1 -128 -34q-58 -34 -94 -94q-34 -61 -34 -128t34 -128q36 -60 94 -94q58 -33 128 -34v0zM160 296v-112v-96q2 -22 24 -24q22 2 24 24v72h61l37 -82q11 -19 32 -12q19 11 12 32l-34 75q34 23 36 67q-1 34 -23 57q-23 22 -57 23h-88q-22 -2 -24 -24v0zM208 208v64h64
q14 0 23 -9t9 -23t-9 -23t-23 -9h-64v0z" />
    <glyph glyph-name="uniF271" unicode="&#xf271;" 
d="M184 424q-2 22 -24 24q-22 -2 -24 -24v-40h-40q-27 -1 -45 -19t-19 -45v-16v-48v-256q1 -27 19 -45t45 -19h320q27 1 45 19t19 45v256v48v16q-1 27 -19 45t-45 19h-40v40q-2 22 -24 24q-22 -2 -24 -24v-40h-144v40v0zM80 256h352v-256q-1 -15 -16 -16h-320q-15 1 -16 16
v256v0zM256 216q-22 -2 -24 -24v-48h-48q-22 -2 -24 -24q2 -22 24 -24h48v-48q2 -22 24 -24q22 2 24 24v48h48q22 2 24 24q-2 22 -24 24h-48v48q-2 22 -24 24v0z" />
    <glyph glyph-name="uniF272" unicode="&#xf272;" 
d="M160 448q22 -2 24 -24v-40h144v40q2 22 24 24q22 -2 24 -24v-40h40q27 -1 45 -19t19 -45v-16v-48v-256q-1 -27 -19 -45t-45 -19h-320q-27 1 -45 19t-19 45v256v48v16q1 27 19 45t45 19h40v40q2 22 24 24v0zM432 256h-352v-256q1 -15 16 -16h320q15 1 16 16v256v0zM328 96
h-144q-22 2 -24 24q2 22 24 24h144q22 -2 24 -24q-2 -22 -24 -24v0z" />
    <glyph glyph-name="uniF273" unicode="&#xf273;" 
d="M160 448q22 -2 24 -24v-40h144v40q2 22 24 24q22 -2 24 -24v-40h40q27 -1 45 -19t19 -45v-16v-48v-256q-1 -27 -19 -45t-45 -19h-320q-27 1 -45 19t-19 45v256v48v16q1 27 19 45t45 19h40v40q2 22 24 24v0zM432 256h-352v-256q1 -15 16 -16h320q15 1 16 16v256v0z
M337 167l-47 -47l47 -47q14 -17 0 -34q-17 -14 -34 0l-47 47l-47 -47q-17 -14 -34 0q-14 17 0 34l47 47l-47 47q-14 17 0 34q17 14 34 0l47 -47l47 47q17 14 34 0q14 -17 0 -34v0z" />
    <glyph glyph-name="uniF274" unicode="&#xf274;" horiz-adv-x="448" 
d="M128 448q22 -2 24 -24v-40h144v40q2 22 24 24q22 -2 24 -24v-40h40q27 -1 45 -19t19 -45v-16v-48v-256q-1 -27 -19 -45t-45 -19h-320q-27 1 -45 19t-19 45v256v48v16q1 27 19 45t45 19h40v40q2 22 24 24v0zM400 256h-352v-256q1 -15 16 -16h320q15 1 16 16v256v0z
M329 151l-112 -112q-17 -14 -34 0l-64 64q-14 17 0 34q17 14 34 0l47 -47l95 95q17 14 34 0q14 -17 0 -34v0z" />
    <glyph glyph-name="u1F5FA" unicode="&#x1f5fa;" horiz-adv-x="576" 
d="M566 412q10 -8 10 -20v-336q-1 -16 -15 -22l-168 -64q-9 -3 -17 -1l-183 61l-160 -61q-12 -4 -23 3q-10 8 -10 20v336q1 16 16 22l168 64q8 3 16 1l184 -62l160 61q11 5 22 -2v0zM48 311v-284l120 45v285l-120 -46v0zM360 25v286l-144 48v-286l144 -48v0zM408 27l120 45
v285l-120 -46v-284v0z" />
    <glyph glyph-name="u1F5FA" unicode="&#xf279;" horiz-adv-x="576" 
d="M566 412q10 -8 10 -20v-336q-1 -16 -15 -22l-168 -64q-9 -3 -17 -1l-183 61l-160 -61q-12 -4 -23 3q-10 8 -10 20v336q1 16 16 22l168 64q8 3 16 1l184 -62l160 61q11 5 22 -2v0zM48 311v-284l120 45v285l-120 -46v0zM360 25v286l-144 48v-286l144 -48v0zM408 27l120 45
v285l-120 -46v-284v0z" />
    <glyph glyph-name="u1F5FA" unicode="&#xf278;" horiz-adv-x="576" 
d="M566 412q10 -8 10 -20v-336q-1 -16 -15 -22l-168 -64q-9 -3 -17 -1l-183 61l-160 -61q-12 -4 -23 3q-10 8 -10 20v336q1 16 16 22l168 64q8 3 16 1l184 -62l160 61q11 5 22 -2v0zM48 311v-284l120 45v285l-120 -46v0zM360 25v286l-144 48v-286l144 -48v0zM408 27l120 45
v285l-120 -46v-284v0z" />
    <glyph glyph-name="uniF27A" unicode="&#xf27a;" 
d="M160 80q20 -1 34 -14v0q13 -14 14 -34v-16l73 54q12 10 28 10h139q15 1 16 16v288q-1 15 -16 16h-384q-15 -1 -16 -16v-288q1 -15 16 -16h96v0zM208 -44v0l-5 -4l-17 -13q-8 -5 -17 -1t-9 14v21v7v0v4v48h-48h-48q-27 1 -45 19t-19 45v288q1 27 19 45t45 19h384
q27 -1 45 -19t19 -45v-288q-1 -27 -19 -45t-45 -19h-139l-101 -76v0z" />
    <glyph glyph-name="uniF28C" unicode="&#xf28c;" 
d="M464 192q0 57 -28 104v0q-27 47 -76 76q-49 28 -104 28t-104 -28q-49 -29 -76 -76q-28 -47 -28 -104t28 -104q27 -47 76 -76q49 -28 104 -28t104 28q49 29 76 76q28 47 28 104v0zM0 192q1 70 34 128v0q34 58 94 94q61 34 128 34t128 -34q60 -36 94 -94q33 -58 34 -128
q-1 -70 -34 -128q-34 -58 -94 -94q-61 -34 -128 -34t-128 34q-60 36 -94 94q-33 58 -34 128v0zM224 264v-144q-2 -22 -24 -24q-22 2 -24 24v144q2 22 24 24q22 -2 24 -24v0zM336 264v-144q-2 -22 -24 -24q-22 2 -24 24v144q2 22 24 24q22 -2 24 -24v0z" />
    <glyph glyph-name="uniF28C" unicode="&#xf28b;" 
d="M464 192q0 57 -28 104v0q-27 47 -76 76q-49 28 -104 28t-104 -28q-49 -29 -76 -76q-28 -47 -28 -104t28 -104q27 -47 76 -76q49 -28 104 -28t104 28q49 29 76 76q28 47 28 104v0zM0 192q1 70 34 128v0q34 58 94 94q61 34 128 34t128 -34q60 -36 94 -94q33 -58 34 -128
q-1 -70 -34 -128q-34 -58 -94 -94q-61 -34 -128 -34t-128 34q-60 36 -94 94q-33 58 -34 128v0zM224 264v-144q-2 -22 -24 -24q-22 2 -24 24v144q2 22 24 24q22 -2 24 -24v0zM336 264v-144q-2 -22 -24 -24q-22 2 -24 24v144q2 22 24 24q22 -2 24 -24v0z" />
    <glyph glyph-name="uniF28E" unicode="&#xf28e;" 
d="M464 192q0 57 -28 104v0q-27 47 -76 76q-49 28 -104 28t-104 -28q-49 -29 -76 -76q-28 -47 -28 -104t28 -104q27 -47 76 -76q49 -28 104 -28t104 28q49 29 76 76q28 47 28 104v0zM0 192q1 70 34 128v0q34 58 94 94q61 34 128 34t128 -34q60 -36 94 -94q33 -58 34 -128
q-1 -70 -34 -128q-34 -58 -94 -94q-61 -34 -128 -34t-128 34q-60 36 -94 94q-33 58 -34 128v0zM192 288h128q14 0 23 -9t9 -23v-128q0 -14 -9 -23t-23 -9h-128q-14 0 -23 9t-9 23v128q0 14 9 23t23 9v0z" />
    <glyph glyph-name="uniF28E" unicode="&#xf28d;" 
d="M464 192q0 57 -28 104v0q-27 47 -76 76q-49 28 -104 28t-104 -28q-49 -29 -76 -76q-28 -47 -28 -104t28 -104q27 -47 76 -76q49 -28 104 -28t104 28q49 29 76 76q28 47 28 104v0zM0 192q1 70 34 128v0q34 58 94 94q61 34 128 34t128 -34q60 -36 94 -94q33 -58 34 -128
q-1 -70 -34 -128q-34 -58 -94 -94q-61 -34 -128 -34t-128 34q-60 36 -94 94q-33 58 -34 128v0zM192 288h128q14 0 23 -9t9 -23v-128q0 -14 -9 -23t-23 -9h-128q-14 0 -23 9t-9 23v128q0 14 9 23t23 9v0z" />
    <glyph glyph-name="uniF4E6" unicode="&#xf4e6;" horiz-adv-x="448" 
d="M48 392q-2 22 -24 24q-22 -2 -24 -24v-400q2 -22 24 -24q22 2 24 24v332l13 2q25 6 44 13v0v0l4 2l6 2q22 8 51 9q36 -1 64 -13v0v0q30 -14 79 -16q24 0 44 5t47 14v-237l-10 -3v0q-30 -11 -46 -15q-17 -5 -35 -4q-35 1 -63 13h-1q-29 14 -79 16q-25 0 -44 -5
q-21 -7 -18 -29q7 -21 29 -18q14 4 33 4q36 -1 64 -13v-1v0q30 -13 79 -16q25 0 47 6q21 6 51 17q7 2 15 5q5 1 9 3l17 6v17v288v34l-32 -11q-10 -4 -18 -7q-4 -1 -7 -2h-1q-30 -11 -46 -15q-16 -5 -34 -4q-36 1 -64 13h-1q-29 14 -79 16q-40 -1 -66 -12l-8 -2l-6 -2
q-17 -7 -35 -11h-3v19v0z" />
    <glyph glyph-name="uniF4E6" unicode="&#xf425;" horiz-adv-x="448" 
d="M48 392q-2 22 -24 24q-22 -2 -24 -24v-400q2 -22 24 -24q22 2 24 24v332l13 2q25 6 44 13v0v0l4 2l6 2q22 8 51 9q36 -1 64 -13v0v0q30 -14 79 -16q24 0 44 5t47 14v-237l-10 -3v0q-30 -11 -46 -15q-17 -5 -35 -4q-35 1 -63 13h-1q-29 14 -79 16q-25 0 -44 -5
q-21 -7 -18 -29q7 -21 29 -18q14 4 33 4q36 -1 64 -13v-1v0q30 -13 79 -16q25 0 47 6q21 6 51 17q7 2 15 5q5 1 9 3l17 6v17v288v34l-32 -11q-10 -4 -18 -7q-4 -1 -7 -2h-1q-30 -11 -46 -15q-16 -5 -34 -4q-36 1 -64 13h-1q-29 14 -79 16q-40 -1 -66 -12l-8 -2l-6 -2
q-17 -7 -35 -11h-3v19v0z" />
    <glyph glyph-name="uniF4E6" unicode="&#xf2b4;" horiz-adv-x="448" 
d="M48 392q-2 22 -24 24q-22 -2 -24 -24v-400q2 -22 24 -24q22 2 24 24v332l13 2q25 6 44 13v0v0l4 2l6 2q22 8 51 9q36 -1 64 -13v0v0q30 -14 79 -16q24 0 44 5t47 14v-237l-10 -3v0q-30 -11 -46 -15q-17 -5 -35 -4q-35 1 -63 13h-1q-29 14 -79 16q-25 0 -44 -5
q-21 -7 -18 -29q7 -21 29 -18q14 4 33 4q36 -1 64 -13v-1v0q30 -13 79 -16q25 0 47 6q21 6 51 17q7 2 15 5q5 1 9 3l17 6v17v288v34l-32 -11q-10 -4 -18 -7q-4 -1 -7 -2h-1q-30 -11 -46 -15q-16 -5 -34 -4q-36 1 -64 13h-1q-29 14 -79 16q-40 -1 -66 -12l-8 -2l-6 -2
q-17 -7 -35 -11h-3v19v0z" />
    <glyph glyph-name="uniF2B5" unicode="&#xf2b5;" horiz-adv-x="640" 
d="M272 383l-51 -51q-23 -6 -41 -22l-27 -24q-16 -14 -37 -14h-20v-128q32 -1 54 -23l36 -36l7 -7v0l27 -27q11 -9 23 0q2 3 3 6q5 12 18 15q12 3 22 -6l11 -11q9 -9 20 -9q12 0 21 9q9 8 9 19q1 14 14 21q12 5 24 -2q16 -10 31 2q14 17 0 34l-76 76l-36 -33
q-21 -19 -48 -19t-49 18q-23 23 -24 53q0 30 23 54l70 66q43 39 101 40q56 -1 98 -37l30 -27h39h40h40q15 -1 16 -16v-208q0 -14 -9 -23t-23 -9h-32q-19 1 -28 16h-85q-5 -10 -13 -19q-28 -25 -63 -20q-6 -11 -15 -20q-21 -20 -49 -23q-27 -2 -51 15q-20 -16 -44 -15t-42 19
l-27 27l-7 7l-36 36q-8 8 -20 9q0 -14 -9 -23t-23 -9h-32q-14 0 -23 9t-9 23v208q1 15 16 16h40h40h20q3 0 5 2l27 24q43 37 101 38h10q7 0 13 -1v0zM544 128v144h-48q-9 0 -16 6l-37 33q-28 25 -66 25q-39 -1 -68 -27l-70 -66q-8 -8 -8 -18q0 -11 8 -18q17 -12 33 0l72 67
q17 13 33 -2q14 -17 -1 -34h-1l75 -75q15 -15 19 -35h75v0zM64 112q-1 15 -16 16q-15 -1 -16 -16q1 -15 16 -16q15 1 16 16v0zM592 96q15 1 16 16q-1 15 -16 16q-15 -1 -16 -16q1 -15 16 -16v0z" />
    <glyph glyph-name="uniF2B7" unicode="&#xf2b7;" 
d="M255 400h1h1v0l204 -146q3 -2 3 -7v-13l-172 -142q-17 -12 -36 -12q-20 0 -36 12l-172 142v13q0 5 3 7l204 146v0zM48 172l142 -117q30 -23 66 -23t66 23l142 117v-180q-1 -7 -8 -8h-400q-7 1 -8 8v180v0zM256 448q-16 0 -28 -9l-204 -146q-23 -17 -24 -46v-255
q1 -24 16 -40q16 -15 40 -16h400q24 1 40 16q15 16 16 40v255q-1 29 -23 46l-204 146q-13 9 -29 9v0z" />
    <glyph glyph-name="uniF2B7" unicode="&#xf2b6;" 
d="M255 400h1h1v0l204 -146q3 -2 3 -7v-13l-172 -142q-17 -12 -36 -12q-20 0 -36 12l-172 142v13q0 5 3 7l204 146v0zM48 172l142 -117q30 -23 66 -23t66 23l142 117v-180q-1 -7 -8 -8h-400q-7 1 -8 8v180v0zM256 448q-16 0 -28 -9l-204 -146q-23 -17 -24 -46v-255
q1 -24 16 -40q16 -15 40 -16h400q24 1 40 16q15 16 16 40v255q-1 29 -23 46l-204 146q-13 9 -29 9v0z" />
    <glyph glyph-name="uniF2BA" unicode="&#xf2ba;" 
d="M384 400q15 -1 16 -16v-384q-1 -15 -16 -16h-288q-15 1 -16 16v384q1 15 16 16h288v0zM96 448q-27 -1 -45 -19v0q-18 -18 -19 -45v-384q1 -27 19 -45t45 -19h288q27 1 45 19t19 45v384q-1 27 -19 45t-45 19h-288v0zM240 192q36 1 55 32q18 32 0 64q-19 31 -55 32
q-36 -1 -55 -32q-18 -32 0 -64q19 -31 55 -32v0zM208 160q-34 -1 -57 -23v0q-22 -23 -23 -57q1 -15 16 -16h192q15 1 16 16q-1 34 -23 57q-23 22 -57 23h-64v0zM512 368q-1 15 -16 16q-15 -1 -16 -16v-64q1 -15 16 -16q15 1 16 16v64v0zM496 256q-15 -1 -16 -16v-64
q1 -15 16 -16q15 1 16 16v64q-1 15 -16 16v0zM512 112q-1 15 -16 16q-15 -1 -16 -16v-64q1 -15 16 -16q15 1 16 16v64v0z" />
    <glyph glyph-name="uniF2BA" unicode="&#xf2b9;" 
d="M384 400q15 -1 16 -16v-384q-1 -15 -16 -16h-288q-15 1 -16 16v384q1 15 16 16h288v0zM96 448q-27 -1 -45 -19v0q-18 -18 -19 -45v-384q1 -27 19 -45t45 -19h288q27 1 45 19t19 45v384q-1 27 -19 45t-45 19h-288v0zM240 192q36 1 55 32q18 32 0 64q-19 31 -55 32
q-36 -1 -55 -32q-18 -32 0 -64q19 -31 55 -32v0zM208 160q-34 -1 -57 -23v0q-22 -23 -23 -57q1 -15 16 -16h192q15 1 16 16q-1 34 -23 57q-23 22 -57 23h-64v0zM512 368q-1 15 -16 16q-15 -1 -16 -16v-64q1 -15 16 -16q15 1 16 16v64v0zM496 256q-15 -1 -16 -16v-64
q1 -15 16 -16q15 1 16 16v64q-1 15 -16 16v0zM512 112q-1 15 -16 16q-15 -1 -16 -16v-64q1 -15 16 -16q15 1 16 16v64v0z" />
    <glyph glyph-name="uniF2BC" unicode="&#xf2bc;" horiz-adv-x="576" 
d="M512 368q15 -1 16 -16v-320q-1 -15 -16 -16h-448q-15 1 -16 16v320q1 15 16 16h448v0zM64 416q-27 -1 -45 -19v0q-18 -18 -19 -45v-320q1 -27 19 -45t45 -19h448q27 1 45 19t19 45v320q-1 27 -19 45t-45 19h-448v0zM208 192q36 1 55 32q18 32 0 64q-19 31 -55 32
q-36 -1 -55 -32q-18 -32 0 -64q19 -31 55 -32v0zM176 160q-34 -1 -57 -23v0q-22 -23 -23 -57q1 -15 16 -16h192q15 1 16 16q-1 34 -23 57q-23 22 -57 23h-64v0zM376 304q-22 -2 -24 -24q2 -22 24 -24h80q22 2 24 24q-2 22 -24 24h-80v0zM376 208q-22 -2 -24 -24
q2 -22 24 -24h80q22 2 24 24q-2 22 -24 24h-80v0z" />
    <glyph glyph-name="uniF2BC" unicode="&#xf2bb;" horiz-adv-x="576" 
d="M512 368q15 -1 16 -16v-320q-1 -15 -16 -16h-448q-15 1 -16 16v320q1 15 16 16h448v0zM64 416q-27 -1 -45 -19v0q-18 -18 -19 -45v-320q1 -27 19 -45t45 -19h448q27 1 45 19t19 45v320q-1 27 -19 45t-45 19h-448v0zM208 192q36 1 55 32q18 32 0 64q-19 31 -55 32
q-36 -1 -55 -32q-18 -32 0 -64q19 -31 55 -32v0zM176 160q-34 -1 -57 -23v0q-22 -23 -23 -57q1 -15 16 -16h192q15 1 16 16q-1 34 -23 57q-23 22 -57 23h-64v0zM376 304q-22 -2 -24 -24q2 -22 24 -24h80q22 2 24 24q-2 22 -24 24h-80v0zM376 208q-22 -2 -24 -24
q2 -22 24 -24h80q22 2 24 24q-2 22 -24 24h-80v0z" />
    <glyph glyph-name="uniF2BE" unicode="&#xf2be;" 
d="M407 48q-15 36 -47 58v0q-31 21 -72 22h-64q-41 -1 -72 -22q-32 -22 -46 -58q-56 58 -58 144q2 88 61 147t147 61q88 -2 147 -61t61 -147q-2 -86 -57 -144v0zM366 16q-48 -31 -110 -32q-62 1 -110 32q6 28 27 46q21 17 51 18h64q30 -1 51 -18q21 -18 28 -46h-1zM256 -64
q70 1 128 34v0q58 34 94 94q34 61 34 128t-34 128q-36 60 -94 94q-58 33 -128 34q-70 -1 -128 -34q-58 -34 -94 -94q-34 -61 -34 -128t34 -128q36 -60 94 -94q58 -33 128 -34v0zM256 208q-23 1 -35 20q-10 20 0 40q12 19 35 20q23 -1 35 -20q10 -20 0 -40q-12 -19 -35 -20v0
zM168 248q2 -50 44 -76q44 -24 88 0q42 26 44 76q-2 50 -44 76q-44 24 -88 0q-42 -26 -44 -76v0z" />
    <glyph glyph-name="uniF2BE" unicode="&#xf2bd;" 
d="M407 48q-15 36 -47 58v0q-31 21 -72 22h-64q-41 -1 -72 -22q-32 -22 -46 -58q-56 58 -58 144q2 88 61 147t147 61q88 -2 147 -61t61 -147q-2 -86 -57 -144v0zM366 16q-48 -31 -110 -32q-62 1 -110 32q6 28 27 46q21 17 51 18h64q30 -1 51 -18q21 -18 28 -46h-1zM256 -64
q70 1 128 34v0q58 34 94 94q34 61 34 128t-34 128q-36 60 -94 94q-58 33 -128 34q-70 -1 -128 -34q-58 -34 -94 -94q-34 -61 -34 -128t34 -128q36 -60 94 -94q58 -33 128 -34v0zM256 208q-23 1 -35 20q-10 20 0 40q12 19 35 20q23 -1 35 -20q10 -20 0 -40q-12 -19 -35 -20v0
zM168 248q2 -50 44 -76q44 -24 88 0q42 26 44 76q-2 50 -44 76q-44 24 -88 0q-42 -26 -44 -76v0z" />
    <glyph glyph-name="uniF2C1" unicode="&#xf2c1;" horiz-adv-x="384" 
d="M256 400v-16q0 -14 -9 -23t-23 -9h-64q-14 0 -23 9t-9 23v16h-64q-15 -1 -16 -16v-384q1 -15 16 -16h256q15 1 16 16v384q-1 15 -16 16h-64v0zM0 384q1 27 19 45v0q18 18 45 19h256q27 -1 45 -19t19 -45v-384q-1 -27 -19 -45t-45 -19h-256q-27 1 -45 19t-19 45v384v0z
M160 128h64q34 -1 57 -23q22 -23 23 -57q-1 -15 -16 -16h-192q-15 1 -16 16q1 34 23 57q23 22 57 23v0zM128 224q1 36 32 55q32 18 64 0q31 -19 32 -55q-1 -36 -32 -55q-32 -18 -64 0q-31 19 -32 55v0z" />
    <glyph glyph-name="uniF2C3" unicode="&#xf2c3;" horiz-adv-x="576" 
d="M528 288v-256q-1 -15 -16 -16h-192q-1 34 -23 57q-23 22 -57 23h-64q-34 -1 -57 -23q-22 -23 -23 -57h-32q-15 1 -16 16v256h480v0zM64 416q-27 -1 -45 -19v0q-18 -18 -19 -45v-320q1 -27 19 -45t45 -19h448q27 1 45 19t19 45v320q-1 27 -19 45t-45 19h-448v0zM272 192
q-1 36 -32 55q-32 18 -64 0q-31 -19 -32 -55q1 -36 32 -55q32 -18 64 0q31 19 32 55v0zM376 240q-22 -2 -24 -24q2 -22 24 -24h80q22 2 24 24q-2 22 -24 24h-80v0zM376 144q-22 -2 -24 -24q2 -22 24 -24h80q22 2 24 24q-2 22 -24 24h-80v0z" />
    <glyph glyph-name="uniF2C3" unicode="&#xf2c2;" horiz-adv-x="576" 
d="M528 288v-256q-1 -15 -16 -16h-192q-1 34 -23 57q-23 22 -57 23h-64q-34 -1 -57 -23q-22 -23 -23 -57h-32q-15 1 -16 16v256h480v0zM64 416q-27 -1 -45 -19v0q-18 -18 -19 -45v-320q1 -27 19 -45t45 -19h448q27 1 45 19t19 45v320q-1 27 -19 45t-45 19h-448v0zM272 192
q-1 36 -32 55q-32 18 -64 0q-31 -19 -32 -55q1 -36 32 -55q32 -18 64 0q31 19 32 55v0zM376 240q-22 -2 -24 -24q2 -22 24 -24h80q22 2 24 24q-2 22 -24 24h-80v0zM376 144q-22 -2 -24 -24q2 -22 24 -24h80q22 2 24 24q-2 22 -24 24h-80v0z" />
    <glyph glyph-name="u1F5D6" unicode="&#x1f5d6;" 
d="M0 358v-6v-128v-192q1 -27 19 -45t45 -19h384q27 1 45 19t19 45v192v128q-1 27 -19 45t-45 19h-384h-6q-14 -2 -26 -9q-16 -9 -24 -25q-6 -11 -8 -24v0zM48 224h416v-192q-1 -15 -16 -16h-384q-15 1 -16 16v192v0z" />
    <glyph glyph-name="u1F5D6" unicode="&#xf2d0;" 
d="M0 358v-6v-128v-192q1 -27 19 -45t45 -19h384q27 1 45 19t19 45v192v128q-1 27 -19 45t-45 19h-384h-6q-14 -2 -26 -9q-16 -9 -24 -25q-6 -11 -8 -24v0zM48 224h416v-192q-1 -15 -16 -16h-384q-15 1 -16 16v192v0z" />
    <glyph glyph-name="u1F5D5" unicode="&#x1f5d5;" 
d="M24 16q-22 -2 -24 -24q2 -22 24 -24h464q22 2 24 24q-2 22 -24 24h-464v0z" />
    <glyph glyph-name="u1F5D5" unicode="&#xf2d1;" 
d="M24 16q-22 -2 -24 -24q2 -22 24 -24h464q22 2 24 24q-2 22 -24 24h-464v0z" />
    <glyph glyph-name="uniF2D2" unicode="&#xf2d2;" 
d="M432 400h-224q-14 0 -23 -9t-9 -23v-16h-48v16q1 34 23 57q23 22 57 23h224q34 -1 57 -23q22 -23 23 -57v-224q-1 -34 -23 -57q-23 -22 -57 -23h-16v48h16q14 0 23 9t9 23v224q0 14 -9 23t-23 9v0zM48 0q1 -15 16 -16h256q15 1 16 16v192h-288v-192v0zM64 320h256
q27 -1 45 -19t19 -45v-256q-1 -27 -19 -45t-45 -19h-256q-27 1 -45 19t-19 45v256q1 27 19 45t45 19v0z" />
    <glyph glyph-name="uniF2DC" unicode="&#xf2dc;" horiz-adv-x="448" 
d="M224 448q22 -2 24 -24v-46l23 23q17 14 34 0q14 -17 0 -34l-57 -57v-77l66 39l21 77q8 21 29 17q21 -7 17 -29l-8 -31l37 21q20 9 33 -9q9 -20 -9 -32l-37 -22l32 -8q20 -8 17 -30q-8 -20 -30 -17l-78 21l-66 -38l66 -38l78 21q22 3 29 -17q4 -22 -17 -30l-31 -8l37 -22
q18 -12 9 -32q-13 -18 -33 -9l-37 21l8 -31q4 -22 -17 -30q-21 -3 -29 17l-21 78l-66 38v-76l57 -57q14 -17 0 -34q-17 -14 -34 0l-23 23v-46q-2 -22 -24 -24q-22 2 -24 24v46l-23 -23q-17 -14 -34 0q-14 17 0 34l57 57v76l-66 -38l-21 -78q-8 -20 -29 -17q-21 8 -17 30
l8 31l-37 -21q-20 -9 -33 9q-9 20 9 32l37 22l-31 8q-21 8 -17 30q7 20 29 17l78 -21l66 38l-66 38l-78 -21q-22 -3 -29 17q-4 22 17 30l31 8l-37 22q-18 12 -9 32q13 18 33 9l37 -21l-8 31q-4 22 17 30q21 3 29 -17l21 -78l66 -38v76l-57 57q-14 17 0 34q17 14 34 0l23 -23
v46q2 22 24 24v0z" />
    <glyph glyph-name="uniF2DC" unicode="&#x2746;" horiz-adv-x="448" 
d="M224 448q22 -2 24 -24v-46l23 23q17 14 34 0q14 -17 0 -34l-57 -57v-77l66 39l21 77q8 21 29 17q21 -7 17 -29l-8 -31l37 21q20 9 33 -9q9 -20 -9 -32l-37 -22l32 -8q20 -8 17 -30q-8 -20 -30 -17l-78 21l-66 -38l66 -38l78 21q22 3 29 -17q4 -22 -17 -30l-31 -8l37 -22
q18 -12 9 -32q-13 -18 -33 -9l-37 21l8 -31q4 -22 -17 -30q-21 -3 -29 17l-21 78l-66 38v-76l57 -57q14 -17 0 -34q-17 -14 -34 0l-23 23v-46q-2 -22 -24 -24q-22 2 -24 24v46l-23 -23q-17 -14 -34 0q-14 17 0 34l57 57v76l-66 -38l-21 -78q-8 -20 -29 -17q-21 8 -17 30
l8 31l-37 -21q-20 -9 -33 9q-9 20 9 32l37 22l-31 8q-21 8 -17 30q7 20 29 17l78 -21l66 38l-66 38l-78 -21q-22 -3 -29 17q-4 22 17 30l31 8l-37 22q-18 12 -9 32q13 18 33 9l37 -21l-8 31q-4 22 17 30q21 3 29 -17l21 -78l66 -38v76l-57 57q-14 17 0 34q17 14 34 0l23 -23
v46q2 22 24 24v0z" />
    <glyph glyph-name="uniF2DC" unicode="&#x2744;" horiz-adv-x="448" 
d="M224 448q22 -2 24 -24v-46l23 23q17 14 34 0q14 -17 0 -34l-57 -57v-77l66 39l21 77q8 21 29 17q21 -7 17 -29l-8 -31l37 21q20 9 33 -9q9 -20 -9 -32l-37 -22l32 -8q20 -8 17 -30q-8 -20 -30 -17l-78 21l-66 -38l66 -38l78 21q22 3 29 -17q4 -22 -17 -30l-31 -8l37 -22
q18 -12 9 -32q-13 -18 -33 -9l-37 21l8 -31q4 -22 -17 -30q-21 -3 -29 17l-21 78l-66 38v-76l57 -57q14 -17 0 -34q-17 -14 -34 0l-23 23v-46q-2 -22 -24 -24q-22 2 -24 24v46l-23 -23q-17 -14 -34 0q-14 17 0 34l57 57v76l-66 -38l-21 -78q-8 -20 -29 -17q-21 8 -17 30
l8 31l-37 -21q-20 -9 -33 9q-9 20 9 32l37 22l-31 8q-21 8 -17 30q7 20 29 17l78 -21l66 38l-66 38l-78 -21q-22 -3 -29 17q-4 22 17 30l31 8l-37 22q-18 12 -9 32q13 18 33 9l37 -21l-8 31q-4 22 17 30q21 3 29 -17l21 -78l66 -38v76l-57 57q-14 17 0 34q17 14 34 0l23 -23
v46q2 22 24 24v0z" />
    <glyph glyph-name="uniF2ED" unicode="&#xf2ed;" horiz-adv-x="448" 
d="M171 396l-19 -28h145l-19 28q-3 4 -7 4h-94q-4 0 -7 -4h1zM318 423l36 -55h14h48h8q22 -2 24 -24q-2 -22 -24 -24h-8v-304q-1 -34 -23 -57q-23 -22 -57 -23h-224q-34 1 -57 23q-22 23 -23 57v304h-8q-22 2 -24 24q2 22 24 24h8h48h14l37 55q17 24 46 25h94q29 -1 46 -25
h1zM80 320v-304q0 -14 9 -23t23 -9h224q14 0 23 9t9 23v304h-288v0zM160 256v-208q-1 -15 -16 -16q-15 1 -16 16v208q1 15 16 16q15 -1 16 -16v0zM240 256v-208q-1 -15 -16 -16q-15 1 -16 16v208q1 15 16 16q15 -1 16 -16v0zM320 256v-208q-1 -15 -16 -16q-15 1 -16 16v208
q1 15 16 16q15 -1 16 -16v0z" />
    <glyph glyph-name="uniF2ED" unicode="&#xf014;" horiz-adv-x="448" 
d="M171 396l-19 -28h145l-19 28q-3 4 -7 4h-94q-4 0 -7 -4h1zM318 423l36 -55h14h48h8q22 -2 24 -24q-2 -22 -24 -24h-8v-304q-1 -34 -23 -57q-23 -22 -57 -23h-224q-34 1 -57 23q-22 23 -23 57v304h-8q-22 2 -24 24q2 22 24 24h8h48h14l37 55q17 24 46 25h94q29 -1 46 -25
h1zM80 320v-304q0 -14 9 -23t23 -9h224q14 0 23 9t9 23v304h-288v0zM160 256v-208q-1 -15 -16 -16q-15 1 -16 16v208q1 15 16 16q15 -1 16 -16v0zM240 256v-208q-1 -15 -16 -16q-15 1 -16 16v208q1 15 16 16q15 -1 16 -16v0zM320 256v-208q-1 -15 -16 -16q-15 1 -16 16v208
q1 15 16 16q15 -1 16 -16v0z" />
    <glyph glyph-name="uniF302" unicode="&#xf302;" horiz-adv-x="576" 
d="M160 368h352q15 -1 16 -16v-224q-1 -15 -16 -16h-21l-103 157q-7 11 -20 11t-20 -11l-52 -80l-13 17q-7 10 -19 10t-19 -10l-69 -94h-16q-15 1 -16 16v224q1 15 16 16v0zM96 352v-224q1 -27 19 -45t45 -19h352q27 1 45 19t19 45v224q-1 27 -19 45t-45 19h-352
q-27 -1 -45 -19t-19 -45v0zM48 328q-2 22 -24 24q-22 -2 -24 -24v-224q1 -58 40 -96q38 -39 96 -40h320q22 2 24 24q-2 22 -24 24h-320q-37 1 -62 26t-26 62v224v0zM256 304q0 14 -9 23v0q-9 9 -23 9t-23 -9t-9 -23t9 -23t23 -9t23 9t9 23v0z" />
    <glyph glyph-name="u1F4CB" unicode="&#x1f4cb;" horiz-adv-x="384" 
d="M280 384h40q27 -1 45 -19t19 -45v-320q-1 -27 -19 -45t-45 -19h-256q-27 1 -45 19t-19 45v320q1 27 19 45t45 19h40h10q6 28 27 46q21 17 51 18q30 -1 51 -18q21 -18 27 -46h10v0zM64 336q-15 -1 -16 -16v-320q1 -15 16 -16h256q15 1 16 16v320q-1 15 -16 16h-16v-24
q-2 -22 -24 -24h-88h-88q-22 2 -24 24v24h-16v0zM192 344q22 2 24 24q-2 22 -24 24q-22 -2 -24 -24q2 -22 24 -24v0z" />
    <glyph glyph-name="u1F4CB" unicode="&#xf328;" horiz-adv-x="384" 
d="M280 384h40q27 -1 45 -19t19 -45v-320q-1 -27 -19 -45t-45 -19h-256q-27 1 -45 19t-19 45v320q1 27 19 45t45 19h40h10q6 28 27 46q21 17 51 18q30 -1 51 -18q21 -18 27 -46h10v0zM64 336q-15 -1 -16 -16v-320q1 -15 16 -16h256q15 1 16 16v320q-1 15 -16 16h-16v-24
q-2 -22 -24 -24h-88h-88q-22 2 -24 24v24h-16v0zM192 344q22 2 24 24q-2 22 -24 24q-22 -2 -24 -24q2 -22 24 -24v0z" />
    <glyph glyph-name="uniF358" unicode="&#xf358;" 
d="M256 -16q-57 0 -104 28v0q-47 27 -76 76q-28 49 -28 104t28 104q29 49 76 76q47 28 104 28t104 -28q47 -27 76 -76q28 -49 28 -104t-28 -104q-29 -49 -76 -76q-47 -28 -104 -28v0zM256 448q-70 -1 -128 -34v0q-58 -34 -94 -94q-34 -61 -34 -128t34 -128q36 -60 94 -94
q58 -33 128 -34q70 1 128 34q58 34 94 94q34 61 34 128t-34 128q-36 60 -94 94q-58 33 -128 34v0zM377 153q7 7 7 17q-2 20 -22 22h-58v96q0 14 -9 23t-23 9h-32q-14 0 -23 -9t-9 -23v-96h-58q-20 -2 -22 -22q0 -10 7 -17l107 -99q6 -6 14 -6t14 6l107 99v0z" />
    <glyph glyph-name="uniF358" unicode="&#xf01a;" 
d="M256 -16q-57 0 -104 28v0q-47 27 -76 76q-28 49 -28 104t28 104q29 49 76 76q47 28 104 28t104 -28q47 -27 76 -76q28 -49 28 -104t-28 -104q-29 -49 -76 -76q-47 -28 -104 -28v0zM256 448q-70 -1 -128 -34v0q-58 -34 -94 -94q-34 -61 -34 -128t34 -128q36 -60 94 -94
q58 -33 128 -34q70 1 128 34q58 34 94 94q34 61 34 128t-34 128q-36 60 -94 94q-58 33 -128 34v0zM377 153q7 7 7 17q-2 20 -22 22h-58v96q0 14 -9 23t-23 9h-32q-14 0 -23 -9t-9 -23v-96h-58q-20 -2 -22 -22q0 -10 7 -17l107 -99q6 -6 14 -6t14 6l107 99v0z" />
    <glyph glyph-name="uniF359" unicode="&#xf359;" 
d="M48 192q0 57 28 104v0q27 47 76 76q49 28 104 28t104 -28q49 -29 76 -76q28 -47 28 -104t-28 -104q-27 -47 -76 -76q-49 -28 -104 -28t-104 28q-49 29 -76 76q-28 47 -28 104v0zM512 192q-1 70 -34 128v0q-34 58 -94 94q-61 34 -128 34t-128 -34q-60 -36 -94 -94
q-33 -58 -34 -128q1 -70 34 -128q34 -58 94 -94q61 -34 128 -34t128 34q60 36 94 94q33 58 34 128v0zM217 71q7 -7 17 -7q20 2 22 22v58h96q14 0 23 9t9 23v32q0 14 -9 23t-23 9h-96v58q-2 20 -22 22q-10 0 -17 -7l-99 -107q-6 -6 -6 -14t6 -14l99 -107v0z" />
    <glyph glyph-name="uniF359" unicode="&#xf190;" 
d="M48 192q0 57 28 104v0q27 47 76 76q49 28 104 28t104 -28q49 -29 76 -76q28 -47 28 -104t-28 -104q-27 -47 -76 -76q-49 -28 -104 -28t-104 28q-49 29 -76 76q-28 47 -28 104v0zM512 192q-1 70 -34 128v0q-34 58 -94 94q-61 34 -128 34t-128 -34q-60 -36 -94 -94
q-33 -58 -34 -128q1 -70 34 -128q34 -58 94 -94q61 -34 128 -34t128 34q60 36 94 94q33 58 34 128v0zM217 71q7 -7 17 -7q20 2 22 22v58h96q14 0 23 9t9 23v32q0 14 -9 23t-23 9h-96v58q-2 20 -22 22q-10 0 -17 -7l-99 -107q-6 -6 -6 -14t6 -14l99 -107v0z" />
    <glyph glyph-name="uniF35A" unicode="&#xf35a;" 
d="M464 192q0 -57 -28 -104v0q-27 -47 -76 -76q-49 -28 -104 -28t-104 28q-49 29 -76 76q-28 47 -28 104t28 104q27 47 76 76q49 28 104 28t104 -28q49 -29 76 -76q28 -47 28 -104v0zM0 192q1 -70 34 -128v0q34 -58 94 -94q61 -34 128 -34t128 34q60 36 94 94q33 58 34 128
q-1 70 -34 128q-34 58 -94 94q-61 34 -128 34t-128 -34q-60 -36 -94 -94q-33 -58 -34 -128v0zM295 313q-7 7 -17 7q-20 -2 -22 -22v-58h-96q-14 0 -23 -9t-9 -23v-32q0 -14 9 -23t23 -9h96v-58q2 -20 22 -22q10 0 17 7l99 107q6 6 6 14t-6 14l-99 107v0z" />
    <glyph glyph-name="uniF35A" unicode="&#xf18e;" 
d="M464 192q0 -57 -28 -104v0q-27 -47 -76 -76q-49 -28 -104 -28t-104 28q-49 29 -76 76q-28 47 -28 104t28 104q27 47 76 76q49 28 104 28t104 -28q49 -29 76 -76q28 -47 28 -104v0zM0 192q1 -70 34 -128v0q34 -58 94 -94q61 -34 128 -34t128 34q60 36 94 94q33 58 34 128
q-1 70 -34 128q-34 58 -94 94q-61 34 -128 34t-128 -34q-60 -36 -94 -94q-33 -58 -34 -128v0zM295 313q-7 7 -17 7q-20 -2 -22 -22v-58h-96q-14 0 -23 -9t-9 -23v-32q0 -14 9 -23t23 -9h96v-58q2 -20 22 -22q10 0 17 7l99 107q6 6 6 14t-6 14l-99 107v0z" />
    <glyph glyph-name="uniF35B" unicode="&#xf35b;" 
d="M256 400q57 0 104 -28v0q47 -27 76 -76q28 -49 28 -104t-28 -104q-29 -49 -76 -76q-47 -28 -104 -28t-104 28q-47 27 -76 76q-28 49 -28 104t28 104q29 49 76 76q47 28 104 28v0zM256 -64q70 1 128 34v0q58 34 94 94q34 61 34 128t-34 128q-36 60 -94 94q-58 33 -128 34
q-70 -1 -128 -34q-58 -34 -94 -94q-34 -61 -34 -128t34 -128q36 -60 94 -94q58 -33 128 -34v0zM135 231q-7 -7 -7 -17q2 -20 22 -22h58v-96q0 -14 9 -23t23 -9h32q14 0 23 9t9 23v96h58q20 2 22 22q0 10 -7 17l-107 99q-6 6 -14 6t-14 -6l-107 -99v0z" />
    <glyph glyph-name="uniF35B" unicode="&#xf01b;" 
d="M256 400q57 0 104 -28v0q47 -27 76 -76q28 -49 28 -104t-28 -104q-29 -49 -76 -76q-47 -28 -104 -28t-104 28q-47 27 -76 76q-28 49 -28 104t28 104q29 49 76 76q47 28 104 28v0zM256 -64q70 1 128 34v0q58 34 94 94q34 61 34 128t-34 128q-36 60 -94 94q-58 33 -128 34
q-70 -1 -128 -34q-58 -34 -94 -94q-34 -61 -34 -128t34 -128q36 -60 94 -94q58 -33 128 -34v0zM135 231q-7 -7 -7 -17q2 -20 22 -22h58v-96q0 -14 9 -23t23 -9h32q14 0 23 9t9 23v96h58q20 2 22 22q0 10 -7 17l-107 99q-6 6 -14 6t-14 -6l-107 -99v0z" />
    <glyph glyph-name="u1F48E" unicode="&#x1f48e;" 
d="M169 376l87 -93l88 93h-175v0zM384 349l-72 -77h129l-57 77v0zM434 224h-178h-178l178 -196l178 196v0zM72 272h129l-73 77l-56 -77v0zM506 232l-232 -256q-7 -8 -18 -8t-18 8l-232 256q-11 15 -1 30l112 152q7 10 19 10h240q12 0 19 -10l112 -152q10 -15 -1 -30v0z" />
    <glyph glyph-name="u1F48E" unicode="&#xf3a5;" 
d="M169 376l87 -93l88 93h-175v0zM384 349l-72 -77h129l-57 77v0zM434 224h-178h-178l178 -196l178 196v0zM72 272h129l-73 77l-56 -77v0zM506 232l-232 -256q-7 -8 -18 -8t-18 8l-232 256q-11 15 -1 30l112 152q7 10 19 10h240q12 0 19 -10l112 -152q10 -15 -1 -30v0z" />
    <glyph glyph-name="uniF3D1" unicode="&#xf3d1;" horiz-adv-x="576" 
d="M112 336q-1 -27 -19 -45v0q-18 -18 -45 -19v-160q27 -1 45 -19t19 -45h352q1 27 19 45t45 19v160q-27 1 -45 19t-19 45h-352v0zM0 320q1 27 19 45v0q18 18 45 19h448q27 -1 45 -19t19 -45v-256q-1 -27 -19 -45t-45 -19h-448q-27 1 -45 19t-19 45v256v0zM176 192
q0 30 15 56v0q15 26 41 41t56 15t56 -15t41 -41t15 -56t-15 -56t-41 -41t-56 -15t-56 15t-41 41t-15 56v0zM256 240q1 -15 16 -16v-64h-8q-15 -1 -16 -16q1 -15 16 -16h24h24q15 1 16 16q-1 15 -16 16h-8v80q-1 15 -16 16h-16q-15 -1 -16 -16v0z" />
    <glyph glyph-name="uniF410" unicode="&#xf410;" 
d="M64 368q-15 -1 -16 -16v-320q1 -15 16 -16h384q15 1 16 16v320q-1 15 -16 16h-384v0zM0 352q1 27 19 45v0q18 18 45 19h384q27 -1 45 -19t19 -45v-320q-1 -27 -19 -45t-45 -19h-384q-27 1 -45 19t-19 45v320v0zM175 273q17 14 34 0l47 -47l47 47q17 14 34 0q14 -17 0 -34
l-47 -47l47 -47q14 -17 0 -34q-17 -14 -34 0l-47 47l-47 -47q-17 -14 -34 0q-14 17 0 34l47 47l-47 47q-14 17 0 34v0z" />
    <glyph glyph-name="uniF410" unicode="&#xf2d4;" 
d="M64 368q-15 -1 -16 -16v-320q1 -15 16 -16h384q15 1 16 16v320q-1 15 -16 16h-384v0zM0 352q1 27 19 45v0q18 18 45 19h384q27 -1 45 -19t19 -45v-320q-1 -27 -19 -45t-45 -19h-384q-27 1 -45 19t-19 45v320v0zM175 273q17 14 34 0l47 -47l47 47q17 14 34 0q14 -17 0 -34
l-47 -47l47 -47q14 -17 0 -34q-17 -14 -34 0l-47 47l-47 -47q-17 -14 -34 0q-14 17 0 34l47 47l-47 47q-14 17 0 34v0z" />
    <glyph glyph-name="uniF43A" unicode="&#xf43a;" horiz-adv-x="320" 
d="M104 448q-22 -2 -24 -24q1 -18 18 -23q-12 -12 -24 -27q-28 -32 -50 -77q-23 -46 -24 -100q1 -33 15 -55q15 -21 33 -33v-13h48v27q0 14 -13 21q-14 7 -24 20q-10 12 -11 33q1 42 19 79t43 67q25 29 45 45q1 2 3 3l2 2q1 -1 3 -2q1 -1 2 -3q19 -16 44 -45l16 -20l-66 -66
q-14 -17 0 -34q17 -14 34 0l58 58q20 -39 21 -84q-1 -21 -11 -33q-10 -13 -24 -20q-13 -7 -13 -21v-27h48v13q18 12 33 33q14 22 15 55q-1 54 -24 100q-22 45 -50 77q-12 15 -24 27q17 5 18 23q-2 22 -24 24h-56h-56v0zM53 -16l16 32h182l16 -32h-214v0zM261 64h-201
q-20 -1 -29 -17l-26 -52q-5 -8 -5 -18q0 -18 12 -29q11 -12 29 -12h238q18 0 29 12q12 11 12 29q0 10 -5 18l-26 52q-10 16 -28 17v0z" />
    <glyph glyph-name="uniF43A" unicode="&#x265d;" horiz-adv-x="320" 
d="M104 448q-22 -2 -24 -24q1 -18 18 -23q-12 -12 -24 -27q-28 -32 -50 -77q-23 -46 -24 -100q1 -33 15 -55q15 -21 33 -33v-13h48v27q0 14 -13 21q-14 7 -24 20q-10 12 -11 33q1 42 19 79t43 67q25 29 45 45q1 2 3 3l2 2q1 -1 3 -2q1 -1 2 -3q19 -16 44 -45l16 -20l-66 -66
q-14 -17 0 -34q17 -14 34 0l58 58q20 -39 21 -84q-1 -21 -11 -33q-10 -13 -24 -20q-13 -7 -13 -21v-27h48v13q18 12 33 33q14 22 15 55q-1 54 -24 100q-22 45 -50 77q-12 15 -24 27q17 5 18 23q-2 22 -24 24h-56h-56v0zM53 -16l16 32h182l16 -32h-214v0zM261 64h-201
q-20 -1 -29 -17l-26 -52q-5 -8 -5 -18q0 -18 12 -29q11 -12 29 -12h238q18 0 29 12q12 11 12 29q0 10 -5 18l-26 52q-10 16 -28 17v0z" />
    <glyph glyph-name="uniF43F" unicode="&#xf43f;" horiz-adv-x="448" 
d="M248 424q-2 22 -24 24q-22 -2 -24 -24v-32h-32q-22 -2 -24 -24q2 -22 24 -24h32v-40h-140q-26 -1 -43 -17q-16 -17 -17 -43q0 -12 5 -23l54 -125h52l-62 144q-1 2 -1 4q1 11 12 12h164h164q11 -1 12 -12q0 -2 -1 -4l-62 -144h52l54 125q5 11 5 23q-1 26 -18 43
q-16 16 -42 17h-140v40h32q22 2 24 24q-2 22 -24 24h-32v32v0zM101 16h246l16 -32h-278l16 32v0zM385 47q-9 16 -28 17h-265q-20 -1 -29 -17l-26 -52q-5 -8 -5 -18q0 -18 12 -29q11 -12 29 -12h302q18 0 29 12q12 11 12 29q0 10 -5 18l-26 52v0z" />
    <glyph glyph-name="uniF43F" unicode="&#x265a;" horiz-adv-x="448" 
d="M248 424q-2 22 -24 24q-22 -2 -24 -24v-32h-32q-22 -2 -24 -24q2 -22 24 -24h32v-40h-140q-26 -1 -43 -17q-16 -17 -17 -43q0 -12 5 -23l54 -125h52l-62 144q-1 2 -1 4q1 11 12 12h164h164q11 -1 12 -12q0 -2 -1 -4l-62 -144h52l54 125q5 11 5 23q-1 26 -18 43
q-16 16 -42 17h-140v40h32q22 2 24 24q-2 22 -24 24h-32v32v0zM101 16h246l16 -32h-278l16 32v0zM385 47q-9 16 -28 17h-265q-20 -1 -29 -17l-26 -52q-5 -8 -5 -18q0 -18 12 -29q11 -12 29 -12h302q18 0 29 12q12 11 12 29q0 10 -5 18l-26 52v0z" />
    <glyph glyph-name="uniF441" unicode="&#xf441;" horiz-adv-x="448" 
d="M227 400h-110l17 -13q10 -7 10 -19t-10 -19l-6 -5q-16 -12 -16 -32v-91q0 -16 13 -26l2 -1q16 -11 33 0l50 36q19 12 33 -5q12 -19 -5 -34l-50 -36l-54 -39q-11 -8 -17 -20h-50q8 34 36 56q-2 2 -4 3l-2 1q-32 25 -33 65v91q0 31 19 54h-1q-18 14 -18 37q0 19 13 32
t32 13h118q80 -2 134 -55q53 -54 55 -134q0 -17 -3 -34l-23 -129h-49l25 138q2 12 2 25q-2 60 -41 100q-40 39 -100 41v0zM85 16l-16 -32h310l-16 32h-278v0zM401 47l26 -52q5 -8 5 -18q0 -18 -12 -29q-11 -12 -29 -12h-334q-18 0 -29 12q-12 11 -12 29q0 10 5 18l26 52
q9 16 29 17h297q19 -1 28 -17v0zM172 320q18 -2 20 -20q-2 -18 -20 -20q-18 2 -20 20q2 18 20 20v0z" />
    <glyph glyph-name="uniF441" unicode="&#x265e;" horiz-adv-x="448" 
d="M227 400h-110l17 -13q10 -7 10 -19t-10 -19l-6 -5q-16 -12 -16 -32v-91q0 -16 13 -26l2 -1q16 -11 33 0l50 36q19 12 33 -5q12 -19 -5 -34l-50 -36l-54 -39q-11 -8 -17 -20h-50q8 34 36 56q-2 2 -4 3l-2 1q-32 25 -33 65v91q0 31 19 54h-1q-18 14 -18 37q0 19 13 32
t32 13h118q80 -2 134 -55q53 -54 55 -134q0 -17 -3 -34l-23 -129h-49l25 138q2 12 2 25q-2 60 -41 100q-40 39 -100 41v0zM85 16l-16 -32h310l-16 32h-278v0zM401 47l26 -52q5 -8 5 -18q0 -18 -12 -29q-11 -12 -29 -12h-334q-18 0 -29 12q-12 11 -12 29q0 10 5 18l26 52
q9 16 29 17h297q19 -1 28 -17v0zM172 320q18 -2 20 -20q-2 -18 -20 -20q-18 2 -20 20q2 18 20 20v0z" />
    <glyph glyph-name="uniF443" unicode="&#xf443;" horiz-adv-x="320" 
d="M232 296q-1 41 -36 62q-36 20 -72 0q-35 -21 -36 -62q1 -41 36 -62q36 -20 72 0q35 21 36 62v0zM256 176h-13l11 -80h-48l-11 80h-35h-35l-11 -80h-48l11 80h-13q-22 2 -24 24q2 22 24 24q-23 31 -24 72q1 51 35 85t85 35q51 -1 85 -35t35 -85q-1 -41 -24 -72
q22 -2 24 -24q-2 -22 -24 -24v0zM53 -16h214l-16 32h-182l-16 -32v0zM261 64q19 -1 28 -17l27 -52q4 -8 4 -18q0 -18 -12 -29q-11 -12 -29 -12h-238q-18 0 -29 12q-12 11 -12 29q0 10 5 18l26 52q9 16 29 17h201v0z" />
    <glyph glyph-name="uniF443" unicode="&#x265f;" horiz-adv-x="320" 
d="M232 296q-1 41 -36 62q-36 20 -72 0q-35 -21 -36 -62q1 -41 36 -62q36 -20 72 0q35 21 36 62v0zM256 176h-13l11 -80h-48l-11 80h-35h-35l-11 -80h-48l11 80h-13q-22 2 -24 24q2 22 24 24q-23 31 -24 72q1 51 35 85t85 35q51 -1 85 -35t35 -85q-1 -41 -24 -72
q22 -2 24 -24q-2 -22 -24 -24v0zM53 -16h214l-16 32h-182l-16 -32v0zM261 64q19 -1 28 -17l27 -52q4 -8 4 -18q0 -18 -12 -29q-11 -12 -29 -12h-238q-18 0 -29 12q-12 11 -12 29q0 10 5 18l26 52q9 16 29 17h201v0z" />
    <glyph glyph-name="uniF445" unicode="&#xf445;" 
d="M256 352q27 1 42 24q12 24 0 48q-15 23 -42 24q-27 -1 -42 -24q-12 -24 0 -48q15 -23 42 -24v0zM161 360q-28 -3 -36 -27q-6 -20 -23 -32q-16 -13 -38 -13q-15 0 -28 6q-12 6 -24 -1q-18 -13 -8 -34l94 -163h55l-83 144q31 2 55 18t38 42q35 -42 93 -44q58 2 93 44
q13 -26 38 -42q24 -16 55 -18l-83 -144h55l94 163q10 20 -8 34q-12 7 -24 1q-13 -6 -28 -6q-22 0 -38 13q-17 12 -23 32q-8 24 -36 27q-22 -2 -32 -19q-21 -35 -63 -37q-42 2 -63 37q-10 17 -32 19v0zM133 16h246l16 -32h-278l16 32v0zM417 47q-9 16 -28 17h-265
q-20 -1 -29 -17l-26 -52q-5 -8 -5 -18q0 -18 12 -29q11 -12 29 -12h302q18 0 29 12q12 11 12 29q0 10 -5 18l-26 52v0z" />
    <glyph glyph-name="uniF445" unicode="&#x265b;" 
d="M256 352q27 1 42 24q12 24 0 48q-15 23 -42 24q-27 -1 -42 -24q-12 -24 0 -48q15 -23 42 -24v0zM161 360q-28 -3 -36 -27q-6 -20 -23 -32q-16 -13 -38 -13q-15 0 -28 6q-12 6 -24 -1q-18 -13 -8 -34l94 -163h55l-83 144q31 2 55 18t38 42q35 -42 93 -44q58 2 93 44
q13 -26 38 -42q24 -16 55 -18l-83 -144h55l94 163q10 20 -8 34q-12 7 -24 1q-13 -6 -28 -6q-22 0 -38 13q-17 12 -23 32q-8 24 -36 27q-22 -2 -32 -19q-21 -35 -63 -37q-42 2 -63 37q-10 17 -32 19v0zM133 16h246l16 -32h-278l16 32v0zM417 47q-9 16 -28 17h-265
q-20 -1 -29 -17l-26 -52q-5 -8 -5 -18q0 -18 12 -29q11 -12 29 -12h302q18 0 29 12q12 11 12 29q0 10 -5 18l-26 52v0z" />
    <glyph glyph-name="uniF447" unicode="&#xf447;" horiz-adv-x="448" 
d="M80 368v-112q0 -4 3 -6l51 -39q11 -8 10 -22l-10 -93h-49l10 85l-41 30q-21 17 -22 45v120q0 17 12 28q11 12 28 12h304q17 0 28 -12q12 -11 12 -28v-120q-1 -28 -22 -45l-41 -30l10 -85h-48l-11 93q-1 14 10 22l51 39q3 2 3 6v112h-64v-24q-2 -22 -24 -24q-22 2 -24 24
v24h-64v-24q-2 -22 -24 -24q-22 2 -24 24v24h-64v0zM85 -16h278l-16 32h-246l-16 -32v0zM357 64q19 -1 28 -17l26 -52q5 -8 5 -18q0 -18 -12 -29q-11 -12 -29 -12h-302q-18 0 -29 12q-12 11 -12 29q0 10 5 18l26 52q9 16 29 17h265v0zM208 160q-15 1 -16 16v48q0 14 9 23
t23 9t23 -9t9 -23v-48q-1 -15 -16 -16h-32v0z" />
    <glyph glyph-name="uniF447" unicode="&#x265c;" horiz-adv-x="448" 
d="M80 368v-112q0 -4 3 -6l51 -39q11 -8 10 -22l-10 -93h-49l10 85l-41 30q-21 17 -22 45v120q0 17 12 28q11 12 28 12h304q17 0 28 -12q12 -11 12 -28v-120q-1 -28 -22 -45l-41 -30l10 -85h-48l-11 93q-1 14 10 22l51 39q3 2 3 6v112h-64v-24q-2 -22 -24 -24q-22 2 -24 24
v24h-64v-24q-2 -22 -24 -24q-22 2 -24 24v24h-64v0zM85 -16h278l-16 32h-246l-16 -32v0zM357 64q19 -1 28 -17l26 -52q5 -8 5 -18q0 -18 -12 -29q-11 -12 -29 -12h-302q-18 0 -29 12q-12 11 -12 29q0 10 5 18l26 52q9 16 29 17h265v0zM208 160q-15 1 -16 16v48q0 14 9 23
t23 9t23 -9t9 -23v-48q-1 -15 -16 -16h-32v0z" />
    <glyph glyph-name="u1F7EB" unicode="&#x1f7eb;" 
d="M464 400v-416h-416v416h416v0zM48 448h-48v-48v-416v-48h48h416h48v48v416v48h-48h-416v0z" />
    <glyph glyph-name="u1F7EB" unicode="&#x1f7ea;" 
d="M464 400v-416h-416v416h416v0zM48 448h-48v-48v-416v-48h48h416h48v48v416v48h-48h-416v0z" />
    <glyph glyph-name="u1F7EB" unicode="&#x1f7e9;" 
d="M464 400v-416h-416v416h416v0zM48 448h-48v-48v-416v-48h48h416h48v48v416v48h-48h-416v0z" />
    <glyph glyph-name="u1F7EB" unicode="&#x1f7e8;" 
d="M464 400v-416h-416v416h416v0zM48 448h-48v-48v-416v-48h48h416h48v48v416v48h-48h-416v0z" />
    <glyph glyph-name="u1F7EB" unicode="&#x1f7e7;" 
d="M464 400v-416h-416v416h416v0zM48 448h-48v-48v-416v-48h48h416h48v48v416v48h-48h-416v0z" />
    <glyph glyph-name="u1F7EB" unicode="&#x1f7e6;" 
d="M464 400v-416h-416v416h416v0zM48 448h-48v-48v-416v-48h48h416h48v48v416v48h-48h-416v0z" />
    <glyph glyph-name="u1F7EB" unicode="&#x1f7e5;" 
d="M464 400v-416h-416v416h416v0zM48 448h-48v-48v-416v-48h48h416h48v48v416v48h-48h-416v0z" />
    <glyph glyph-name="u1F7EB" unicode="&#xf45c;" 
d="M464 400v-416h-416v416h416v0zM48 448h-48v-48v-416v-48h48h416h48v48v416v48h-48h-416v0z" />
    <glyph glyph-name="u1F7EB" unicode="&#x2b1c;" 
d="M464 400v-416h-416v416h416v0zM48 448h-48v-48v-416v-48h48h416h48v48v416v48h-48h-416v0z" />
    <glyph glyph-name="u1F7EB" unicode="&#x2b1b;" 
d="M464 400v-416h-416v416h416v0zM48 448h-48v-48v-416v-48h48h416h48v48v416v48h-48h-416v0z" />
    <glyph glyph-name="u1F4AC" unicode="&#x1f4ac;" 
d="M168 63q-24 8 -44 -6q-13 -10 -40 -23q9 22 12 49q1 20 -12 36q-36 40 -36 89q1 62 57 110q56 47 151 50q95 -3 151 -50q56 -48 57 -110q-1 -62 -57 -110q-56 -47 -151 -50q-48 0 -88 15v0zM26 24q-2 -4 -5 -8v0l-2 -4l-3 -3q-5 -7 -11 -14q-7 -7 -4 -17q5 -10 15 -10h8
t8 1v0q7 1 13 2h3v0q27 6 50 16q35 17 54 31q48 -18 104 -18q72 1 130 28q57 28 91 75t35 105q-1 58 -35 105t-92 75q-57 27 -129 28q-72 -1 -129 -28q-58 -28 -92 -75t-35 -105q1 -69 48 -121q-5 -37 -22 -63v0zM144 176q14 0 23 9v0q9 9 9 23t-9 23t-23 9t-23 -9t-9 -23
t9 -23t23 -9v0zM288 208q0 14 -9 23v0q-9 9 -23 9t-23 -9t-9 -23t9 -23t23 -9t23 9t9 23v0zM368 176q14 0 23 9v0q9 9 9 23t-9 23t-23 9t-23 -9t-9 -23t9 -23t23 -9v0z" />
    <glyph glyph-name="u1F4AC" unicode="&#xf4ad;" 
d="M168 63q-24 8 -44 -6q-13 -10 -40 -23q9 22 12 49q1 20 -12 36q-36 40 -36 89q1 62 57 110q56 47 151 50q95 -3 151 -50q56 -48 57 -110q-1 -62 -57 -110q-56 -47 -151 -50q-48 0 -88 15v0zM26 24q-2 -4 -5 -8v0l-2 -4l-3 -3q-5 -7 -11 -14q-7 -7 -4 -17q5 -10 15 -10h8
t8 1v0q7 1 13 2h3v0q27 6 50 16q35 17 54 31q48 -18 104 -18q72 1 130 28q57 28 91 75t35 105q-1 58 -35 105t-92 75q-57 27 -129 28q-72 -1 -129 -28q-58 -28 -92 -75t-35 -105q1 -69 48 -121q-5 -37 -22 -63v0zM144 176q14 0 23 9v0q9 9 9 23t-9 23t-23 9t-23 -9t-9 -23
t9 -23t23 -9v0zM288 208q0 14 -9 23v0q-9 9 -23 9t-23 -9t-9 -23t9 -23t23 -9t23 9t9 23v0zM368 176q14 0 23 9v0q9 9 9 23t-9 23t-23 9t-23 -9t-9 -23t9 -23t23 -9v0z" />
    <glyph glyph-name="u1F4AC" unicode="&#xf27b;" 
d="M168 63q-24 8 -44 -6q-13 -10 -40 -23q9 22 12 49q1 20 -12 36q-36 40 -36 89q1 62 57 110q56 47 151 50q95 -3 151 -50q56 -48 57 -110q-1 -62 -57 -110q-56 -47 -151 -50q-48 0 -88 15v0zM26 24q-2 -4 -5 -8v0l-2 -4l-3 -3q-5 -7 -11 -14q-7 -7 -4 -17q5 -10 15 -10h8
t8 1v0q7 1 13 2h3v0q27 6 50 16q35 17 54 31q48 -18 104 -18q72 1 130 28q57 28 91 75t35 105q-1 58 -35 105t-92 75q-57 27 -129 28q-72 -1 -129 -28q-58 -28 -92 -75t-35 -105q1 -69 48 -121q-5 -37 -22 -63v0zM144 176q14 0 23 9v0q9 9 9 23t-9 23t-23 9t-23 -9t-9 -23
t9 -23t23 -9v0zM288 208q0 14 -9 23v0q-9 9 -23 9t-23 -9t-9 -23t9 -23t23 -9t23 9t9 23v0zM368 176q14 0 23 9v0q9 9 9 23t-9 23t-23 9t-23 -9t-9 -23t9 -23t23 -9v0z" />
    <glyph glyph-name="u1F609" unicode="&#x1f609;" 
d="M464 192q0 57 -28 104v0q-27 47 -76 76q-49 28 -104 28t-104 -28q-49 -29 -76 -76q-28 -47 -28 -104t28 -104q27 -47 76 -76q49 -28 104 -28t104 28q49 29 76 76q28 47 28 104v0zM0 192q1 70 34 128v0q34 58 94 94q61 34 128 34t128 -34q60 -36 94 -94q33 -58 34 -128
q-1 -70 -34 -128q-34 -58 -94 -94q-61 -34 -128 -34t-128 34q-60 36 -94 94q-33 58 -34 128v0zM178 130q11 -13 31 -23v0q19 -10 47 -11q28 1 47 11q20 10 31 23q17 15 34 1q15 -16 2 -34q-17 -18 -45 -33q-29 -15 -69 -16q-40 1 -69 16q-28 15 -45 33q-13 18 2 34
q17 14 34 -1v0zM144 240q1 14 10 23v0q9 9 22 9q14 0 23 -9t9 -23t-9 -23t-23 -9q-13 0 -22 9t-10 23v0zM310 218q-14 -12 -28 -1q-12 14 -1 29q24 22 55 22t54 -22q11 -15 -1 -29q-14 -11 -28 1q-9 10 -25 10q-17 0 -26 -10v0z" />
    <glyph glyph-name="u1F609" unicode="&#xf4da;" 
d="M464 192q0 57 -28 104v0q-27 47 -76 76q-49 28 -104 28t-104 -28q-49 -29 -76 -76q-28 -47 -28 -104t28 -104q27 -47 76 -76q49 -28 104 -28t104 28q49 29 76 76q28 47 28 104v0zM0 192q1 70 34 128v0q34 58 94 94q61 34 128 34t128 -34q60 -36 94 -94q33 -58 34 -128
q-1 -70 -34 -128q-34 -58 -94 -94q-61 -34 -128 -34t-128 34q-60 36 -94 94q-33 58 -34 128v0zM178 130q11 -13 31 -23v0q19 -10 47 -11q28 1 47 11q20 10 31 23q17 15 34 1q15 -16 2 -34q-17 -18 -45 -33q-29 -15 -69 -16q-40 1 -69 16q-28 15 -45 33q-13 18 2 34
q17 14 34 -1v0zM144 240q1 14 10 23v0q9 9 22 9q14 0 23 -9t9 -23t-9 -23t-23 -9q-13 0 -22 9t-10 23v0zM310 218q-14 -12 -28 -1q-12 14 -1 29q24 22 55 22t54 -22q11 -15 -1 -29q-14 -11 -28 1q-9 10 -25 10q-17 0 -26 -10v0z" />
    <glyph glyph-name="u1F620" unicode="&#x1f620;" 
d="M256 400q57 0 104 -28v0q47 -27 76 -76q28 -49 28 -104t-28 -104q-29 -49 -76 -76q-47 -28 -104 -28t-104 28q-47 27 -76 76q-28 49 -28 104t28 104q29 49 76 76q47 28 104 28v0zM256 -64q70 1 128 34v0q58 34 94 94q34 61 34 128t-34 128q-36 60 -94 94q-58 33 -128 34
q-70 -1 -128 -34q-58 -34 -94 -94q-34 -61 -34 -128t34 -128q36 -60 94 -94q58 -33 128 -34v0zM328 54q15 17 2 34q-11 12 -30 22q-18 9 -44 10q-26 -1 -44 -10q-19 -10 -29 -22q-14 -17 1 -34q17 -13 34 2q11 14 38 16q28 -2 39 -16q16 -15 34 -2h-1zM176 176q14 0 23 9v0
q9 9 9 23v4l11 -3q14 -4 20 10q4 14 -10 20l-96 32q-14 3 -20 -10q-3 -14 10 -20l31 -10q-9 -9 -10 -23q1 -14 10 -23t22 -9v0zM368 208q0 14 -9 23l30 10q14 6 10 20q-6 13 -20 10l-96 -32q-13 -6 -10 -20q6 -13 20 -10l12 4v-5q0 -14 9 -23t23 -9q13 0 22 9t10 23h-1z" />
    <glyph glyph-name="u1F620" unicode="&#xf556;" 
d="M256 400q57 0 104 -28v0q47 -27 76 -76q28 -49 28 -104t-28 -104q-29 -49 -76 -76q-47 -28 -104 -28t-104 28q-47 27 -76 76q-28 49 -28 104t28 104q29 49 76 76q47 28 104 28v0zM256 -64q70 1 128 34v0q58 34 94 94q34 61 34 128t-34 128q-36 60 -94 94q-58 33 -128 34
q-70 -1 -128 -34q-58 -34 -94 -94q-34 -61 -34 -128t34 -128q36 -60 94 -94q58 -33 128 -34v0zM328 54q15 17 2 34q-11 12 -30 22q-18 9 -44 10q-26 -1 -44 -10q-19 -10 -29 -22q-14 -17 1 -34q17 -13 34 2q11 14 38 16q28 -2 39 -16q16 -15 34 -2h-1zM176 176q14 0 23 9v0
q9 9 9 23v4l11 -3q14 -4 20 10q4 14 -10 20l-96 32q-14 3 -20 -10q-3 -14 10 -20l31 -10q-9 -9 -10 -23q1 -14 10 -23t22 -9v0zM368 208q0 14 -9 23l30 10q14 6 10 20q-6 13 -20 10l-96 -32q-13 -6 -10 -20q6 -13 20 -10l12 4v-5q0 -14 9 -23t23 -9q13 0 22 9t10 23h-1z" />
    <glyph glyph-name="uniF567" unicode="&#xf567;" 
d="M464 192q0 57 -28 104v0q-27 47 -76 76q-49 28 -104 28t-104 -28q-49 -29 -76 -76q-28 -47 -28 -104t28 -104q27 -47 76 -76q49 -28 104 -28t104 28q49 29 76 76q28 47 28 104v0zM0 192q1 70 34 128v0q34 58 94 94q61 34 128 34t128 -34q60 -36 94 -94q33 -58 34 -128
q-1 -70 -34 -128q-34 -58 -94 -94q-61 -34 -128 -34t-128 34q-60 36 -94 94q-33 58 -34 128v0zM256 160q36 -1 55 -32q18 -32 0 -64q-19 -31 -55 -32q-36 1 -55 32q-18 32 0 64q19 31 55 32v0zM103 313q17 14 34 0l23 -23l23 23q17 14 34 0q14 -17 0 -34l-23 -23l23 -23
q14 -17 0 -34q-17 -14 -34 0l-23 23l-23 -23q-17 -14 -34 0q-14 17 0 34l23 23l-23 23q-14 17 0 34v0zM295 313q17 14 34 0l23 -23l23 23q17 14 34 0q14 -17 0 -34l-23 -23l23 -23q14 -17 0 -34q-17 -14 -34 0l-23 23l-23 -23q-17 -14 -34 0q-14 17 0 34l23 23l-23 23
q-14 17 0 34v0z" />
    <glyph glyph-name="u1F633" unicode="&#x1f633;" 
d="M464 192q0 -57 -28 -104v0q-27 -47 -76 -76q-49 -28 -104 -28t-104 28q-49 29 -76 76q-28 47 -28 104t28 104q27 47 76 76q49 28 104 28t104 -28q49 -29 76 -76q28 -47 28 -104v0zM256 448q-70 -1 -128 -34v0q-58 -34 -94 -94q-34 -61 -34 -128t34 -128q36 -60 94 -94
q58 -33 128 -34q70 1 128 34q58 34 94 94q34 61 34 128t-34 128q-36 60 -94 94q-58 33 -128 34v0zM160 200q22 2 24 24q-2 22 -24 24q-22 -2 -24 -24q2 -22 24 -24v0zM376 224q-2 22 -24 24q-22 -2 -24 -24q2 -22 24 -24q22 2 24 24v0zM192 112q-22 -2 -24 -24q2 -22 24 -24
h128q22 2 24 24q-2 22 -24 24h-128v0zM160 272q27 -1 42 -24q12 -24 0 -48q-15 -23 -42 -24q-27 1 -42 24q-12 24 0 48q15 23 42 24v0zM160 144q45 1 69 40q22 40 0 80q-24 39 -69 40q-45 -1 -69 -40q-22 -40 0 -80q24 -39 69 -40v0zM304 224q1 27 24 42q24 12 48 0
q23 -15 24 -42q-1 -27 -24 -42q-24 -12 -48 0q-23 15 -24 42v0zM432 224q-1 45 -40 69q-40 22 -80 0q-39 -24 -40 -69q1 -45 40 -69q40 -22 80 0q39 24 40 69v0z" />
    <glyph glyph-name="u1F633" unicode="&#xf579;" 
d="M464 192q0 -57 -28 -104v0q-27 -47 -76 -76q-49 -28 -104 -28t-104 28q-49 29 -76 76q-28 47 -28 104t28 104q27 47 76 76q49 28 104 28t104 -28q49 -29 76 -76q28 -47 28 -104v0zM256 448q-70 -1 -128 -34v0q-58 -34 -94 -94q-34 -61 -34 -128t34 -128q36 -60 94 -94
q58 -33 128 -34q70 1 128 34q58 34 94 94q34 61 34 128t-34 128q-36 60 -94 94q-58 33 -128 34v0zM160 200q22 2 24 24q-2 22 -24 24q-22 -2 -24 -24q2 -22 24 -24v0zM376 224q-2 22 -24 24q-22 -2 -24 -24q2 -22 24 -24q22 2 24 24v0zM192 112q-22 -2 -24 -24q2 -22 24 -24
h128q22 2 24 24q-2 22 -24 24h-128v0zM160 272q27 -1 42 -24q12 -24 0 -48q-15 -23 -42 -24q-27 1 -42 24q-12 24 0 48q15 23 42 24v0zM160 144q45 1 69 40q22 40 0 80q-24 39 -69 40q-45 -1 -69 -40q-22 -40 0 -80q24 -39 69 -40v0zM304 224q1 27 24 42q24 12 48 0
q23 -15 24 -42q-1 -27 -24 -42q-24 -12 -48 0q-23 15 -24 42v0zM432 224q-1 45 -40 69q-40 22 -80 0q-39 -24 -40 -69q1 -45 40 -69q40 -22 80 0q39 24 40 69v0z" />
    <glyph glyph-name="u1F626" unicode="&#x1f626;" 
d="M464 192q0 57 -28 104v0q-27 47 -76 76q-49 28 -104 28t-104 -28q-49 -29 -76 -76q-28 -47 -28 -104t28 -104q27 -47 76 -76q49 -28 104 -28t104 28q49 29 76 76q28 47 28 104v0zM0 192q1 70 34 128v0q34 58 94 94q61 34 128 34t128 -34q60 -36 94 -94q33 -58 34 -128
q-1 -70 -34 -128q-34 -58 -94 -94q-61 -34 -128 -34t-128 34q-60 36 -94 94q-33 58 -34 128v0zM182 65q-10 -3 -17 2v0q-7 5 -4 15q13 28 38 45t57 17t57 -17t38 -45q3 -10 -4 -15t-17 -2q-34 15 -74 15t-74 -15v0zM144 240q1 14 10 23v0q9 9 22 9q14 0 23 -9t9 -23t-9 -23
t-23 -9q-13 0 -22 9t-10 23v0zM336 272q14 0 23 -9v0q9 -9 9 -23t-9 -23t-23 -9q-13 0 -22 9t-10 23q1 14 10 23t22 9v0z" />
    <glyph glyph-name="u1F626" unicode="&#xf57a;" 
d="M464 192q0 57 -28 104v0q-27 47 -76 76q-49 28 -104 28t-104 -28q-49 -29 -76 -76q-28 -47 -28 -104t28 -104q27 -47 76 -76q49 -28 104 -28t104 28q49 29 76 76q28 47 28 104v0zM0 192q1 70 34 128v0q34 58 94 94q61 34 128 34t128 -34q60 -36 94 -94q33 -58 34 -128
q-1 -70 -34 -128q-34 -58 -94 -94q-61 -34 -128 -34t-128 34q-60 36 -94 94q-33 58 -34 128v0zM182 65q-10 -3 -17 2v0q-7 5 -4 15q13 28 38 45t57 17t57 -17t38 -45q3 -10 -4 -15t-17 -2q-34 15 -74 15t-74 -15v0zM144 240q1 14 10 23v0q9 9 22 9q14 0 23 -9t9 -23t-9 -23
t-23 -9q-13 0 -22 9t-10 23v0zM336 272q14 0 23 -9v0q9 -9 9 -23t-9 -23t-23 -9q-13 0 -22 9t-10 23q1 14 10 23t22 9v0z" />
    <glyph glyph-name="u1F62C" unicode="&#x1f62c;" 
d="M256 400q-57 0 -104 -28v0q-47 -27 -76 -76q-28 -49 -28 -104t28 -104q29 -49 76 -76q47 -28 104 -28t104 28q47 27 76 76q28 49 28 104t-28 104q-29 49 -76 76q-47 28 -104 28v0zM512 192q-1 -70 -34 -128v0q-34 -58 -94 -94q-61 -34 -128 -34t-128 34q-60 36 -94 94
q-33 58 -34 128q1 70 34 128q34 58 94 94q61 34 128 34t128 -34q60 -36 94 -94q33 -58 34 -128v0zM168 128q-22 -2 -24 -24q2 -22 24 -24h8v48h-8v0zM208 80h32v48h-32v-48v0zM304 80v48h-32v-48h32v0zM336 80h8q22 2 24 24q-2 22 -24 24h-8v-48v0zM168 160h176
q24 -1 40 -16q15 -16 16 -40q-1 -24 -16 -40q-16 -15 -40 -16h-176q-24 1 -40 16q-15 16 -16 40q1 24 16 40q16 15 40 16v0zM144 240q1 14 10 23v0q9 9 22 9q14 0 23 -9t9 -23t-9 -23t-23 -9q-13 0 -22 9t-10 23v0zM336 272q14 0 23 -9v0q9 -9 9 -23t-9 -23t-23 -9
q-13 0 -22 9t-10 23q1 14 10 23t22 9v0z" />
    <glyph glyph-name="u1F62C" unicode="&#xf57f;" 
d="M256 400q-57 0 -104 -28v0q-47 -27 -76 -76q-28 -49 -28 -104t28 -104q29 -49 76 -76q47 -28 104 -28t104 28q47 27 76 76q28 49 28 104t-28 104q-29 49 -76 76q-47 28 -104 28v0zM512 192q-1 -70 -34 -128v0q-34 -58 -94 -94q-61 -34 -128 -34t-128 34q-60 36 -94 94
q-33 58 -34 128q1 70 34 128q34 58 94 94q61 34 128 34t128 -34q60 -36 94 -94q33 -58 34 -128v0zM168 128q-22 -2 -24 -24q2 -22 24 -24h8v48h-8v0zM208 80h32v48h-32v-48v0zM304 80v48h-32v-48h32v0zM336 80h8q22 2 24 24q-2 22 -24 24h-8v-48v0zM168 160h176
q24 -1 40 -16q15 -16 16 -40q-1 -24 -16 -40q-16 -15 -40 -16h-176q-24 1 -40 16q-15 16 -16 40q1 24 16 40q16 15 40 16v0zM144 240q1 14 10 23v0q9 9 22 9q14 0 23 -9t9 -23t-9 -23t-23 -9q-13 0 -22 9t-10 23v0zM336 272q14 0 23 -9v0q9 -9 9 -23t-9 -23t-23 -9
q-13 0 -22 9t-10 23q1 14 10 23t22 9v0z" />
    <glyph glyph-name="u1F600" unicode="&#x1f600;" 
d="M464 192q0 57 -28 104v0q-27 47 -76 76q-49 28 -104 28t-104 -28q-49 -29 -76 -76q-28 -47 -28 -104t28 -104q27 -47 76 -76q49 -28 104 -28t104 28q49 29 76 76q28 47 28 104v0zM0 192q1 70 34 128v0q34 58 94 94q61 34 128 34t128 -34q60 -36 94 -94q33 -58 34 -128
q-1 -70 -34 -128q-34 -58 -94 -94q-61 -34 -128 -34t-128 34q-60 36 -94 94q-33 58 -34 128v0zM350 140q14 2 23 -7v0q9 -9 2 -22q-19 -28 -50 -46q-31 -17 -69 -17t-69 17q-31 18 -50 46q-7 13 2 22q8 9 23 7q44 -11 94 -11t94 11v0zM144 240q1 14 10 23v0q9 9 22 9
q14 0 23 -9t9 -23t-9 -23t-23 -9q-13 0 -22 9t-10 23v0zM336 272q14 0 23 -9v0q9 -9 9 -23t-9 -23t-23 -9q-13 0 -22 9t-10 23q1 14 10 23t22 9v0z" />
    <glyph glyph-name="u1F600" unicode="&#xf580;" 
d="M464 192q0 57 -28 104v0q-27 47 -76 76q-49 28 -104 28t-104 -28q-49 -29 -76 -76q-28 -47 -28 -104t28 -104q27 -47 76 -76q49 -28 104 -28t104 28q49 29 76 76q28 47 28 104v0zM0 192q1 70 34 128v0q34 58 94 94q61 34 128 34t128 -34q60 -36 94 -94q33 -58 34 -128
q-1 -70 -34 -128q-34 -58 -94 -94q-61 -34 -128 -34t-128 34q-60 36 -94 94q-33 58 -34 128v0zM350 140q14 2 23 -7v0q9 -9 2 -22q-19 -28 -50 -46q-31 -17 -69 -17t-69 17q-31 18 -50 46q-7 13 2 22q8 9 23 7q44 -11 94 -11t94 11v0zM144 240q1 14 10 23v0q9 9 22 9
q14 0 23 -9t9 -23t-9 -23t-23 -9q-13 0 -22 9t-10 23v0zM336 272q14 0 23 -9v0q9 -9 9 -23t-9 -23t-23 -9q-13 0 -22 9t-10 23q1 14 10 23t22 9v0z" />
    <glyph glyph-name="u1F603" unicode="&#x1f603;" 
d="M464 192q0 57 -28 104v0q-27 47 -76 76q-49 28 -104 28t-104 -28q-49 -29 -76 -76q-28 -47 -28 -104t28 -104q27 -47 76 -76q49 -28 104 -28t104 28q49 29 76 76q28 47 28 104v0zM0 192q1 70 34 128v0q34 58 94 94q61 34 128 34t128 -34q60 -36 94 -94q33 -58 34 -128
q-1 -70 -34 -128q-34 -58 -94 -94q-61 -34 -128 -34t-128 34q-60 36 -94 94q-33 58 -34 128v0zM350 140q14 2 23 -7v0q9 -9 2 -22q-19 -28 -50 -46q-31 -17 -69 -17t-69 17q-31 18 -50 46q-7 13 2 22q8 9 23 7q44 -11 94 -11t94 11v0zM224 256q0 -27 -9 -45v0
q-9 -18 -23 -19q-14 1 -23 19t-9 45t9 45t23 19q14 -1 23 -19t9 -45v0zM320 192q-14 1 -23 19v0q-9 18 -9 45t9 45t23 19q14 -1 23 -19t9 -45t-9 -45t-23 -19v0z" />
    <glyph glyph-name="u1F603" unicode="&#xf581;" 
d="M464 192q0 57 -28 104v0q-27 47 -76 76q-49 28 -104 28t-104 -28q-49 -29 -76 -76q-28 -47 -28 -104t28 -104q27 -47 76 -76q49 -28 104 -28t104 28q49 29 76 76q28 47 28 104v0zM0 192q1 70 34 128v0q34 58 94 94q61 34 128 34t128 -34q60 -36 94 -94q33 -58 34 -128
q-1 -70 -34 -128q-34 -58 -94 -94q-61 -34 -128 -34t-128 34q-60 36 -94 94q-33 58 -34 128v0zM350 140q14 2 23 -7v0q9 -9 2 -22q-19 -28 -50 -46q-31 -17 -69 -17t-69 17q-31 18 -50 46q-7 13 2 22q8 9 23 7q44 -11 94 -11t94 11v0zM224 256q0 -27 -9 -45v0
q-9 -18 -23 -19q-14 1 -23 19t-9 45t9 45t23 19q14 -1 23 -19t9 -45v0zM320 192q-14 1 -23 19v0q-9 18 -9 45t9 45t23 19q14 -1 23 -19t9 -45t-9 -45t-23 -19v0z" />
    <glyph glyph-name="u1F604" unicode="&#x1f604;" 
d="M464 192q0 57 -28 104v0q-27 47 -76 76q-49 28 -104 28t-104 -28q-49 -29 -76 -76q-28 -47 -28 -104t28 -104q27 -47 76 -76q49 -28 104 -28t104 28q49 29 76 76q28 47 28 104v0zM0 192q1 70 34 128v0q34 58 94 94q61 34 128 34t128 -34q60 -36 94 -94q33 -58 34 -128
q-1 -70 -34 -128q-34 -58 -94 -94q-61 -34 -128 -34t-128 34q-60 36 -94 94q-33 58 -34 128v0zM350 140q14 2 23 -7v0q9 -9 2 -22q-19 -28 -50 -46q-31 -17 -69 -17t-69 17q-31 18 -50 46q-7 13 2 22q8 9 23 7q44 -11 94 -11t94 11v0zM218 219v0v0h-1v1v0q-1 2 -3 4l-10 10
q-14 13 -28 14q-14 -1 -28 -14l-10 -10q-2 -2 -3 -4v0v-1h-1v0v0v0q-3 -4 -8 -3q-6 2 -6 8q1 28 17 49q15 21 39 23q24 -2 39 -23q16 -21 17 -49q0 -6 -5 -8q-6 -1 -9 3v0v0v0zM378 219v0h-1v1v0q-1 2 -3 4l-10 10q-14 13 -28 14q-14 -1 -28 -14l-10 -10q-2 -2 -3 -4v0v-1
h-1v0v0v0q-3 -4 -9 -3q-5 2 -5 8q1 28 17 49q15 21 39 23q24 -2 39 -23q16 -21 17 -49q0 -6 -6 -8q-5 -1 -8 3v0v0v0v0z" />
    <glyph glyph-name="u1F604" unicode="&#xf582;" 
d="M464 192q0 57 -28 104v0q-27 47 -76 76q-49 28 -104 28t-104 -28q-49 -29 -76 -76q-28 -47 -28 -104t28 -104q27 -47 76 -76q49 -28 104 -28t104 28q49 29 76 76q28 47 28 104v0zM0 192q1 70 34 128v0q34 58 94 94q61 34 128 34t128 -34q60 -36 94 -94q33 -58 34 -128
q-1 -70 -34 -128q-34 -58 -94 -94q-61 -34 -128 -34t-128 34q-60 36 -94 94q-33 58 -34 128v0zM350 140q14 2 23 -7v0q9 -9 2 -22q-19 -28 -50 -46q-31 -17 -69 -17t-69 17q-31 18 -50 46q-7 13 2 22q8 9 23 7q44 -11 94 -11t94 11v0zM218 219v0v0h-1v1v0q-1 2 -3 4l-10 10
q-14 13 -28 14q-14 -1 -28 -14l-10 -10q-2 -2 -3 -4v0v-1h-1v0v0v0q-3 -4 -8 -3q-6 2 -6 8q1 28 17 49q15 21 39 23q24 -2 39 -23q16 -21 17 -49q0 -6 -5 -8q-6 -1 -9 3v0v0v0zM378 219v0h-1v1v0q-1 2 -3 4l-10 10q-14 13 -28 14q-14 -1 -28 -14l-10 -10q-2 -2 -3 -4v0v-1
h-1v0v0v0q-3 -4 -9 -3q-5 2 -5 8q1 28 17 49q15 21 39 23q24 -2 39 -23q16 -21 17 -49q0 -6 -6 -8q-5 -1 -8 3v0v0v0v0z" />
    <glyph glyph-name="u1F605" unicode="&#x1f605;" 
d="M477 322q15 4 25 16v0q10 12 10 29q-1 16 -16 40q-14 23 -26 38q-6 6 -12 0q-8 -10 -19 -26q-10 -16 -17 -32v0q-1 -1 -1 -2q-5 -10 -5 -18q1 -20 14 -33q14 -14 34 -14q7 0 13 2v0zM395 407q-61 40 -139 41q-72 -1 -129 -35q-58 -34 -92 -92q-34 -57 -35 -129
q1 -72 35 -129q34 -58 92 -92q57 -34 129 -35q72 1 129 35q58 34 92 92q34 57 35 129q0 54 -21 101q-13 -5 -27 -5q-13 0 -26 4q25 -45 26 -100q-2 -88 -61 -147t-147 -61q-88 2 -147 61t-61 147q2 88 61 147t147 61q74 -1 129 -45q-1 6 -1 12q1 18 7 30l4 10v0zM375 111
q7 13 -2 22v0q-9 9 -23 7q-44 -11 -94 -11t-94 11q-15 2 -23 -7q-9 -9 -2 -22q19 -28 50 -46q31 -17 69 -17t69 17q31 18 50 46v0zM218 219v0v0v0q3 -4 9 -3q5 2 5 8q-1 28 -17 49q-15 21 -39 23q-24 -2 -39 -23q-16 -21 -17 -49q0 -6 6 -8q5 -1 8 3v0v0v0h1v1v0q1 2 3 4
l10 10q14 13 28 14q14 -1 28 -14l10 -10q2 -2 3 -4v0v-1h1v0v0zM378 219v0v0q3 -4 9 -3q5 2 5 8q-1 28 -17 49q-15 21 -39 23q-24 -2 -39 -23q-16 -21 -17 -49q0 -6 6 -8q5 -1 8 3v0v0v0h1v1v0q1 2 3 4l10 10q14 13 28 14q14 -1 28 -14l10 -10q2 -2 3 -4v0v-1h1v0v0v0z" />
    <glyph glyph-name="u1F605" unicode="&#xf583;" 
d="M477 322q15 4 25 16v0q10 12 10 29q-1 16 -16 40q-14 23 -26 38q-6 6 -12 0q-8 -10 -19 -26q-10 -16 -17 -32v0q-1 -1 -1 -2q-5 -10 -5 -18q1 -20 14 -33q14 -14 34 -14q7 0 13 2v0zM395 407q-61 40 -139 41q-72 -1 -129 -35q-58 -34 -92 -92q-34 -57 -35 -129
q1 -72 35 -129q34 -58 92 -92q57 -34 129 -35q72 1 129 35q58 34 92 92q34 57 35 129q0 54 -21 101q-13 -5 -27 -5q-13 0 -26 4q25 -45 26 -100q-2 -88 -61 -147t-147 -61q-88 2 -147 61t-61 147q2 88 61 147t147 61q74 -1 129 -45q-1 6 -1 12q1 18 7 30l4 10v0zM375 111
q7 13 -2 22v0q-9 9 -23 7q-44 -11 -94 -11t-94 11q-15 2 -23 -7q-9 -9 -2 -22q19 -28 50 -46q31 -17 69 -17t69 17q31 18 50 46v0zM218 219v0v0v0q3 -4 9 -3q5 2 5 8q-1 28 -17 49q-15 21 -39 23q-24 -2 -39 -23q-16 -21 -17 -49q0 -6 6 -8q5 -1 8 3v0v0v0h1v1v0q1 2 3 4
l10 10q14 13 28 14q14 -1 28 -14l10 -10q2 -2 3 -4v0v-1h1v0v0zM378 219v0v0q3 -4 9 -3q5 2 5 8q-1 28 -17 49q-15 21 -39 23q-24 -2 -39 -23q-16 -21 -17 -49q0 -6 6 -8q5 -1 8 3v0v0v0h1v1v0q1 2 3 4l10 10q14 13 28 14q14 -1 28 -14l10 -10q2 -2 3 -4v0v-1h1v0v0v0z" />
    </font>
</defs>
</svg>
